<svg width="60" height="60" viewBox="0 0 60 60" fill="none" xmlns="http://www.w3.org/2000/svg">
<circle cx="30" cy="30" r="29" fill="#8DE936" stroke="#8DE936" stroke-width="2"/>
<path d="M15 23.8662C15.0138 23.7847 15.0231 23.7016 15.0415 23.6216C15.1046 23.334 15.2907 23.1556 15.5661 23.0802C15.7245 23.0371 15.8937 23.0064 16.0583 23.0064C17.2073 23.0002 18.3579 23.0002 19.5069 23.0048C19.8714 23.0064 20.2145 23.091 20.456 23.3894C20.5744 23.537 20.6805 23.7032 20.7544 23.8754C20.9036 24.2215 21.0266 24.5799 21.1605 24.9322C21.6757 26.2919 22.2772 27.6132 22.9786 28.8869C23.4185 29.6852 23.8923 30.462 24.4322 31.1988C24.7506 31.6325 25.089 32.0509 25.4843 32.4186C25.6689 32.5893 25.8627 32.7462 26.0934 32.8523C26.2488 32.9231 26.4088 32.9415 26.5749 32.9046C26.7256 32.8708 26.8256 32.7739 26.8841 32.6339C26.9548 32.4662 26.984 32.2893 26.9887 32.1109C26.9979 31.6049 27.004 31.0988 27.004 30.5943C27.0056 29.376 27.0133 28.1578 27.001 26.9395C26.9948 26.3427 26.8671 25.7674 26.5903 25.2321C26.4288 24.923 26.2073 24.6568 25.9888 24.3877C25.8658 24.2369 25.7504 24.08 25.7089 23.8831C25.6474 23.5863 25.7843 23.2894 26.0504 23.1294C26.1903 23.0448 26.3426 23.0018 26.5057 23.0018C28.2577 23.0018 30.0081 23.0002 31.7601 23.0033C31.8709 23.0033 31.9862 23.0217 32.0924 23.054C32.3754 23.1356 32.5246 23.3478 32.5754 23.6232C32.6138 23.8324 32.6338 24.0462 32.6354 24.2585C32.64 26.4027 32.6384 28.5469 32.6384 30.6927C32.6384 30.9204 32.6861 31.1372 32.8169 31.3264C32.9092 31.4603 33.0322 31.5587 33.2014 31.5433C33.3337 31.531 33.4675 31.4972 33.5906 31.448C33.8367 31.348 34.0351 31.1711 34.2351 31.0003C34.8796 30.4466 35.3903 29.7759 35.884 29.093C36.7008 27.9593 37.4022 26.7549 38.0267 25.5059C38.2867 24.986 38.5282 24.4569 38.7712 23.9293C38.9219 23.6001 39.1204 23.3217 39.4542 23.1571C39.6603 23.0556 39.8802 23.0048 40.1079 23.0033C41.2769 22.9987 42.4459 22.9987 43.615 23.0048C43.778 23.0064 43.9487 23.0402 44.1041 23.0925C44.4825 23.2202 44.6056 23.5217 44.5548 23.877C44.4794 24.3984 44.2687 24.8737 44.0395 25.3413C43.5504 26.3365 42.9689 27.2795 42.3736 28.2116C41.6368 29.3637 40.8616 30.4912 40.071 31.6064C39.9587 31.7648 39.8664 31.9417 39.7849 32.1186C39.6941 32.3124 39.708 32.5155 39.8002 32.7093C39.8895 32.9 40.0125 33.0677 40.1586 33.2184C40.9277 34.0121 41.7061 34.7981 42.4629 35.6026C43.1735 36.3579 43.8472 37.1454 44.4379 38.0006C44.6779 38.3483 44.9009 38.7067 45.0562 39.102C45.1501 39.3389 45.1978 39.5834 45.1655 39.8372C45.1255 40.1618 44.9286 40.3664 44.6317 40.4818C44.4517 40.5525 44.2625 40.5848 44.0703 40.5848C42.9089 40.5879 41.7461 40.5894 40.5847 40.5848C40.2094 40.5833 39.8664 40.4602 39.5787 40.2233C39.3311 40.0203 39.0927 39.8019 38.8696 39.5711C38.2036 38.8805 37.5591 38.1668 36.8823 37.4854C36.2732 36.8716 35.6164 36.3086 34.8903 35.8318C34.5719 35.6226 34.2397 35.438 33.8628 35.3488C33.6213 35.2919 33.3768 35.2934 33.1322 35.3365C32.9184 35.375 32.7815 35.5057 32.7307 35.7103C32.6877 35.8856 32.6461 36.0656 32.643 36.244C32.6307 36.9854 32.6323 37.7269 32.6307 38.4683C32.6307 38.7851 32.643 39.102 32.6338 39.4189C32.6292 39.5711 32.6046 39.728 32.5569 39.8726C32.4692 40.1403 32.2523 40.2849 32.0001 40.3802C31.7478 40.4741 31.4863 40.5248 31.2187 40.5417C30.868 40.5617 30.5188 40.5817 30.1681 40.5833C29.679 40.5863 29.1944 40.5325 28.713 40.4494C27.5409 40.2464 26.4364 39.848 25.3859 39.2927C24.4076 38.7759 23.5123 38.1422 22.6848 37.4115C21.6634 36.5117 20.7959 35.478 20.0145 34.3674C19.2885 33.3369 18.5948 32.2863 17.9595 31.1988C17.0873 29.7052 16.3136 28.1624 15.706 26.5396C15.4461 25.8443 15.2153 25.1383 15.0723 24.4077C15.0477 24.28 15.0369 24.1508 15.02 24.0231C15.0154 23.9939 15.0077 23.9662 15.0015 23.9385C15 23.9154 15 23.8908 15 23.8662Z" fill="black"/>
</svg>
