<svg xmlns="http://www.w3.org/2000/svg" width="21" height="12" viewBox="0 0 21 12" fill="none">
<rect x="9" y="9" width="3" height="3" fill="black"/>
<rect x="9" y="9" width="3" height="3" fill="black"/>
<rect x="9" y="9" width="3" height="3" fill="black"/>
<rect x="12" y="6" width="3" height="3" fill="black"/>
<rect x="12" y="6" width="3" height="3" fill="black"/>
<rect x="12" y="6" width="3" height="3" fill="black"/>
<rect x="15" y="3" width="3" height="3" fill="black"/>
<rect x="15" y="3" width="3" height="3" fill="black"/>
<rect x="15" y="3" width="3" height="3" fill="black"/>
<rect x="18" width="3" height="3" fill="black"/>
<rect x="18" width="3" height="3" fill="black"/>
<rect x="18" width="3" height="3" fill="black"/>
<rect width="3" height="3" fill="black"/>
<rect width="3" height="3" fill="black"/>
<rect width="3" height="3" fill="black"/>
<rect x="6" y="6" width="3" height="3" fill="black"/>
<rect x="6" y="6" width="3" height="3" fill="black"/>
<rect x="6" y="6" width="3" height="3" fill="black"/>
<rect x="3" y="3" width="3" height="3" fill="black"/>
<rect x="3" y="3" width="3" height="3" fill="black"/>
<rect x="3" y="3" width="3" height="3" fill="black"/>
</svg>