<svg width="22" height="22" viewBox="0 0 22 22" fill="none" xmlns="http://www.w3.org/2000/svg">
<g clip-path="url(#clip0_10_251)">
<path d="M15.2625 8.4648C16.445 8.4604 17.6264 8.4549 18.8089 8.4527C19.7824 8.4505 20.7559 8.4571 21.7294 8.4483C21.934 8.4461 22.0011 8.5011 22 8.7134C21.9923 10.7902 21.9923 12.8659 22 14.9427C22.0011 15.1561 21.934 15.2122 21.7294 15.2067C21.263 15.1957 20.7955 15.2078 20.3291 15.2111L20.3335 15.2155C20.284 14.6545 20.3214 14.0924 20.3126 13.5303C20.8153 13.5303 21.318 13.5303 21.8218 13.5303C21.8218 13.5226 21.8218 13.5149 21.8218 13.5061C21.318 13.5061 20.8142 13.5061 20.3093 13.5061L20.3203 13.494L20.3071 13.5028C20.3148 13.0881 20.3247 12.6734 20.328 12.2576C20.3313 11.8649 20.3291 11.8649 20.735 11.8649C21.1134 11.8649 21.4918 11.8649 21.8702 11.8649C21.8702 11.8451 21.8702 11.8242 21.8702 11.8044C21.3477 11.8044 20.8252 11.8044 20.3016 11.8044C20.3016 11.2511 20.3016 10.6989 20.3016 10.1456C20.8263 10.1456 21.351 10.1456 21.8757 10.1456C21.472 10.0851 21.0672 10.0664 20.6657 10.0917C20.3786 10.1093 20.3104 10.0026 20.3236 9.7375C20.3434 9.3558 20.3291 8.973 20.3291 8.5902C20.3093 8.5902 20.2895 8.5902 20.2697 8.5902C20.2697 9.105 20.2697 9.6187 20.2697 10.1335C19.2379 10.1335 18.2061 10.139 17.1743 10.1302C16.9796 10.1291 16.918 10.1841 16.9257 10.3788C16.94 10.7649 16.9433 11.1532 16.9246 11.5393C16.9136 11.7637 16.9807 11.822 17.204 11.8198C18.2259 11.8077 19.2478 11.8154 20.2697 11.8154C20.2741 12.3764 20.2785 12.9363 20.2829 13.4973C19.7395 13.4951 19.1972 13.4929 18.6538 13.4907C18.6538 12.9902 18.6538 12.4897 18.6538 11.9903C18.6384 11.9903 18.623 11.9903 18.6076 11.9903C18.6076 12.4908 18.6076 12.9913 18.6076 13.4907C18.0554 13.494 17.5032 13.4962 16.951 13.4995C16.3878 13.4929 15.8246 13.4852 15.2603 13.4786C15.2592 13.0243 15.2647 12.5689 15.2526 12.1146C15.2471 11.9199 15.3142 11.855 15.5078 11.8594C15.9401 11.8704 16.3724 11.8627 16.8047 11.8627C16.8047 11.844 16.8047 11.8242 16.8047 11.8055C16.2822 11.8055 15.7608 11.8055 15.2383 11.8055C15.2405 11.2544 15.2427 10.7044 15.246 10.1533C15.2504 9.5912 15.2548 9.0291 15.2592 8.4659L15.2625 8.4648Z" fill="#8DE936"/>
<path d="M1.71181 15.2108C1.23441 15.2075 0.757007 15.1976 0.280707 15.2064C0.100307 15.2097 0.0409071 15.158 0.0420071 14.9721C0.0475071 12.8744 0.0475071 10.7767 0.0431071 8.67899C0.0431071 8.51839 0.0816071 8.44689 0.257607 8.45019C1.30151 8.47549 2.34541 8.40399 3.38821 8.46009C3.38821 8.96059 3.38821 9.46109 3.38821 9.96049C3.40361 9.96049 3.41901 9.96049 3.43441 9.96049C3.43441 9.45999 3.43441 8.95949 3.43441 8.46009C4.54871 8.46229 5.66301 8.46339 6.77841 8.46559L6.78281 8.46999C6.78391 8.92539 6.77841 9.37969 6.78941 9.83509C6.79491 10.0276 6.73111 10.0969 6.53531 10.0914C6.10301 10.0804 5.66961 10.0881 5.23621 10.0881C5.23621 10.1079 5.23621 10.1266 5.23621 10.1464C5.75871 10.1464 6.28011 10.1464 6.80261 10.1464C6.80261 10.7008 6.80261 11.2552 6.80261 11.8096C6.28011 11.8096 5.75871 11.8096 5.23621 11.8096C5.66851 11.8668 6.10081 11.8745 6.53311 11.8635C6.72671 11.858 6.79381 11.924 6.78831 12.1187C6.77621 12.573 6.78171 13.0284 6.78061 13.4827C6.21741 13.4893 5.65421 13.4959 5.08991 13.5036C4.53771 13.5003 3.98551 13.4981 3.43331 13.4948C3.43331 12.9943 3.43331 12.4938 3.43331 11.9944C3.41791 11.9944 3.40251 11.9944 3.38711 11.9944C3.38711 12.4949 3.38711 12.9954 3.38711 13.4948C2.84371 13.497 2.30141 13.4992 1.75801 13.5014C1.76241 12.9404 1.76681 12.3805 1.77121 11.8195C2.80301 11.8195 3.83481 11.814 4.86661 11.8228C5.06131 11.8239 5.12291 11.7689 5.11521 11.5742C5.10091 11.1881 5.09761 10.7998 5.11631 10.4137C5.12731 10.1893 5.06021 10.131 4.83691 10.1332C3.81501 10.1453 2.79311 10.1376 1.77121 10.1376C1.77121 9.62279 1.77121 9.10909 1.77121 8.59429C1.71181 8.97599 1.69641 9.35989 1.71621 9.74159C1.73051 10.0067 1.66121 10.1145 1.37521 10.0958C0.973707 10.0683 0.568907 10.087 0.165207 10.087C0.165207 10.1068 0.165207 10.1277 0.165207 10.1475C0.689907 10.1475 1.21461 10.1475 1.73931 10.1475C1.73931 10.7008 1.73931 11.253 1.73931 11.8063C1.22011 11.8063 0.699807 11.8063 0.180607 11.8063C0.566707 11.8668 0.951707 11.8844 1.33561 11.8602C1.62601 11.8426 1.74041 11.9141 1.72061 12.2309C1.69421 12.6533 1.72721 13.0801 1.73381 13.5047L1.72171 13.4948L1.73051 13.5069C1.22671 13.5069 0.722907 13.5069 0.218007 13.5069C0.218007 13.5146 0.218007 13.5223 0.218007 13.5311C0.720707 13.5311 1.22451 13.5311 1.72721 13.5311C1.71841 14.0932 1.75581 14.6553 1.70631 15.2163L1.71181 15.2108Z" fill="#8DE936"/>
<path d="M18.5968 20.2839C18.6012 20.7404 18.5935 21.198 18.6133 21.6534C18.6232 21.8811 18.5638 21.9559 18.3218 21.9559C15.0636 21.9471 11.8054 21.9493 8.54716 21.9493C6.94776 21.9493 5.34836 21.9427 3.74896 21.957C3.47726 21.9592 3.41236 21.8789 3.42666 21.6237C3.44976 21.1782 3.43986 20.7305 3.44426 20.2839L3.43986 20.2883C3.98986 20.2355 4.53986 20.2817 5.09096 20.2641C5.66186 20.2949 6.23276 20.296 6.80366 20.263L6.79376 20.2773L6.80586 20.2652C6.80586 20.7679 6.80586 21.2706 6.80586 21.7744C6.81466 21.7744 6.82346 21.7744 6.83336 21.7744C6.83336 21.2728 6.83336 20.7701 6.83336 20.2685C7.93446 20.2685 9.03556 20.2685 10.1367 20.2685C10.1367 20.769 10.1367 21.2695 10.1367 21.77C10.1455 21.77 10.1554 21.77 10.1642 21.77C10.1642 21.2684 10.1642 20.7668 10.1642 20.2652L10.1675 20.263C10.7362 20.2949 11.3049 20.2949 11.8736 20.263L11.8769 20.2652C11.8769 20.7668 11.8769 21.2684 11.8769 21.77C11.8857 21.77 11.8956 21.77 11.9044 21.77C11.9044 21.2695 11.9044 20.769 11.9044 20.2685C13.0055 20.2685 14.1066 20.2685 15.2088 20.2685C15.2088 20.7701 15.2088 21.2717 15.2088 21.7744C15.2176 21.7744 15.2264 21.7744 15.2363 21.7744C15.2363 21.2717 15.2363 20.769 15.2363 20.2652L15.2484 20.2784L15.2385 20.263C15.8094 20.296 16.3803 20.2938 16.9512 20.2641C17.5012 20.2806 18.0523 20.2355 18.6012 20.2883L18.5968 20.2839ZM8.47126 21.7733C8.47896 21.7733 8.48776 21.7733 8.49546 21.7733C8.49546 21.3179 8.49546 20.8625 8.49546 20.4082C8.48776 20.4082 8.47896 20.4082 8.47126 20.4082C8.47126 20.8636 8.47126 21.319 8.47126 21.7733ZM13.5401 21.7634C13.5489 21.7645 13.5588 21.7667 13.5676 21.7678C13.5676 21.3168 13.5676 20.8658 13.5676 20.4137C13.5588 20.4137 13.5489 20.4137 13.5401 20.4137C13.5401 20.8636 13.5401 21.3135 13.5401 21.7634Z" fill="#8DE936"/>
<path d="M20.3291 15.211C20.3225 16.3594 20.3159 17.5078 20.3104 18.6551C20.3082 19.0808 20.2906 19.5076 20.317 19.9322C20.3346 20.2226 20.2224 20.2787 19.9617 20.271C19.5074 20.2567 19.052 20.2776 18.5966 20.2842L18.601 20.2886C18.5977 19.7122 18.5955 19.1358 18.5922 18.5605C18.7341 18.0501 18.6142 17.5353 18.5944 17.0216C18.5944 17.5342 18.5944 18.0479 18.5944 18.5605C18.0444 18.5627 17.4944 18.566 16.9433 18.5682C16.3757 18.5693 15.8081 18.5715 15.2405 18.5726L15.2526 18.5594C15.2526 18.5594 15.2383 18.5715 15.2383 18.5704C15.2394 18.0028 15.2405 17.4352 15.2416 16.8665C15.2449 16.3143 15.2493 15.7621 15.2526 15.2099C15.8081 15.2121 16.3647 15.2132 16.9202 15.2154C16.9224 15.6829 16.9345 16.1493 16.9224 16.6168C16.9169 16.8159 16.9598 16.8984 17.1798 16.8885C17.567 16.8698 17.9553 16.872 18.3425 16.8874C18.546 16.8951 18.6219 16.8423 18.612 16.6267C18.5944 16.2197 18.6131 15.8116 18.6043 15.4046C18.601 15.2484 18.6571 15.1956 18.8111 15.1989C19.3182 15.2099 19.8242 15.2099 20.3313 15.2143L20.3291 15.211ZM18.7946 18.5726C18.7935 18.5814 18.7924 18.5902 18.7913 18.599C19.2643 18.599 19.7362 18.599 20.2092 18.599C20.2092 18.5902 20.2092 18.5814 20.2092 18.5726C19.7373 18.5726 19.2665 18.5726 18.7946 18.5726Z" fill="#8DE936"/>
<path d="M3.44295 20.2841C2.99635 20.2731 2.55085 20.2599 2.10425 20.2522C1.72915 20.2445 1.72915 20.2467 1.72915 19.8562C1.72915 18.4163 1.72915 16.9764 1.72805 15.5365C1.72805 15.4276 1.71705 15.3198 1.71045 15.2109L1.70605 15.2153C2.21315 15.2109 2.71915 15.2098 3.22625 15.1999C3.38025 15.1966 3.43635 15.2494 3.43305 15.4056C3.42535 15.8126 3.44295 16.2207 3.42535 16.6277C3.41655 16.8444 3.49135 16.8961 3.69485 16.8884C4.09195 16.873 4.49015 16.873 4.88725 16.8884C5.08305 16.8961 5.11605 16.8202 5.11385 16.6475C5.10615 16.1712 5.11495 15.6938 5.11715 15.2164C5.67265 15.2142 6.22925 15.2131 6.78475 15.2109C6.78805 15.7631 6.79245 16.3153 6.79575 16.8675C6.79685 17.4351 6.79796 18.0027 6.79906 18.5714L6.78585 18.5593L6.79795 18.5725C6.23035 18.5714 5.66275 18.5692 5.09515 18.5681C4.54515 18.5659 3.99515 18.5626 3.44405 18.5604C3.44405 18.0445 3.44405 17.5286 3.44405 17.0127C3.38355 17.357 3.37475 17.7024 3.38685 18.0456C3.39345 18.2172 3.31865 18.4009 3.44625 18.5593C3.44295 19.1357 3.44075 19.7121 3.43745 20.2874L3.44295 20.2841ZM3.24165 18.6044C3.24495 18.5956 3.24935 18.5868 3.25265 18.578C2.78515 18.578 2.31655 18.578 1.84905 18.578C1.84905 18.5868 1.84905 18.5956 1.84905 18.6044C2.31325 18.6044 2.77745 18.6044 3.24165 18.6044Z" fill="#8DE936"/>
<path d="M6.77832 8.46475C6.78382 7.86965 6.79372 7.27455 6.79372 6.68055C6.79592 5.11305 6.79922 3.54555 6.78822 1.97805C6.78602 1.73715 6.85862 1.67665 7.08962 1.68215C7.56482 1.69425 8.04112 1.67555 8.51742 1.67005L8.51192 1.66455C8.50642 2.36745 8.49872 3.07035 8.49762 3.77325C8.49542 5.21975 8.49652 6.66625 8.49762 8.11275C8.49762 8.23155 8.50972 8.34925 8.51632 8.46805L8.51412 8.47025C8.42282 8.54725 8.45912 8.65285 8.45802 8.74635C8.45252 9.20725 8.45142 9.66815 8.44922 10.1302C7.91462 10.1313 7.38112 10.1335 6.84652 10.1346C6.84432 9.79025 6.85202 9.44595 6.83552 9.10275C6.82562 8.89265 6.90372 8.67265 6.78272 8.47135L6.77832 8.46475ZM8.39422 6.78285C8.39422 6.77515 8.39422 6.76745 8.39422 6.75865C7.92232 6.75865 7.44932 6.75865 6.97742 6.75865C6.97742 6.76635 6.97742 6.77405 6.97742 6.78285C7.44932 6.78285 7.92232 6.78285 8.39422 6.78285ZM6.96752 3.35635C6.96752 3.36295 6.96752 3.36955 6.96752 3.37615C7.41742 3.37615 7.86622 3.37615 8.31612 3.37615C8.31612 3.36955 8.31612 3.36295 8.31612 3.35635C7.86622 3.35635 7.41742 3.35635 6.96752 3.35635ZM6.96202 8.42735C6.96202 8.43615 6.96202 8.44605 6.96202 8.45485C7.41962 8.45485 7.87722 8.45485 8.33482 8.45485C8.33482 8.44605 8.33482 8.43615 8.33482 8.42735C7.87722 8.42735 7.41962 8.42735 6.96202 8.42735Z" fill="#8DE936"/>
<path d="M13.5245 8.46695C13.5311 7.95215 13.5432 7.43735 13.5432 6.92365C13.5454 5.25935 13.5443 3.59505 13.5432 1.93075C13.5432 1.84165 13.5344 1.75365 13.5289 1.66455L13.5234 1.67005C13.9997 1.67555 14.4749 1.69425 14.9512 1.68215C15.1822 1.67665 15.2537 1.73715 15.2526 1.97805C15.2427 4.01195 15.2471 6.04585 15.2471 8.07975C15.2471 8.20845 15.257 8.33715 15.2625 8.46585L15.2581 8.47025C15.169 8.54835 15.2031 8.65285 15.202 8.74745C15.1965 9.20945 15.1965 9.67145 15.1943 10.1335C14.6597 10.1324 14.1262 10.1302 13.5916 10.1291C13.5894 9.76605 13.5949 9.40305 13.5806 9.04005C13.5729 8.84975 13.6433 8.64955 13.5267 8.47025L13.5245 8.46695ZM13.6587 6.75645C13.6587 6.76525 13.6587 6.77405 13.6576 6.78285C14.1306 6.78285 14.6036 6.78285 15.0766 6.78285C15.0766 6.77405 15.0766 6.76525 15.0766 6.75645C14.6047 6.75645 14.1317 6.75645 13.6587 6.75645ZM15.0634 8.45705C15.0656 8.44825 15.0678 8.43835 15.07 8.42955C14.6179 8.42955 14.1658 8.42955 13.7137 8.42955C13.7137 8.43835 13.7137 8.44825 13.7137 8.45705C14.1636 8.45705 14.6135 8.45705 15.0634 8.45705ZM13.7181 3.35415C13.7203 3.36295 13.7214 3.37175 13.7236 3.38055C14.1735 3.38055 14.6234 3.38055 15.0733 3.38055C15.0733 3.37175 15.0733 3.36295 15.0733 3.35415C14.6212 3.35415 14.1702 3.35415 13.7181 3.35415Z" fill="#8DE936"/>
<path d="M8.51685 8.4668C10.1866 8.4668 11.8553 8.4668 13.5251 8.4668L13.5273 8.469C13.5251 9.0223 13.524 9.5756 13.5218 10.1278C13.0477 10.13 12.5747 10.1432 12.1006 10.1311C11.8993 10.1256 11.8509 10.196 11.8564 10.3841C11.8696 10.8571 11.8641 11.3312 11.8663 11.8053C11.302 11.8053 10.7377 11.8053 10.1745 11.8053C10.1767 11.3312 10.1712 10.8582 10.1844 10.3841C10.1899 10.196 10.1415 10.1256 9.94025 10.1311C9.46725 10.1432 8.99315 10.1311 8.51905 10.1278C8.51795 9.5756 8.51685 9.0223 8.51465 8.4701L8.51685 8.4668Z" fill="#8DE936"/>
<path d="M13.5294 1.66438C13.0256 1.71718 12.5218 1.67318 12.018 1.68748C11.8772 1.69188 11.8596 1.61048 11.8596 1.49718C11.8618 1.06158 11.864 0.625976 11.8585 0.190376C11.8563 0.0506761 11.9025 -0.00212389 12.0455 7.6106e-05C12.4811 0.00667611 12.9167 0.00557611 13.3523 7.6106e-05C13.4898 -0.00212389 13.5492 0.0429761 13.5459 0.187076C13.5349 0.680976 13.5305 1.17598 13.5239 1.66988L13.5294 1.66438Z" fill="#8DE936"/>
<path d="M8.51725 1.66987C8.51065 1.17597 8.50625 0.680966 8.49525 0.187066C8.49195 0.0429658 8.55025 -0.00103425 8.68885 6.5747e-05C9.12445 0.00556575 9.56005 0.00666575 9.99565 6.5747e-05C10.1386 -0.00213425 10.1848 0.0506657 10.1826 0.190366C10.176 0.625966 10.1793 1.06157 10.1815 1.49717C10.1826 1.61047 10.1639 1.69187 10.0231 1.68747C9.51935 1.67207 9.01445 1.71717 8.51175 1.66437L8.51725 1.66987Z" fill="#8DE936"/>
<path d="M3.43487 8.46021C3.43487 8.96071 3.43487 9.46121 3.43487 9.96061C3.41947 9.96061 3.40407 9.96061 3.38867 9.96061C3.38867 9.46011 3.38867 8.95961 3.38867 8.46021C3.40407 8.45141 3.41947 8.45141 3.43487 8.46021Z" fill="#8DE936"/>
<path d="M15.1943 11.8195C15.2064 11.8074 15.2207 11.803 15.2372 11.8085C15.7597 11.8085 16.2811 11.8085 16.8036 11.8085C16.8036 11.8272 16.8036 11.847 16.8036 11.8657C16.3713 11.8657 15.939 11.8734 15.5067 11.8624C15.3131 11.8569 15.246 11.9229 15.2515 12.1176C15.2636 12.5719 15.2581 13.0273 15.2592 13.4816C15.2493 13.4926 15.2383 13.5025 15.2284 13.5135L15.2086 13.4959C15.2031 12.9371 15.1987 12.3783 15.1943 11.8195Z" fill="#8DE936"/>
<path d="M20.2676 11.8173C20.2753 11.803 20.2863 11.7997 20.3006 11.8052C20.8231 11.8052 21.3456 11.8052 21.8692 11.8052C21.8692 11.825 21.8692 11.8459 21.8692 11.8657C21.4908 11.8657 21.1124 11.8657 20.734 11.8657C20.327 11.8657 20.3303 11.8657 20.327 12.2584C20.3226 12.6731 20.3127 13.0878 20.3061 13.5036L20.2808 13.4992C20.2764 12.9393 20.272 12.3783 20.2676 11.8173Z" fill="#8DE936"/>
<path d="M20.3016 10.1476L20.2829 10.1498L20.2686 10.1366C20.2686 9.62176 20.2686 9.10806 20.2686 8.59326C20.2884 8.59326 20.3082 8.59326 20.328 8.59326C20.328 8.97606 20.3434 9.35886 20.3225 9.74056C20.3082 10.0057 20.3775 10.1135 20.6646 10.0948C21.0661 10.0695 21.472 10.0882 21.8746 10.1487C21.3499 10.1476 20.8252 10.1476 20.3016 10.1476Z" fill="#8DE936"/>
<path d="M15.244 10.1565C15.2242 10.1543 15.2077 10.1466 15.1934 10.1334C15.1956 9.67142 15.1956 9.20941 15.2011 8.74741C15.2022 8.65281 15.167 8.54831 15.2572 8.47021C15.2539 9.03231 15.2495 9.59442 15.244 10.1565Z" fill="#8DE936"/>
<path d="M16.949 13.5014C16.9479 13.5179 16.9402 13.5322 16.927 13.5421C16.3671 13.5399 15.8083 13.5377 15.2484 13.5355C15.2374 13.5311 15.2308 13.5234 15.2275 13.5124C15.2374 13.5014 15.2484 13.4915 15.2583 13.4805C15.8226 13.4882 16.3858 13.4948 16.949 13.5014Z" fill="#8DE936"/>
<path d="M20.3129 13.5301L20.3096 13.5059C20.8134 13.5059 21.3172 13.5059 21.8221 13.5059C21.8221 13.5136 21.8221 13.5213 21.8221 13.5301C21.3183 13.5301 20.8156 13.5301 20.3129 13.5301Z" fill="#8DE936"/>
<path d="M18.6526 13.4936L18.6295 13.5002L18.6064 13.4936C18.6064 12.9931 18.6064 12.4926 18.6064 11.9932C18.6218 11.9932 18.6372 11.9932 18.6526 11.9932C18.6526 12.4926 18.6526 12.9931 18.6526 13.4936Z" fill="#8DE936"/>
<path d="M6.80383 11.8085C6.82033 11.8041 6.83463 11.8074 6.84673 11.8195C6.84233 12.3772 6.83793 12.936 6.83243 13.4948L6.81263 13.5124C6.80163 13.5025 6.79173 13.4915 6.78073 13.4816C6.78183 13.0273 6.77633 12.5719 6.78843 12.1176C6.79393 11.9229 6.72683 11.858 6.53323 11.8624C6.10093 11.8734 5.66863 11.8657 5.23633 11.8085C5.75993 11.8085 6.28133 11.8085 6.80383 11.8085Z" fill="#8DE936"/>
<path d="M6.8466 10.1331L6.8268 10.1462L6.8037 10.1452C6.2812 10.1452 5.7598 10.1452 5.2373 10.1452C5.2373 10.1254 5.2373 10.1066 5.2373 10.0868C5.6707 10.0868 6.1041 10.0792 6.5364 10.0902C6.7322 10.0957 6.7949 10.0264 6.7905 9.83385C6.7784 9.37955 6.785 8.92415 6.7839 8.46875C6.9049 8.67005 6.8268 8.89005 6.8367 9.10015C6.8521 9.44445 6.8444 9.78875 6.8466 10.1331Z" fill="#8DE936"/>
<path d="M1.73936 11.8062C1.75366 11.7996 1.76466 11.804 1.77236 11.8183C1.76796 12.3793 1.76356 12.9392 1.75916 13.5002L1.73386 13.5046C1.72616 13.08 1.69426 12.6532 1.72066 12.2308C1.74046 11.914 1.62606 11.8425 1.33566 11.8601C0.951764 11.8843 0.565664 11.8656 0.180664 11.8062C0.699864 11.8062 1.22016 11.8062 1.73936 11.8062Z" fill="#8DE936"/>
<path d="M1.77214 10.1356L1.75784 10.1488C1.75784 10.1488 1.73804 10.1477 1.73914 10.1477C1.21444 10.1477 0.689739 10.1477 0.165039 10.1477C0.165039 10.1279 0.165039 10.107 0.165039 10.0872C0.568739 10.0872 0.973539 10.0685 1.37614 10.0938C1.66324 10.1114 1.73144 10.0047 1.71714 9.73959C1.69734 9.35789 1.71164 8.97509 1.77214 8.59229C1.77214 9.10709 1.77214 9.62078 1.77214 10.1356Z" fill="#8DE936"/>
<path d="M5.11282 13.5432C5.09962 13.5322 5.09302 13.519 5.09082 13.5014C5.65402 13.4948 6.21722 13.4882 6.78152 13.4805C6.79252 13.4904 6.80242 13.5014 6.81342 13.5113C6.81012 13.5223 6.80242 13.53 6.79142 13.5344C6.23262 13.5388 5.67272 13.541 5.11282 13.5432Z" fill="#8DE936"/>
<path d="M1.73125 13.5068L1.72795 13.531C1.22525 13.531 0.72145 13.531 0.21875 13.531C0.21875 13.5233 0.21875 13.5156 0.21875 13.5068C0.72365 13.5068 1.22745 13.5068 1.73125 13.5068Z" fill="#8DE936"/>
<path d="M3.43487 13.4936L3.41177 13.5002L3.38867 13.4936C3.38867 12.9931 3.38867 12.4926 3.38867 11.9932C3.40407 11.9932 3.41947 11.9932 3.43487 11.9932C3.43487 12.4926 3.43487 12.9931 3.43487 13.4936Z" fill="#8DE936"/>
<path d="M5.08984 20.2641C5.09204 20.2476 5.09864 20.2344 5.11294 20.2256C5.67284 20.2278 6.23274 20.23 6.79264 20.2322C6.80474 20.2399 6.80804 20.2498 6.80254 20.263C6.23164 20.2971 5.66074 20.2949 5.08984 20.2641Z" fill="#8DE936"/>
<path d="M11.8589 20.228C11.871 20.2368 11.8765 20.2489 11.8732 20.2643C11.3045 20.2962 10.7358 20.2962 10.1671 20.2643C10.1638 20.2489 10.1682 20.2368 10.1814 20.228C10.7402 20.228 11.3001 20.228 11.8589 20.228Z" fill="#8DE936"/>
<path d="M16.9285 20.2256C16.9417 20.2355 16.9494 20.2476 16.9516 20.2641C16.3807 20.2949 15.8098 20.296 15.2389 20.263C15.2334 20.2498 15.2367 20.2399 15.2488 20.2322C15.8087 20.23 16.3686 20.2278 16.9285 20.2256Z" fill="#8DE936"/>
<path d="M10.1357 20.2698C10.1445 20.261 10.1533 20.261 10.1632 20.2665C10.1632 20.7681 10.1632 21.2697 10.1632 21.7713C10.1544 21.7713 10.1445 21.7713 10.1357 21.7713C10.1357 21.2708 10.1357 20.7703 10.1357 20.2698Z" fill="#8DE936"/>
<path d="M11.877 20.2666L11.9045 20.2699C11.9045 20.7704 11.9045 21.2709 11.9045 21.7714C11.8957 21.7714 11.8858 21.7714 11.877 21.7714C11.877 21.2698 11.877 20.7682 11.877 20.2666Z" fill="#8DE936"/>
<path d="M15.209 20.2699L15.2365 20.2666C15.2365 20.7693 15.2365 21.272 15.2365 21.7758C15.2277 21.7758 15.2189 21.7758 15.209 21.7758C15.209 21.2731 15.209 20.7715 15.209 20.2699Z" fill="#8DE936"/>
<path d="M6.80469 20.2666L6.83219 20.2699C6.83219 20.7715 6.83219 21.2731 6.83219 21.7758C6.82339 21.7758 6.81459 21.7758 6.80469 21.7758C6.80469 21.272 6.80469 20.7693 6.80469 20.2666Z" fill="#8DE936"/>
<path d="M8.47168 21.7733C8.47168 21.3179 8.47168 20.8625 8.47168 20.4082C8.47938 20.4082 8.48818 20.4082 8.49588 20.4082C8.49588 20.8636 8.49588 21.319 8.49588 21.7733C8.48818 21.7744 8.48048 21.7733 8.47168 21.7733Z" fill="#8DE936"/>
<path d="M13.54 21.7638C13.54 21.3139 13.54 20.864 13.54 20.4141C13.5488 20.4141 13.5587 20.4141 13.5675 20.4141C13.5675 20.8651 13.5675 21.3161 13.5675 21.7682C13.5576 21.7671 13.5488 21.7649 13.54 21.7638Z" fill="#8DE936"/>
<path d="M15.2537 15.2109C15.2449 15.1922 15.2449 15.1735 15.2537 15.1559C15.8092 15.1537 16.3658 15.1526 16.9213 15.1504C16.9213 15.1724 16.9213 15.1944 16.9213 15.2164C16.3658 15.2153 15.8092 15.2131 15.2537 15.2109Z" fill="#8DE936"/>
<path d="M15.1963 16.8874C15.2095 16.8753 15.2249 16.8698 15.2425 16.8687C15.2414 17.4363 15.2403 18.0039 15.2392 18.5726L15.2183 18.5737L15.2007 18.5627C15.1996 18.0028 15.1985 17.4451 15.1963 16.8874Z" fill="#8DE936"/>
<path d="M16.9447 18.5679C16.9436 18.5855 16.937 18.602 16.926 18.6163C16.3672 18.6141 15.8095 18.6119 15.2507 18.6097C15.2397 18.5998 15.2364 18.5866 15.2419 18.5723C15.8095 18.5712 16.3771 18.5701 16.9447 18.5679Z" fill="#8DE936"/>
<path d="M18.595 18.5604C18.595 18.0478 18.595 17.5341 18.595 17.0215C18.6148 17.5341 18.7347 18.0489 18.5928 18.5604H18.595Z" fill="#8DE936"/>
<path d="M18.7953 18.5723C19.2672 18.5723 19.738 18.5723 20.2099 18.5723C20.2099 18.5811 20.2099 18.5899 20.2099 18.5987C19.7369 18.5987 19.265 18.5987 18.792 18.5987C18.7931 18.5899 18.7942 18.5811 18.7953 18.5723Z" fill="#8DE936"/>
<path d="M6.78674 15.1559C6.79554 15.1746 6.79554 15.1933 6.78674 15.2109C6.23124 15.2131 5.67464 15.2142 5.11914 15.2164C5.11914 15.1944 5.11914 15.1724 5.11914 15.1504C5.67464 15.1526 6.23014 15.1537 6.78674 15.1559Z" fill="#8DE936"/>
<path d="M5.11538 18.6163C5.10438 18.602 5.09778 18.5866 5.09668 18.5679C5.66428 18.569 6.23188 18.5712 6.79948 18.5723C6.80498 18.5866 6.80168 18.5987 6.79068 18.6097C6.23188 18.6119 5.67418 18.6141 5.11538 18.6163Z" fill="#8DE936"/>
<path d="M6.79785 16.8677C6.81545 16.8688 6.83085 16.8754 6.84405 16.8864C6.84185 17.4441 6.84075 18.0029 6.83855 18.5606L6.82095 18.5716L6.80005 18.5705C6.80005 18.004 6.79895 17.4353 6.79785 16.8677Z" fill="#8DE936"/>
<path d="M3.4483 18.5603C3.3207 18.4019 3.3955 18.2182 3.3889 18.0466C3.3768 17.7023 3.3856 17.358 3.4461 17.0137C3.4461 17.5296 3.4461 18.0455 3.4461 18.5614C3.445 18.5603 3.4483 18.5603 3.4483 18.5603Z" fill="#8DE936"/>
<path d="M3.24221 18.6045C2.77801 18.6045 2.31381 18.6045 1.84961 18.6045C1.84961 18.5957 1.84961 18.5869 1.84961 18.5781C2.31711 18.5781 2.78571 18.5781 3.25321 18.5781C3.24991 18.5869 3.24661 18.5957 3.24221 18.6045Z" fill="#8DE936"/>
<path d="M8.51962 10.1287C8.49652 10.1287 8.47232 10.1287 8.44922 10.1287C8.45142 9.66775 8.45252 9.20575 8.45802 8.74485C8.45912 8.65135 8.42282 8.54575 8.51412 8.46875C8.51632 9.02205 8.51742 9.57535 8.51962 10.1287Z" fill="#8DE936"/>
<path d="M8.39434 6.7825C7.92244 6.7825 7.44944 6.7825 6.97754 6.7825C6.97754 6.7748 6.97754 6.7671 6.97754 6.7583C7.44944 6.7583 7.92244 6.7583 8.39434 6.7583C8.39434 6.7671 8.39434 6.7748 8.39434 6.7825Z" fill="#8DE936"/>
<path d="M6.96777 3.35596C7.41767 3.35596 7.86647 3.35596 8.31637 3.35596C8.31637 3.36256 8.31637 3.36916 8.31637 3.37576C7.86647 3.37576 7.41767 3.37576 6.96777 3.37576C6.96887 3.36916 6.96887 3.36256 6.96777 3.35596Z" fill="#8DE936"/>
<path d="M6.96191 8.42725C7.41951 8.42725 7.87711 8.42725 8.33471 8.42725C8.33471 8.43605 8.33471 8.44595 8.33471 8.45475C7.87711 8.45475 7.41951 8.45475 6.96191 8.45475C6.96191 8.44485 6.96191 8.43605 6.96191 8.42725Z" fill="#8DE936"/>
<path d="M13.5919 10.129C13.5688 10.129 13.5446 10.129 13.5215 10.129C13.5237 9.57571 13.5248 9.02241 13.527 8.47021C13.6436 8.65061 13.5743 8.85081 13.5809 9.04001C13.5952 9.40301 13.5897 9.76601 13.5919 10.129Z" fill="#8DE936"/>
<path d="M13.6593 6.75635C14.1323 6.75635 14.6053 6.75635 15.0772 6.75635C15.0772 6.76515 15.0772 6.77395 15.0772 6.78275C14.6042 6.78275 14.1312 6.78275 13.6582 6.78275C13.6593 6.77395 13.6593 6.76515 13.6593 6.75635Z" fill="#8DE936"/>
<path d="M15.0636 8.4567C14.6137 8.4567 14.1638 8.4567 13.7139 8.4567C13.7139 8.4479 13.7139 8.438 13.7139 8.4292C14.166 8.4292 14.6181 8.4292 15.0702 8.4292C15.068 8.4391 15.0658 8.4479 15.0636 8.4567Z" fill="#8DE936"/>
<path d="M13.7188 3.354C14.1709 3.354 14.6218 3.354 15.0739 3.354C15.0739 3.3628 15.0739 3.3716 15.0739 3.3804C14.624 3.3804 14.1742 3.3804 13.7243 3.3804C13.7221 3.3716 13.7209 3.3628 13.7188 3.354Z" fill="#8DE936"/>
<path d="M10.1738 11.8062C10.7381 11.8062 11.3024 11.8062 11.8656 11.8062L11.8612 11.8073C11.4872 11.936 11.1022 11.8458 10.7227 11.8612C10.5423 11.8689 10.3487 11.9239 10.1771 11.8073L10.1738 11.8062Z" fill="#8DE936"/>
<path d="M16.9211 15.1504C16.3656 15.1526 15.809 15.1537 15.2535 15.1559C15.2513 14.6158 15.2502 14.0757 15.248 13.5356C15.8079 13.5378 16.3667 13.54 16.9266 13.5422C16.9255 14.079 16.9233 14.6147 16.9211 15.1504Z" fill="#8DE936"/>
<path d="M10.1782 11.8062C10.3498 11.9228 10.5434 11.8678 10.7238 11.8601C11.1033 11.8447 11.4883 11.9349 11.8623 11.8062C12.4156 11.8117 12.9678 11.8183 13.5211 11.8238C13.5211 12.3375 13.5211 12.8512 13.5211 13.3638C13.5442 13.3638 13.5684 13.3638 13.5915 13.3638C13.5915 12.8501 13.5915 12.3364 13.5915 11.8238C14.125 11.8227 14.6596 11.8205 15.1931 11.8194C15.1975 12.3782 15.203 12.9359 15.2074 13.4947C14.1074 13.5442 13.0063 13.4837 11.9063 13.4958C11.9063 12.9964 11.9063 12.497 11.9063 11.9976C11.8953 11.9976 11.8854 11.9976 11.8744 11.9976C11.8744 12.4981 11.8744 12.9986 11.8744 13.5002L11.8711 13.5024C11.3035 13.4738 10.7359 13.4738 10.1683 13.5024L10.165 13.5002C10.165 12.9997 10.165 12.4992 10.165 11.9976C10.154 11.9976 10.1441 11.9976 10.1331 11.9976C10.1331 12.497 10.1331 12.9964 10.1331 13.4958C9.03313 13.4947 7.93203 13.4947 6.83203 13.4936C6.83643 12.9359 6.84083 12.3771 6.84633 11.8194C7.37983 11.8205 7.91443 11.8227 8.44793 11.8238C8.44793 12.3375 8.44793 12.8512 8.44793 13.3638C8.47103 13.3638 8.49523 13.3638 8.51833 13.3638C8.51833 12.8501 8.51833 12.3364 8.51833 11.8238C9.07163 11.8183 9.62493 11.8128 10.1782 11.8062Z" fill="#8DE936"/>
<path d="M13.5919 11.8242C13.5919 12.3379 13.5919 12.8516 13.5919 13.3642C13.5688 13.3642 13.5446 13.3642 13.5215 13.3642C13.5215 12.8505 13.5215 12.3368 13.5215 11.8242C13.5446 11.8242 13.5688 11.8242 13.5919 11.8242Z" fill="#8DE936"/>
<path d="M6.78736 15.1558C6.23186 15.1536 5.67526 15.1525 5.11976 15.1503C5.11756 14.6146 5.11646 14.0789 5.11426 13.5432C5.67416 13.541 6.23296 13.5388 6.79286 13.5366C6.79066 14.0756 6.78846 14.6157 6.78736 15.1558Z" fill="#8DE936"/>
<path d="M8.51962 11.8242C8.51962 12.3379 8.51962 12.8516 8.51962 13.3642C8.49652 13.3642 8.47232 13.3642 8.44922 13.3642C8.44922 12.8505 8.44922 12.3368 8.44922 11.8242C8.47232 11.8242 8.49542 11.8242 8.51962 11.8242Z" fill="#8DE936"/>
<path d="M8.51795 16.8917C8.99205 16.8895 9.46615 16.8763 9.94025 16.8895C10.1404 16.895 10.1888 16.8268 10.1855 16.6376C10.1756 16.1635 10.1866 15.6894 10.1888 15.2153C10.7443 15.2153 11.2987 15.2153 11.8542 15.2153C11.8564 15.6894 11.8674 16.1635 11.8575 16.6376C11.8531 16.8268 11.9026 16.895 12.1028 16.8895C12.5769 16.8774 13.051 16.8895 13.5251 16.8917C13.5262 17.4472 13.5273 18.0016 13.5295 18.5571C12.9773 18.5615 12.4262 18.5659 11.874 18.5692C11.3064 18.5692 10.7377 18.5692 10.1701 18.5692C9.61795 18.5648 9.06685 18.5604 8.51465 18.5571C8.51465 18.0016 8.51685 17.4461 8.51795 16.8917Z" fill="#8DE936"/>
<path d="M6.83887 18.5614C6.84107 18.0037 6.84217 17.4449 6.84437 16.8872C7.38007 16.8883 7.91577 16.8905 8.45037 16.8916C8.45147 17.4471 8.45257 18.0015 8.45477 18.557C7.91577 18.5581 7.37787 18.5592 6.83887 18.5614Z" fill="#8DE936"/>
<path d="M11.8591 20.228C11.3003 20.228 10.7404 20.228 10.1816 20.228C10.1827 19.6901 10.1827 19.1522 10.1838 18.6143C10.7415 18.6143 11.2992 18.6143 11.8569 18.6143C11.858 19.1522 11.858 19.6901 11.8591 20.228Z" fill="#8DE936"/>
<path d="M5.11548 18.6165C5.67428 18.6143 6.23198 18.6121 6.79078 18.6099C6.79188 19.1511 6.79188 19.6923 6.79298 20.2324C6.23308 20.2302 5.67318 20.228 5.11328 20.2258C5.11328 19.689 5.11438 19.1533 5.11548 18.6165Z" fill="#8DE936"/>
<path d="M11.8576 18.6144C11.2999 18.6144 10.7422 18.6144 10.1845 18.6144C10.1735 18.6012 10.168 18.5858 10.1691 18.5693C10.7367 18.5693 11.3054 18.5693 11.873 18.5693C11.8741 18.5858 11.8686 18.6012 11.8576 18.6144Z" fill="#8DE936"/>
<path d="M8.4546 18.556C8.4535 18.0005 8.4524 17.4461 8.4502 16.8906C8.4722 16.8906 8.4942 16.8906 8.5173 16.8906C8.5162 17.4461 8.5151 18.0005 8.5129 18.556C8.4931 18.556 8.4744 18.556 8.4546 18.556Z" fill="#8DE936"/>
<path d="M15.1963 16.8872C15.1985 17.4449 15.1996 18.0037 15.2018 18.5614C14.6628 18.5603 14.1249 18.5581 13.5859 18.557C13.587 18.0015 13.5881 17.4471 13.5903 16.8916C14.1249 16.8894 14.6606 16.8883 15.1963 16.8872Z" fill="#8DE936"/>
<path d="M15.2501 18.6099C15.8089 18.6121 16.3666 18.6143 16.9254 18.6165C16.9265 19.1533 16.9276 19.689 16.9287 20.2258C16.3688 20.228 15.8089 20.2302 15.249 20.2324C15.249 19.6923 15.249 19.1511 15.2501 18.6099Z" fill="#8DE936"/>
<path d="M13.5896 16.8916C13.5885 17.4471 13.5874 18.0015 13.5852 18.557C13.5654 18.557 13.5467 18.557 13.5269 18.557C13.5258 18.0015 13.5247 17.4471 13.5225 16.8916C13.5456 16.8916 13.5676 16.8916 13.5896 16.8916Z" fill="#8DE936"/>
<path d="M10.1871 15.1525C10.1849 14.6157 10.1838 14.0789 10.1816 13.541C10.7404 13.541 11.2992 13.541 11.858 13.541C11.8558 14.0778 11.8547 14.6146 11.8525 15.1525C11.2981 15.1525 10.7426 15.1525 10.1871 15.1525Z" fill="#8DE936"/>
<path d="M11.8586 13.5409C11.2998 13.5409 10.741 13.5409 10.1822 13.5409C10.1701 13.531 10.1657 13.5178 10.169 13.5024C10.7366 13.4738 11.3042 13.4738 11.8718 13.5024C11.8751 13.5178 11.8707 13.531 11.8586 13.5409Z" fill="#8DE936"/>
<path d="M10.1875 15.1523C10.743 15.1523 11.2974 15.1523 11.8529 15.1523C11.8529 15.1732 11.8529 15.1941 11.8529 15.215C11.2974 15.215 10.743 15.215 10.1875 15.215C10.1875 15.1941 10.1875 15.1732 10.1875 15.1523Z" fill="#8DE936"/>
<path d="M11.876 13.5002C11.876 12.9997 11.876 12.4992 11.876 11.9976C11.887 11.9976 11.8969 11.9976 11.9079 11.9976C11.9079 12.497 11.9079 12.9964 11.9079 13.4958L11.8925 13.5035L11.876 13.5002Z" fill="#8DE936"/>
<path d="M10.1338 13.4958C10.1338 12.9964 10.1338 12.497 10.1338 11.9976C10.1448 11.9976 10.1547 11.9976 10.1657 11.9976C10.1657 12.4981 10.1657 12.9986 10.1657 13.5002L10.1492 13.5035L10.1338 13.4958Z" fill="#8DE936"/>
</g>
<defs>
<clipPath id="clip0_10_251">
<rect width="22" height="22" fill="white"/>
</clipPath>
</defs>
</svg>
