<svg width="22" height="22" viewBox="0 0 22 22" fill="none" xmlns="http://www.w3.org/2000/svg">
<g clip-path="url(#clip0_72_1738)">
<path d="M15.2625 8.4648C16.445 8.4604 17.6264 8.4549 18.8089 8.4527C19.7824 8.4505 20.7559 8.4571 21.7294 8.4483C21.934 8.4461 22.0011 8.5011 22 8.7134C21.9923 10.7902 21.9923 12.8659 22 14.9427C22.0011 15.1561 21.934 15.2122 21.7294 15.2067C21.263 15.1957 20.7955 15.2078 20.3291 15.2111L20.3335 15.2155C20.284 14.6545 20.3214 14.0924 20.3126 13.5303C20.8153 13.5303 21.318 13.5303 21.8218 13.5303C21.8218 13.5226 21.8218 13.5149 21.8218 13.5061C21.318 13.5061 20.8142 13.5061 20.3093 13.5061L20.3203 13.494L20.3071 13.5028C20.3148 13.0881 20.3247 12.6734 20.328 12.2576C20.3313 11.8649 20.3291 11.8649 20.735 11.8649C21.1134 11.8649 21.4918 11.8649 21.8702 11.8649C21.8702 11.8451 21.8702 11.8242 21.8702 11.8044C21.3477 11.8044 20.8252 11.8044 20.3016 11.8044C20.3016 11.2511 20.3016 10.6989 20.3016 10.1456C20.8263 10.1456 21.351 10.1456 21.8757 10.1456C21.472 10.0851 21.0672 10.0664 20.6657 10.0917C20.3786 10.1093 20.3104 10.0026 20.3236 9.7375C20.3434 9.3558 20.3291 8.973 20.3291 8.5902C20.3093 8.5902 20.2895 8.5902 20.2697 8.5902C20.2697 9.105 20.2697 9.6187 20.2697 10.1335C19.2379 10.1335 18.2061 10.139 17.1743 10.1302C16.9796 10.1291 16.918 10.1841 16.9257 10.3788C16.94 10.7649 16.9433 11.1532 16.9246 11.5393C16.9136 11.7637 16.9807 11.822 17.204 11.8198C18.2259 11.8077 19.2478 11.8154 20.2697 11.8154C20.2741 12.3764 20.2785 12.9363 20.2829 13.4973C19.7395 13.4951 19.1972 13.4929 18.6538 13.4907C18.6538 12.9902 18.6538 12.4897 18.6538 11.9903C18.6384 11.9903 18.623 11.9903 18.6076 11.9903C18.6076 12.4908 18.6076 12.9913 18.6076 13.4907C18.0554 13.494 17.5032 13.4962 16.951 13.4995C16.3878 13.4929 15.8246 13.4852 15.2603 13.4786C15.2592 13.0243 15.2647 12.5689 15.2526 12.1146C15.2471 11.9199 15.3142 11.855 15.5078 11.8594C15.9401 11.8704 16.3724 11.8627 16.8047 11.8627C16.8047 11.844 16.8047 11.8242 16.8047 11.8055C16.2822 11.8055 15.7608 11.8055 15.2383 11.8055C15.2405 11.2544 15.2427 10.7044 15.246 10.1533C15.2504 9.5912 15.2548 9.0291 15.2592 8.4659L15.2625 8.4648Z" fill="black"/>
<path d="M1.71156 15.2108C1.23416 15.2075 0.756763 15.1976 0.280463 15.2064C0.100063 15.2097 0.040663 15.158 0.041763 14.9721C0.047263 12.8744 0.047263 10.7767 0.042863 8.67899C0.042863 8.51839 0.081363 8.44689 0.257363 8.45019C1.30126 8.47549 2.34516 8.40399 3.38796 8.46009C3.38796 8.96059 3.38796 9.46109 3.38796 9.96049C3.40336 9.96049 3.41876 9.96049 3.43416 9.96049C3.43416 9.45999 3.43416 8.95949 3.43416 8.46009C4.54846 8.46229 5.66276 8.46339 6.77816 8.46559L6.78256 8.46999C6.78366 8.92539 6.77816 9.37969 6.78916 9.83509C6.79466 10.0276 6.73086 10.0969 6.53506 10.0914C6.10276 10.0804 5.66936 10.0881 5.23596 10.0881C5.23596 10.1079 5.23596 10.1266 5.23596 10.1464C5.75846 10.1464 6.27986 10.1464 6.80236 10.1464C6.80236 10.7008 6.80236 11.2552 6.80236 11.8096C6.27986 11.8096 5.75846 11.8096 5.23596 11.8096C5.66826 11.8668 6.10056 11.8745 6.53286 11.8635C6.72646 11.858 6.79356 11.924 6.78806 12.1187C6.77596 12.573 6.78146 13.0284 6.78036 13.4827C6.21716 13.4893 5.65396 13.4959 5.08966 13.5036C4.53746 13.5003 3.98526 13.4981 3.43306 13.4948C3.43306 12.9943 3.43306 12.4938 3.43306 11.9944C3.41766 11.9944 3.40226 11.9944 3.38686 11.9944C3.38686 12.4949 3.38686 12.9954 3.38686 13.4948C2.84346 13.497 2.30116 13.4992 1.75776 13.5014C1.76216 12.9404 1.76656 12.3805 1.77096 11.8195C2.80276 11.8195 3.83456 11.814 4.86636 11.8228C5.06106 11.8239 5.12266 11.7689 5.11496 11.5742C5.10066 11.1881 5.09736 10.7998 5.11606 10.4137C5.12706 10.1893 5.05996 10.131 4.83666 10.1332C3.81476 10.1453 2.79286 10.1376 1.77096 10.1376C1.77096 9.62279 1.77096 9.10909 1.77096 8.59429C1.71156 8.97599 1.69616 9.35989 1.71596 9.74159C1.73026 10.0067 1.66096 10.1145 1.37496 10.0958C0.973463 10.0683 0.568663 10.087 0.164963 10.087C0.164963 10.1068 0.164963 10.1277 0.164963 10.1475C0.689663 10.1475 1.21436 10.1475 1.73906 10.1475C1.73906 10.7008 1.73906 11.253 1.73906 11.8063C1.21986 11.8063 0.699563 11.8063 0.180363 11.8063C0.566463 11.8668 0.951463 11.8844 1.33536 11.8602C1.62576 11.8426 1.74016 11.9141 1.72036 12.2309C1.69396 12.6533 1.72696 13.0801 1.73356 13.5047L1.72146 13.4948L1.73026 13.5069C1.22646 13.5069 0.722663 13.5069 0.217763 13.5069C0.217763 13.5146 0.217763 13.5223 0.217763 13.5311C0.720463 13.5311 1.22426 13.5311 1.72696 13.5311C1.71816 14.0932 1.75556 14.6553 1.70606 15.2163L1.71156 15.2108Z" fill="black"/>
<path d="M18.5965 20.2839C18.6009 20.7404 18.5932 21.198 18.613 21.6534C18.6229 21.8811 18.5635 21.9559 18.3215 21.9559C15.0633 21.9471 11.8051 21.9493 8.54691 21.9493C6.94751 21.9493 5.34811 21.9427 3.74871 21.957C3.47701 21.9592 3.41211 21.8789 3.42641 21.6237C3.44951 21.1782 3.43961 20.7305 3.44401 20.2839L3.43961 20.2883C3.98961 20.2355 4.53961 20.2817 5.09071 20.2641C5.66161 20.2949 6.23251 20.296 6.80341 20.263L6.79351 20.2773L6.80561 20.2652C6.80561 20.7679 6.80561 21.2706 6.80561 21.7744C6.81441 21.7744 6.82321 21.7744 6.83311 21.7744C6.83311 21.2728 6.83311 20.7701 6.83311 20.2685C7.93421 20.2685 9.03531 20.2685 10.1364 20.2685C10.1364 20.769 10.1364 21.2695 10.1364 21.77C10.1452 21.77 10.1551 21.77 10.1639 21.77C10.1639 21.2684 10.1639 20.7668 10.1639 20.2652L10.1672 20.263C10.7359 20.2949 11.3046 20.2949 11.8733 20.263L11.8766 20.2652C11.8766 20.7668 11.8766 21.2684 11.8766 21.77C11.8854 21.77 11.8953 21.77 11.9041 21.77C11.9041 21.2695 11.9041 20.769 11.9041 20.2685C13.0052 20.2685 14.1063 20.2685 15.2085 20.2685C15.2085 20.7701 15.2085 21.2717 15.2085 21.7744C15.2173 21.7744 15.2261 21.7744 15.236 21.7744C15.236 21.2717 15.236 20.769 15.236 20.2652L15.2481 20.2784L15.2382 20.263C15.8091 20.296 16.38 20.2938 16.9509 20.2641C17.5009 20.2806 18.052 20.2355 18.6009 20.2883L18.5965 20.2839ZM8.47101 21.7733C8.47871 21.7733 8.48751 21.7733 8.49521 21.7733C8.49521 21.3179 8.49521 20.8625 8.49521 20.4082C8.48751 20.4082 8.47871 20.4082 8.47101 20.4082C8.47101 20.8636 8.47101 21.319 8.47101 21.7733ZM13.5398 21.7634C13.5486 21.7645 13.5585 21.7667 13.5673 21.7678C13.5673 21.3168 13.5673 20.8658 13.5673 20.4137C13.5585 20.4137 13.5486 20.4137 13.5398 20.4137C13.5398 20.8636 13.5398 21.3135 13.5398 21.7634Z" fill="black"/>
<path d="M20.3291 15.211C20.3225 16.3594 20.3159 17.5078 20.3104 18.6551C20.3082 19.0808 20.2906 19.5076 20.317 19.9322C20.3346 20.2226 20.2224 20.2787 19.9617 20.271C19.5074 20.2567 19.052 20.2776 18.5966 20.2842L18.601 20.2886C18.5977 19.7122 18.5955 19.1358 18.5922 18.5605C18.7341 18.0501 18.6142 17.5353 18.5944 17.0216C18.5944 17.5342 18.5944 18.0479 18.5944 18.5605C18.0444 18.5627 17.4944 18.566 16.9433 18.5682C16.3757 18.5693 15.8081 18.5715 15.2405 18.5726L15.2526 18.5594C15.2526 18.5594 15.2383 18.5715 15.2383 18.5704C15.2394 18.0028 15.2405 17.4352 15.2416 16.8665C15.2449 16.3143 15.2493 15.7621 15.2526 15.2099C15.8081 15.2121 16.3647 15.2132 16.9202 15.2154C16.9224 15.6829 16.9345 16.1493 16.9224 16.6168C16.9169 16.8159 16.9598 16.8984 17.1798 16.8885C17.567 16.8698 17.9553 16.872 18.3425 16.8874C18.546 16.8951 18.6219 16.8423 18.612 16.6267C18.5944 16.2197 18.6131 15.8116 18.6043 15.4046C18.601 15.2484 18.6571 15.1956 18.8111 15.1989C19.3182 15.2099 19.8242 15.2099 20.3313 15.2143L20.3291 15.211ZM18.7946 18.5726C18.7935 18.5814 18.7924 18.5902 18.7913 18.599C19.2643 18.599 19.7362 18.599 20.2092 18.599C20.2092 18.5902 20.2092 18.5814 20.2092 18.5726C19.7373 18.5726 19.2665 18.5726 18.7946 18.5726Z" fill="black"/>
<path d="M3.44295 20.2841C2.99635 20.2731 2.55085 20.2599 2.10425 20.2522C1.72915 20.2445 1.72915 20.2467 1.72915 19.8562C1.72915 18.4163 1.72915 16.9764 1.72805 15.5365C1.72805 15.4276 1.71705 15.3198 1.71045 15.2109L1.70605 15.2153C2.21315 15.2109 2.71915 15.2098 3.22625 15.1999C3.38025 15.1966 3.43635 15.2494 3.43305 15.4056C3.42535 15.8126 3.44295 16.2207 3.42535 16.6277C3.41655 16.8444 3.49135 16.8961 3.69485 16.8884C4.09195 16.873 4.49015 16.873 4.88725 16.8884C5.08305 16.8961 5.11605 16.8202 5.11385 16.6475C5.10615 16.1712 5.11495 15.6938 5.11715 15.2164C5.67265 15.2142 6.22925 15.2131 6.78475 15.2109C6.78805 15.7631 6.79245 16.3153 6.79575 16.8675C6.79685 17.4351 6.79796 18.0027 6.79906 18.5714L6.78585 18.5593L6.79795 18.5725C6.23035 18.5714 5.66275 18.5692 5.09515 18.5681C4.54515 18.5659 3.99515 18.5626 3.44405 18.5604C3.44405 18.0445 3.44405 17.5286 3.44405 17.0127C3.38355 17.357 3.37475 17.7024 3.38685 18.0456C3.39345 18.2172 3.31865 18.4009 3.44625 18.5593C3.44295 19.1357 3.44075 19.7121 3.43745 20.2874L3.44295 20.2841ZM3.24165 18.6044C3.24495 18.5956 3.24935 18.5868 3.25265 18.578C2.78515 18.578 2.31655 18.578 1.84905 18.578C1.84905 18.5868 1.84905 18.5956 1.84905 18.6044C2.31325 18.6044 2.77745 18.6044 3.24165 18.6044Z" fill="black"/>
<path d="M6.7782 8.46475C6.7837 7.86965 6.7936 7.27455 6.7936 6.68055C6.7958 5.11305 6.7991 3.54555 6.7881 1.97805C6.7859 1.73715 6.8585 1.67665 7.0895 1.68215C7.5647 1.69425 8.041 1.67555 8.5173 1.67005L8.5118 1.66455C8.5063 2.36745 8.4986 3.07035 8.4975 3.77325C8.4953 5.21975 8.4964 6.66625 8.4975 8.11275C8.4975 8.23155 8.5096 8.34925 8.5162 8.46805L8.514 8.47025C8.4227 8.54725 8.459 8.65285 8.4579 8.74635C8.4524 9.20725 8.4513 9.66815 8.4491 10.1302C7.9145 10.1313 7.381 10.1335 6.8464 10.1346C6.8442 9.79025 6.8519 9.44595 6.8354 9.10275C6.8255 8.89265 6.9036 8.67265 6.7826 8.47135L6.7782 8.46475ZM8.3941 6.78285C8.3941 6.77515 8.3941 6.76745 8.3941 6.75865C7.9222 6.75865 7.4492 6.75865 6.9773 6.75865C6.9773 6.76635 6.9773 6.77405 6.9773 6.78285C7.4492 6.78285 7.9222 6.78285 8.3941 6.78285ZM6.9674 3.35635C6.9674 3.36295 6.9674 3.36955 6.9674 3.37615C7.4173 3.37615 7.8661 3.37615 8.316 3.37615C8.316 3.36955 8.316 3.36295 8.316 3.35635C7.8661 3.35635 7.4173 3.35635 6.9674 3.35635ZM6.9619 8.42735C6.9619 8.43615 6.9619 8.44605 6.9619 8.45485C7.4195 8.45485 7.8771 8.45485 8.3347 8.45485C8.3347 8.44605 8.3347 8.43615 8.3347 8.42735C7.8771 8.42735 7.4195 8.42735 6.9619 8.42735Z" fill="black"/>
<path d="M13.5244 8.46695C13.531 7.95215 13.5431 7.43735 13.5431 6.92365C13.5453 5.25935 13.5442 3.59505 13.5431 1.93075C13.5431 1.84165 13.5343 1.75365 13.5288 1.66455L13.5233 1.67005C13.9996 1.67555 14.4748 1.69425 14.9511 1.68215C15.1821 1.67665 15.2536 1.73715 15.2525 1.97805C15.2426 4.01195 15.247 6.04585 15.247 8.07975C15.247 8.20845 15.2569 8.33715 15.2624 8.46585L15.258 8.47025C15.1689 8.54835 15.203 8.65285 15.2019 8.74745C15.1964 9.20945 15.1964 9.67145 15.1942 10.1335C14.6596 10.1324 14.1261 10.1302 13.5915 10.1291C13.5893 9.76605 13.5948 9.40305 13.5805 9.04005C13.5728 8.84975 13.6432 8.64955 13.5266 8.47025L13.5244 8.46695ZM13.6586 6.75645C13.6586 6.76525 13.6586 6.77405 13.6575 6.78285C14.1305 6.78285 14.6035 6.78285 15.0765 6.78285C15.0765 6.77405 15.0765 6.76525 15.0765 6.75645C14.6046 6.75645 14.1316 6.75645 13.6586 6.75645ZM15.0633 8.45705C15.0655 8.44825 15.0677 8.43835 15.0699 8.42955C14.6178 8.42955 14.1657 8.42955 13.7136 8.42955C13.7136 8.43835 13.7136 8.44825 13.7136 8.45705C14.1635 8.45705 14.6134 8.45705 15.0633 8.45705ZM13.718 3.35415C13.7202 3.36295 13.7213 3.37175 13.7235 3.38055C14.1734 3.38055 14.6233 3.38055 15.0732 3.38055C15.0732 3.37175 15.0732 3.36295 15.0732 3.35415C14.6211 3.35415 14.1701 3.35415 13.718 3.35415Z" fill="black"/>
<path d="M8.51612 8.4668C10.1859 8.4668 11.8546 8.4668 13.5244 8.4668L13.5266 8.469C13.5244 9.0223 13.5233 9.5756 13.5211 10.1278C13.047 10.13 12.574 10.1432 12.0999 10.1311C11.8986 10.1256 11.8502 10.196 11.8557 10.3841C11.8689 10.8571 11.8634 11.3312 11.8656 11.8053C11.3013 11.8053 10.737 11.8053 10.1738 11.8053C10.176 11.3312 10.1705 10.8582 10.1837 10.3841C10.1892 10.196 10.1408 10.1256 9.93952 10.1311C9.46652 10.1432 8.99242 10.1311 8.51832 10.1278C8.51722 9.5756 8.51612 9.0223 8.51392 8.4701L8.51612 8.4668Z" fill="black"/>
<path d="M13.5289 1.66438C13.0251 1.71718 12.5213 1.67318 12.0175 1.68748C11.8767 1.69188 11.8591 1.61048 11.8591 1.49718C11.8613 1.06158 11.8635 0.625976 11.858 0.190376C11.8558 0.0506761 11.902 -0.00212389 12.045 7.6106e-05C12.4806 0.00667611 12.9162 0.00557611 13.3518 7.6106e-05C13.4893 -0.00212389 13.5487 0.0429761 13.5454 0.187076C13.5344 0.680976 13.53 1.17598 13.5234 1.66988L13.5289 1.66438Z" fill="black"/>
<path d="M8.51725 1.66987C8.51065 1.17597 8.50625 0.680966 8.49525 0.187066C8.49195 0.0429658 8.55025 -0.00103425 8.68885 6.5747e-05C9.12445 0.00556575 9.56005 0.00666575 9.99565 6.5747e-05C10.1386 -0.00213425 10.1848 0.0506657 10.1826 0.190366C10.176 0.625966 10.1793 1.06157 10.1815 1.49717C10.1826 1.61047 10.1639 1.69187 10.0231 1.68747C9.51935 1.67207 9.01445 1.71717 8.51175 1.66437L8.51725 1.66987Z" fill="black"/>
<path d="M3.43414 8.46021C3.43414 8.96071 3.43414 9.46121 3.43414 9.96061C3.41874 9.96061 3.40334 9.96061 3.38794 9.96061C3.38794 9.46011 3.38794 8.95961 3.38794 8.46021C3.40334 8.45141 3.41874 8.45141 3.43414 8.46021Z" fill="black"/>
<path d="M15.1942 11.8195C15.2063 11.8074 15.2206 11.803 15.2371 11.8085C15.7596 11.8085 16.281 11.8085 16.8035 11.8085C16.8035 11.8272 16.8035 11.847 16.8035 11.8657C16.3712 11.8657 15.9389 11.8734 15.5066 11.8624C15.313 11.8569 15.2459 11.9229 15.2514 12.1176C15.2635 12.5719 15.258 13.0273 15.2591 13.4816C15.2492 13.4926 15.2382 13.5025 15.2283 13.5135L15.2085 13.4959C15.203 12.9371 15.1986 12.3783 15.1942 11.8195Z" fill="black"/>
<path d="M20.2675 11.8173C20.2752 11.803 20.2862 11.7997 20.3005 11.8052C20.823 11.8052 21.3455 11.8052 21.8691 11.8052C21.8691 11.825 21.8691 11.8459 21.8691 11.8657C21.4907 11.8657 21.1123 11.8657 20.7339 11.8657C20.3269 11.8657 20.3302 11.8657 20.3269 12.2584C20.3225 12.6731 20.3126 13.0878 20.306 13.5036L20.2807 13.4992C20.2763 12.9393 20.2719 12.3783 20.2675 11.8173Z" fill="black"/>
<path d="M20.3016 10.1476L20.2829 10.1498L20.2686 10.1366C20.2686 9.62176 20.2686 9.10806 20.2686 8.59326C20.2884 8.59326 20.3082 8.59326 20.328 8.59326C20.328 8.97606 20.3434 9.35886 20.3225 9.74056C20.3082 10.0057 20.3775 10.1135 20.6646 10.0948C21.0661 10.0695 21.472 10.0882 21.8746 10.1487C21.3499 10.1476 20.8252 10.1476 20.3016 10.1476Z" fill="black"/>
<path d="M15.2437 10.1565C15.2239 10.1543 15.2074 10.1466 15.1931 10.1334C15.1953 9.67142 15.1953 9.20941 15.2008 8.74741C15.2019 8.65281 15.1667 8.54831 15.2569 8.47021C15.2536 9.03231 15.2492 9.59442 15.2437 10.1565Z" fill="black"/>
<path d="M16.9488 13.5014C16.9477 13.5179 16.94 13.5322 16.9268 13.5421C16.3669 13.5399 15.8081 13.5377 15.2482 13.5355C15.2372 13.5311 15.2306 13.5234 15.2273 13.5124C15.2372 13.5014 15.2482 13.4915 15.2581 13.4805C15.8224 13.4882 16.3856 13.4948 16.9488 13.5014Z" fill="black"/>
<path d="M20.3125 13.5301L20.3092 13.5059C20.813 13.5059 21.3168 13.5059 21.8217 13.5059C21.8217 13.5136 21.8217 13.5213 21.8217 13.5301C21.3179 13.5301 20.8152 13.5301 20.3125 13.5301Z" fill="black"/>
<path d="M18.6526 13.4936L18.6295 13.5002L18.6064 13.4936C18.6064 12.9931 18.6064 12.4926 18.6064 11.9932C18.6218 11.9932 18.6372 11.9932 18.6526 11.9932C18.6526 12.4926 18.6526 12.9931 18.6526 13.4936Z" fill="black"/>
<path d="M6.80346 11.8085C6.81996 11.8041 6.83426 11.8074 6.84636 11.8195C6.84196 12.3772 6.83756 12.936 6.83206 13.4948L6.81226 13.5124C6.80126 13.5025 6.79136 13.4915 6.78036 13.4816C6.78146 13.0273 6.77596 12.5719 6.78806 12.1176C6.79356 11.9229 6.72646 11.858 6.53286 11.8624C6.10056 11.8734 5.66826 11.8657 5.23596 11.8085C5.75956 11.8085 6.28096 11.8085 6.80346 11.8085Z" fill="black"/>
<path d="M6.84636 10.1331L6.82656 10.1462L6.80346 10.1452C6.28096 10.1452 5.75956 10.1452 5.23706 10.1452C5.23706 10.1254 5.23706 10.1066 5.23706 10.0868C5.67046 10.0868 6.10386 10.0792 6.53616 10.0902C6.73196 10.0957 6.79466 10.0264 6.79026 9.83385C6.77816 9.37955 6.78476 8.92415 6.78366 8.46875C6.90466 8.67005 6.82656 8.89005 6.83646 9.10015C6.85186 9.44445 6.84416 9.78875 6.84636 10.1331Z" fill="black"/>
<path d="M1.73912 11.8062C1.75342 11.7996 1.76442 11.804 1.77212 11.8183C1.76772 12.3793 1.76332 12.9392 1.75892 13.5002L1.73362 13.5046C1.72592 13.08 1.69402 12.6532 1.72042 12.2308C1.74022 11.914 1.62582 11.8425 1.33542 11.8601C0.95152 11.8843 0.56542 11.8656 0.18042 11.8062C0.69962 11.8062 1.21992 11.8062 1.73912 11.8062Z" fill="black"/>
<path d="M1.77202 10.1356L1.75772 10.1488C1.75772 10.1488 1.73792 10.1477 1.73902 10.1477C1.21432 10.1477 0.689617 10.1477 0.164917 10.1477C0.164917 10.1279 0.164917 10.107 0.164917 10.0872C0.568617 10.0872 0.973417 10.0685 1.37602 10.0938C1.66312 10.1114 1.73132 10.0047 1.71702 9.73959C1.69722 9.35789 1.71152 8.97509 1.77202 8.59229C1.77202 9.10709 1.77202 9.62078 1.77202 10.1356Z" fill="black"/>
<path d="M5.11282 13.5432C5.09962 13.5322 5.09302 13.519 5.09082 13.5014C5.65402 13.4948 6.21722 13.4882 6.78152 13.4805C6.79252 13.4904 6.80242 13.5014 6.81342 13.5113C6.81012 13.5223 6.80242 13.53 6.79142 13.5344C6.23262 13.5388 5.67272 13.541 5.11282 13.5432Z" fill="black"/>
<path d="M1.73137 13.5068L1.72807 13.531C1.22537 13.531 0.721572 13.531 0.218872 13.531C0.218872 13.5233 0.218872 13.5156 0.218872 13.5068C0.723772 13.5068 1.22757 13.5068 1.73137 13.5068Z" fill="black"/>
<path d="M3.43414 13.4936L3.41104 13.5002L3.38794 13.4936C3.38794 12.9931 3.38794 12.4926 3.38794 11.9932C3.40334 11.9932 3.41874 11.9932 3.43414 11.9932C3.43414 12.4926 3.43414 12.9931 3.43414 13.4936Z" fill="black"/>
<path d="M5.08972 20.2641C5.09192 20.2476 5.09852 20.2344 5.11282 20.2256C5.67272 20.2278 6.23262 20.23 6.79252 20.2322C6.80462 20.2399 6.80792 20.2498 6.80242 20.263C6.23152 20.2971 5.66062 20.2949 5.08972 20.2641Z" fill="black"/>
<path d="M11.8591 20.228C11.8712 20.2368 11.8767 20.2489 11.8734 20.2643C11.3047 20.2962 10.736 20.2962 10.1673 20.2643C10.164 20.2489 10.1684 20.2368 10.1816 20.228C10.7404 20.228 11.3003 20.228 11.8591 20.228Z" fill="black"/>
<path d="M16.9279 20.2256C16.9411 20.2355 16.9488 20.2476 16.951 20.2641C16.3801 20.2949 15.8092 20.296 15.2383 20.263C15.2328 20.2498 15.2361 20.2399 15.2482 20.2322C15.8081 20.23 16.368 20.2278 16.9279 20.2256Z" fill="black"/>
<path d="M10.1354 20.2698C10.1442 20.261 10.153 20.261 10.1629 20.2665C10.1629 20.7681 10.1629 21.2697 10.1629 21.7713C10.1541 21.7713 10.1442 21.7713 10.1354 21.7713C10.1354 21.2708 10.1354 20.7703 10.1354 20.2698Z" fill="black"/>
<path d="M11.8767 20.2666L11.9042 20.2699C11.9042 20.7704 11.9042 21.2709 11.9042 21.7714C11.8954 21.7714 11.8855 21.7714 11.8767 21.7714C11.8767 21.2698 11.8767 20.7682 11.8767 20.2666Z" fill="black"/>
<path d="M15.2086 20.2699L15.2361 20.2666C15.2361 20.7693 15.2361 21.272 15.2361 21.7758C15.2273 21.7758 15.2185 21.7758 15.2086 21.7758C15.2086 21.2731 15.2086 20.7715 15.2086 20.2699Z" fill="black"/>
<path d="M6.80457 20.2666L6.83207 20.2699C6.83207 20.7715 6.83207 21.2731 6.83207 21.7758C6.82327 21.7758 6.81447 21.7758 6.80457 21.7758C6.80457 21.272 6.80457 20.7693 6.80457 20.2666Z" fill="black"/>
<path d="M8.47107 21.7733C8.47107 21.3179 8.47107 20.8625 8.47107 20.4082C8.47877 20.4082 8.48757 20.4082 8.49527 20.4082C8.49527 20.8636 8.49527 21.319 8.49527 21.7733C8.48757 21.7744 8.47987 21.7733 8.47107 21.7733Z" fill="black"/>
<path d="M13.5399 21.7638C13.5399 21.3139 13.5399 20.864 13.5399 20.4141C13.5487 20.4141 13.5586 20.4141 13.5674 20.4141C13.5674 20.8651 13.5674 21.3161 13.5674 21.7682C13.5575 21.7671 13.5487 21.7649 13.5399 21.7638Z" fill="black"/>
<path d="M15.2537 15.2109C15.2449 15.1922 15.2449 15.1735 15.2537 15.1559C15.8092 15.1537 16.3658 15.1526 16.9213 15.1504C16.9213 15.1724 16.9213 15.1944 16.9213 15.2164C16.3658 15.2153 15.8092 15.2131 15.2537 15.2109Z" fill="black"/>
<path d="M15.1964 16.8874C15.2096 16.8753 15.225 16.8698 15.2426 16.8687C15.2415 17.4363 15.2404 18.0039 15.2393 18.5726L15.2184 18.5737L15.2008 18.5627C15.1997 18.0028 15.1986 17.4451 15.1964 16.8874Z" fill="black"/>
<path d="M16.9443 18.5679C16.9432 18.5855 16.9366 18.602 16.9256 18.6163C16.3668 18.6141 15.8091 18.6119 15.2503 18.6097C15.2393 18.5998 15.236 18.5866 15.2415 18.5723C15.8091 18.5712 16.3767 18.5701 16.9443 18.5679Z" fill="black"/>
<path d="M18.5944 18.5604C18.5944 18.0478 18.5944 17.5341 18.5944 17.0215C18.6142 17.5341 18.7341 18.0489 18.5922 18.5604H18.5944Z" fill="black"/>
<path d="M18.7946 18.5723C19.2665 18.5723 19.7373 18.5723 20.2092 18.5723C20.2092 18.5811 20.2092 18.5899 20.2092 18.5987C19.7362 18.5987 19.2643 18.5987 18.7913 18.5987C18.7924 18.5899 18.7935 18.5811 18.7946 18.5723Z" fill="black"/>
<path d="M6.78698 15.1559C6.79578 15.1746 6.79578 15.1933 6.78698 15.2109C6.23148 15.2131 5.67488 15.2142 5.11938 15.2164C5.11938 15.1944 5.11938 15.1724 5.11938 15.1504C5.67488 15.1526 6.23038 15.1537 6.78698 15.1559Z" fill="black"/>
<path d="M5.11501 18.6163C5.10401 18.602 5.09741 18.5866 5.09631 18.5679C5.66391 18.569 6.23151 18.5712 6.79911 18.5723C6.80461 18.5866 6.80131 18.5987 6.79031 18.6097C6.23151 18.6119 5.67381 18.6141 5.11501 18.6163Z" fill="black"/>
<path d="M6.79797 16.8677C6.81557 16.8688 6.83097 16.8754 6.84417 16.8864C6.84197 17.4441 6.84087 18.0029 6.83867 18.5606L6.82107 18.5716L6.80017 18.5705C6.80017 18.004 6.79907 17.4353 6.79797 16.8677Z" fill="black"/>
<path d="M3.44842 18.5603C3.32082 18.4019 3.39562 18.2182 3.38902 18.0466C3.37692 17.7023 3.38572 17.358 3.44622 17.0137C3.44622 17.5296 3.44622 18.0455 3.44622 18.5614C3.44512 18.5603 3.44842 18.5603 3.44842 18.5603Z" fill="black"/>
<path d="M3.24172 18.6045C2.77752 18.6045 2.31332 18.6045 1.84912 18.6045C1.84912 18.5957 1.84912 18.5869 1.84912 18.5781C2.31662 18.5781 2.78522 18.5781 3.25272 18.5781C3.24942 18.5869 3.24612 18.5957 3.24172 18.6045Z" fill="black"/>
<path d="M8.5195 10.1287C8.4964 10.1287 8.4722 10.1287 8.4491 10.1287C8.4513 9.66775 8.4524 9.20575 8.4579 8.74485C8.459 8.65135 8.4227 8.54575 8.514 8.46875C8.5162 9.02205 8.5173 9.57535 8.5195 10.1287Z" fill="black"/>
<path d="M8.39409 6.7825C7.92219 6.7825 7.44919 6.7825 6.97729 6.7825C6.97729 6.7748 6.97729 6.7671 6.97729 6.7583C7.44919 6.7583 7.92219 6.7583 8.39409 6.7583C8.39409 6.7671 8.39409 6.7748 8.39409 6.7825Z" fill="black"/>
<path d="M6.96741 3.35596C7.41731 3.35596 7.86611 3.35596 8.31601 3.35596C8.31601 3.36256 8.31601 3.36916 8.31601 3.37576C7.86611 3.37576 7.41731 3.37576 6.96741 3.37576C6.96851 3.36916 6.96851 3.36256 6.96741 3.35596Z" fill="black"/>
<path d="M6.96191 8.42725C7.41951 8.42725 7.87711 8.42725 8.33471 8.42725C8.33471 8.43605 8.33471 8.44595 8.33471 8.45475C7.87711 8.45475 7.41951 8.45475 6.96191 8.45475C6.96191 8.44485 6.96191 8.43605 6.96191 8.42725Z" fill="black"/>
<path d="M13.5915 10.129C13.5684 10.129 13.5442 10.129 13.5211 10.129C13.5233 9.57571 13.5244 9.02241 13.5266 8.47021C13.6432 8.65061 13.5739 8.85081 13.5805 9.04001C13.5948 9.40301 13.5893 9.76601 13.5915 10.129Z" fill="black"/>
<path d="M13.6587 6.75635C14.1317 6.75635 14.6047 6.75635 15.0766 6.75635C15.0766 6.76515 15.0766 6.77395 15.0766 6.78275C14.6036 6.78275 14.1306 6.78275 13.6576 6.78275C13.6587 6.77395 13.6587 6.76515 13.6587 6.75635Z" fill="black"/>
<path d="M15.0633 8.4567C14.6134 8.4567 14.1635 8.4567 13.7136 8.4567C13.7136 8.4479 13.7136 8.438 13.7136 8.4292C14.1657 8.4292 14.6178 8.4292 15.0699 8.4292C15.0677 8.4391 15.0655 8.4479 15.0633 8.4567Z" fill="black"/>
<path d="M13.718 3.354C14.1701 3.354 14.6211 3.354 15.0732 3.354C15.0732 3.3628 15.0732 3.3716 15.0732 3.3804C14.6233 3.3804 14.1734 3.3804 13.7235 3.3804C13.7213 3.3716 13.7202 3.3628 13.718 3.354Z" fill="black"/>
<path d="M10.1738 11.8062C10.7381 11.8062 11.3024 11.8062 11.8656 11.8062L11.8612 11.8073C11.4872 11.936 11.1022 11.8458 10.7227 11.8612C10.5423 11.8689 10.3487 11.9239 10.1771 11.8073L10.1738 11.8062Z" fill="black"/>
<path d="M16.9213 15.1504C16.3658 15.1526 15.8092 15.1537 15.2537 15.1559C15.2515 14.6158 15.2504 14.0757 15.2482 13.5356C15.8081 13.5378 16.3669 13.54 16.9268 13.5422C16.9257 14.079 16.9235 14.6147 16.9213 15.1504Z" fill="black"/>
<path d="M10.1782 11.8062C10.3498 11.9228 10.5434 11.8678 10.7238 11.8601C11.1033 11.8447 11.4883 11.9349 11.8623 11.8062C12.4156 11.8117 12.9678 11.8183 13.5211 11.8238C13.5211 12.3375 13.5211 12.8512 13.5211 13.3638C13.5442 13.3638 13.5684 13.3638 13.5915 13.3638C13.5915 12.8501 13.5915 12.3364 13.5915 11.8238C14.125 11.8227 14.6596 11.8205 15.1931 11.8194C15.1975 12.3782 15.203 12.9359 15.2074 13.4947C14.1074 13.5442 13.0063 13.4837 11.9063 13.4958C11.9063 12.9964 11.9063 12.497 11.9063 11.9976C11.8953 11.9976 11.8854 11.9976 11.8744 11.9976C11.8744 12.4981 11.8744 12.9986 11.8744 13.5002L11.8711 13.5024C11.3035 13.4738 10.7359 13.4738 10.1683 13.5024L10.165 13.5002C10.165 12.9997 10.165 12.4992 10.165 11.9976C10.154 11.9976 10.1441 11.9976 10.1331 11.9976C10.1331 12.497 10.1331 12.9964 10.1331 13.4958C9.03313 13.4947 7.93203 13.4947 6.83203 13.4936C6.83643 12.9359 6.84083 12.3771 6.84633 11.8194C7.37983 11.8205 7.91443 11.8227 8.44793 11.8238C8.44793 12.3375 8.44793 12.8512 8.44793 13.3638C8.47103 13.3638 8.49523 13.3638 8.51833 13.3638C8.51833 12.8501 8.51833 12.3364 8.51833 11.8238C9.07163 11.8183 9.62493 11.8128 10.1782 11.8062Z" fill="black"/>
<path d="M13.5915 11.8242C13.5915 12.3379 13.5915 12.8516 13.5915 13.3642C13.5684 13.3642 13.5442 13.3642 13.5211 13.3642C13.5211 12.8505 13.5211 12.3368 13.5211 11.8242C13.5442 11.8242 13.5684 11.8242 13.5915 11.8242Z" fill="black"/>
<path d="M6.78699 15.1558C6.23149 15.1536 5.67489 15.1525 5.11939 15.1503C5.11719 14.6146 5.11609 14.0789 5.11389 13.5432C5.67379 13.541 6.23259 13.5388 6.79249 13.5366C6.79029 14.0756 6.78809 14.6157 6.78699 15.1558Z" fill="black"/>
<path d="M8.5195 11.8242C8.5195 12.3379 8.5195 12.8516 8.5195 13.3642C8.4964 13.3642 8.4722 13.3642 8.4491 13.3642C8.4491 12.8505 8.4491 12.3368 8.4491 11.8242C8.4722 11.8242 8.4953 11.8242 8.5195 11.8242Z" fill="black"/>
<path d="M8.51722 16.8917C8.99132 16.8895 9.46542 16.8763 9.93952 16.8895C10.1397 16.895 10.1881 16.8268 10.1848 16.6376C10.1749 16.1635 10.1859 15.6894 10.1881 15.2153C10.7436 15.2153 11.298 15.2153 11.8535 15.2153C11.8557 15.6894 11.8667 16.1635 11.8568 16.6376C11.8524 16.8268 11.9019 16.895 12.1021 16.8895C12.5762 16.8774 13.0503 16.8895 13.5244 16.8917C13.5255 17.4472 13.5266 18.0016 13.5288 18.5571C12.9766 18.5615 12.4255 18.5659 11.8733 18.5692C11.3057 18.5692 10.737 18.5692 10.1694 18.5692C9.61722 18.5648 9.06612 18.5604 8.51392 18.5571C8.51392 18.0016 8.51612 17.4461 8.51722 16.8917Z" fill="black"/>
<path d="M6.83862 18.5614C6.84082 18.0037 6.84192 17.4449 6.84412 16.8872C7.37982 16.8883 7.91552 16.8905 8.45012 16.8916C8.45122 17.4471 8.45232 18.0015 8.45452 18.557C7.91552 18.5581 7.37762 18.5592 6.83862 18.5614Z" fill="black"/>
<path d="M11.859 20.228C11.3002 20.228 10.7403 20.228 10.1815 20.228C10.1826 19.6901 10.1826 19.1522 10.1837 18.6143C10.7414 18.6143 11.2991 18.6143 11.8568 18.6143C11.8579 19.1522 11.8579 19.6901 11.859 20.228Z" fill="black"/>
<path d="M5.11499 18.6165C5.67379 18.6143 6.23149 18.6121 6.79029 18.6099C6.79139 19.1511 6.79139 19.6923 6.79249 20.2324C6.23259 20.2302 5.67269 20.228 5.11279 20.2258C5.11279 19.689 5.11389 19.1533 5.11499 18.6165Z" fill="black"/>
<path d="M11.8569 18.6144C11.2992 18.6144 10.7415 18.6144 10.1838 18.6144C10.1728 18.6012 10.1673 18.5858 10.1684 18.5693C10.736 18.5693 11.3047 18.5693 11.8723 18.5693C11.8734 18.5858 11.8679 18.6012 11.8569 18.6144Z" fill="black"/>
<path d="M8.4546 18.556C8.4535 18.0005 8.4524 17.4461 8.4502 16.8906C8.4722 16.8906 8.4942 16.8906 8.5173 16.8906C8.5162 17.4461 8.5151 18.0005 8.5129 18.556C8.4931 18.556 8.4744 18.556 8.4546 18.556Z" fill="black"/>
<path d="M15.1965 16.8872C15.1987 17.4449 15.1998 18.0037 15.202 18.5614C14.663 18.5603 14.1251 18.5581 13.5861 18.557C13.5872 18.0015 13.5883 17.4471 13.5905 16.8916C14.1251 16.8894 14.6608 16.8883 15.1965 16.8872Z" fill="black"/>
<path d="M15.2504 18.6099C15.8092 18.6121 16.3669 18.6143 16.9257 18.6165C16.9268 19.1533 16.9279 19.689 16.929 20.2258C16.3691 20.228 15.8092 20.2302 15.2493 20.2324C15.2493 19.6923 15.2493 19.1511 15.2504 18.6099Z" fill="black"/>
<path d="M13.5893 16.8916C13.5882 17.4471 13.5871 18.0015 13.5849 18.557C13.5651 18.557 13.5464 18.557 13.5266 18.557C13.5255 18.0015 13.5244 17.4471 13.5222 16.8916C13.5453 16.8916 13.5673 16.8916 13.5893 16.8916Z" fill="black"/>
<path d="M10.187 15.1525C10.1848 14.6157 10.1837 14.0789 10.1815 13.541C10.7403 13.541 11.2991 13.541 11.8579 13.541C11.8557 14.0778 11.8546 14.6146 11.8524 15.1525C11.298 15.1525 10.7425 15.1525 10.187 15.1525Z" fill="black"/>
<path d="M11.858 13.5409C11.2992 13.5409 10.7404 13.5409 10.1816 13.5409C10.1695 13.531 10.1651 13.5178 10.1684 13.5024C10.736 13.4738 11.3036 13.4738 11.8712 13.5024C11.8745 13.5178 11.8701 13.531 11.858 13.5409Z" fill="black"/>
<path d="M10.187 15.1523C10.7425 15.1523 11.2969 15.1523 11.8524 15.1523C11.8524 15.1732 11.8524 15.1941 11.8524 15.215C11.2969 15.215 10.7425 15.215 10.187 15.215C10.187 15.1941 10.187 15.1732 10.187 15.1523Z" fill="black"/>
<path d="M11.8756 13.5002C11.8756 12.9997 11.8756 12.4992 11.8756 11.9976C11.8866 11.9976 11.8965 11.9976 11.9075 11.9976C11.9075 12.497 11.9075 12.9964 11.9075 13.4958L11.8921 13.5035L11.8756 13.5002Z" fill="black"/>
<path d="M10.1332 13.4958C10.1332 12.9964 10.1332 12.497 10.1332 11.9976C10.1442 11.9976 10.1541 11.9976 10.1651 11.9976C10.1651 12.4981 10.1651 12.9986 10.1651 13.5002L10.1486 13.5035L10.1332 13.4958Z" fill="black"/>
</g>
<defs>
<clipPath id="clip0_72_1738">
<rect width="22" height="22" fill="white"/>
</clipPath>
</defs>
</svg>
