<svg width="24" height="15" viewBox="0 0 24 15" fill="none" xmlns="http://www.w3.org/2000/svg">
<rect x="9" y="12" width="3" height="3" fill="black"/>
<rect x="9" y="12" width="3" height="3" fill="black"/>
<rect x="9" y="12" width="3" height="3" fill="white"/>
<rect x="12" y="9" width="3" height="3" fill="black"/>
<rect x="12" y="9" width="3" height="3" fill="black"/>
<rect x="12" y="9" width="3" height="3" fill="white"/>
<rect x="15" y="6" width="3" height="3" fill="black"/>
<rect x="15" y="6" width="3" height="3" fill="black"/>
<rect x="15" y="6" width="3" height="3" fill="white"/>
<rect x="18" y="3" width="3" height="3" fill="black"/>
<rect x="18" y="3" width="3" height="3" fill="black"/>
<rect x="18" y="3" width="3" height="3" fill="white"/>
<rect y="3" width="3" height="3" fill="black"/>
<rect y="3" width="3" height="3" fill="black"/>
<rect y="3" width="3" height="3" fill="white"/>
<rect x="6" y="9" width="3" height="3" fill="black"/>
<rect x="6" y="9" width="3" height="3" fill="black"/>
<rect x="6" y="9" width="3" height="3" fill="white"/>
<rect x="3" y="6" width="3" height="3" fill="black"/>
<rect x="3" y="6" width="3" height="3" fill="black"/>
<rect x="3" y="6" width="3" height="3" fill="white"/>
<rect x="21" width="3" height="3" fill="black"/>
<rect x="21" width="3" height="3" fill="black"/>
<rect x="21" width="3" height="3" fill="white"/>
</svg>
