<svg width="27" height="16" viewBox="0 0 27 16" fill="none" xmlns="http://www.w3.org/2000/svg">
<rect x="12" y="12.8438" width="3" height="3" fill="#3632FF"/>
<rect x="12" y="12.8438" width="3" height="3" fill="#3632FF"/>
<rect x="12" y="12.8438" width="3" height="3" fill="#3632FF"/>
<rect x="15" y="9.84375" width="3" height="3" fill="#3632FF"/>
<rect x="15" y="9.84375" width="3" height="3" fill="#3632FF"/>
<rect x="15" y="9.84375" width="3" height="3" fill="#3632FF"/>
<rect x="18" y="6.84375" width="3" height="3" fill="#3632FF"/>
<rect x="18" y="6.84375" width="3" height="3" fill="#3632FF"/>
<rect x="18" y="6.84375" width="3" height="3" fill="#3632FF"/>
<rect x="21" y="3.84375" width="3" height="3" fill="#3632FF"/>
<rect x="21" y="3.84375" width="3" height="3" fill="#3632FF"/>
<rect x="21" y="3.84375" width="3" height="3" fill="#3632FF"/>
<rect x="24" y="0.84375" width="3" height="3" fill="#3632FF"/>
<rect x="24" y="0.84375" width="3" height="3" fill="#3632FF"/>
<rect x="24" y="0.84375" width="3" height="3" fill="#3632FF"/>
<rect y="0.84375" width="3" height="3" fill="#3632FF"/>
<rect y="0.84375" width="3" height="3" fill="#3632FF"/>
<rect y="0.84375" width="3" height="3" fill="#3632FF"/>
<rect x="3" y="3.84375" width="3" height="3" fill="#3632FF"/>
<rect x="3" y="3.84375" width="3" height="3" fill="#3632FF"/>
<rect x="3" y="3.84375" width="3" height="3" fill="#3632FF"/>
<rect x="9" y="9.84375" width="3" height="3" fill="#3632FF"/>
<rect x="9" y="9.84375" width="3" height="3" fill="#3632FF"/>
<rect x="9" y="9.84375" width="3" height="3" fill="#3632FF"/>
<rect x="6" y="6.84375" width="3" height="3" fill="#3632FF"/>
<rect x="6" y="6.84375" width="3" height="3" fill="#3632FF"/>
<rect x="6" y="6.84375" width="3" height="3" fill="#3632FF"/>
</svg>
