<svg width="121" height="78" viewBox="0 0 121 78" fill="none" xmlns="http://www.w3.org/2000/svg">
<g clip-path="url(#clip0_0_6072)">
<path fill-rule="evenodd" clip-rule="evenodd" d="M27.5166 26.3816V60.0806L55.84 48.3626V14.6636L27.5166 26.3816ZM46.0839 29.4664L48.0185 28.6662V30.9677L46.0839 31.7679V29.4664ZM44.1301 32.5491L46.0647 31.7489V34.0504L44.1301 34.8505V32.5491ZM36.3512 37.9164L34.4165 38.7165V36.4151L36.3512 35.6149V37.9164ZM38.3049 34.8337L36.3703 35.6339V33.3324L38.3049 32.5322V34.8337ZM38.3262 34.8442L40.2608 34.0441V36.3456L38.3262 37.1457V34.8442ZM48.0781 39.7904L46.1434 40.5906V40.5632L46.1222 40.5716V42.7426L44.228 43.5259L42.4658 44.2565V44.3134L40.5311 45.1135V42.8773L38.7774 43.6017V41.3002L40.712 40.5V40.5443L42.4253 39.8346V39.8157L44.2642 39.0555V39.0366L46.1988 38.2364V38.2638L48.0781 37.4868V39.7883V39.7904ZM49.9723 32.4775L48.0376 33.2776V30.9761L49.9723 30.176V32.4775Z" fill="white"/>
<path fill-rule="evenodd" clip-rule="evenodd" d="M28.2212 0L55.042 10.5683L26.9804 22.2484L0 11.5769L28.2212 0Z" fill="white"/>
<path d="M60.333 46.5048L68.3311 43.1526V40.5163L62.9998 42.7504V34.8373L68.3311 32.6032V29.9648L60.333 33.3171V46.5048Z" fill="white"/>
<path d="M73.207 41.1105L75.8738 39.9924V34.7177L78.5384 33.5996V30.9633L75.8738 32.0793V29.4431L78.5384 28.325V30.9633L81.2052 29.8452V24.5706L73.207 27.9228V41.1105Z" fill="white"/>
<path d="M81.2058 37.7583V32.4836L78.5391 33.5996V38.8764L81.2058 37.7583Z" fill="white"/>
<path d="M86.6709 35.4674L89.3377 34.3493V29.0746L92.0044 27.9565V33.2312L94.6712 32.113V18.9253L86.673 22.2775V35.4653L86.6709 35.4674ZM89.3377 23.7999L92.0044 22.6818V25.3202L89.3377 26.4383V23.7999Z" fill="white"/>
<path d="M100.173 29.8093L102.837 28.6911V23.4165L108.171 21.1824V18.544L102.837 20.7781V18.1418L108.171 15.9056V13.2693L100.173 16.6215V29.8093Z" fill="white"/>
<path d="M112.664 11.3847V14.0231L115.331 12.905V23.4564L117.995 22.3383V11.7869L120.662 10.6709V8.03247L112.664 11.3847Z" fill="white"/>
<path d="M2.71583 21.1093V18.4561L0.0341797 17.3633V30.6289L2.71583 31.7197V23.7624L5.39749 24.8531V22.2L2.71583 21.1093Z" fill="white"/>
<path d="M10.7608 24.386L8.0791 23.2932V25.9463L10.7608 27.0392V34.9986L13.4424 36.0914V22.8257L10.7608 21.7329V24.386Z" fill="white"/>
<path d="M5.39746 27.5066L8.07911 28.5995V25.9464L5.39746 24.8535V27.5066Z" fill="white"/>
<path d="M20.9131 25.8707L18.2314 24.7778V38.0414L20.9131 39.1342V25.8707Z" fill="white"/>
<path d="M2.71583 38.2597V35.6066L0.0341797 34.5159V47.7794L2.71583 48.8723V40.9129L5.39749 42.0057V39.3526L2.71583 38.2597Z" fill="white"/>
<path d="M8.07911 43.099L5.39746 42.0062V44.6593L8.07911 45.7521V51.0584L10.7608 52.1512V38.8856L8.07911 37.7927V43.099Z" fill="white"/>
<path d="M21.2188 45.8008V53.7602L23.9004 54.8509V46.8936L21.2188 45.8008Z" fill="white"/>
<path d="M18.5371 44.7079L21.2188 45.8007V43.1476L15.8555 40.9619V54.2276L21.2188 56.4111V53.7601L18.5371 52.6673V44.7079Z" fill="white"/>
<path fill-rule="evenodd" clip-rule="evenodd" d="M12.655 58.379V58.3727L0.0341797 53.1506V68.1661L11.0694 72.7312V72.7375L23.6881 77.9595V62.9441L12.655 58.379Z" fill="white"/>
<path d="M27.9209 78.0002L30.5068 76.9432V71.8264L33.0927 70.7694V75.8861L35.6785 74.8291V62.0393L27.923 65.2083V77.9981L27.9209 78.0002ZM30.5068 66.7118L33.0927 65.6547V68.2131L30.5068 69.2701V66.7118Z" fill="white"/>
<path d="M40.8476 59.9265L38.2617 60.9836V73.7733L40.8476 72.7163V67.5995L43.4335 66.5446V63.9862L40.8476 65.0433V59.9265Z" fill="white"/>
<path d="M46.0195 70.605V65.4883L43.4336 66.5453V71.66L46.0195 70.605Z" fill="white"/>
<path d="M43.4336 63.9866L46.0195 62.9296V57.8149L43.4336 58.8699V63.9866Z" fill="white"/>
<path d="M48.6055 69.5476L51.1913 68.4905V63.3738L53.7772 62.3167V67.4335L56.3631 66.3765V53.5867L48.6076 56.7557V69.5455L48.6055 69.5476ZM51.1913 58.2591L53.7772 57.2021V59.7605L51.1913 60.8175V58.2591Z" fill="white"/>
<path d="M69.2887 48.3059L64.1169 50.4179V52.9763L66.7028 51.9192V59.5944L64.1169 60.6514V52.9763L61.5331 54.0333V61.7063L58.9473 62.7634V65.3218L71.8745 60.0387V57.4803L69.2887 58.5373V48.3059Z" fill="white"/>
<path d="M74.46 58.9839L82.2155 55.8127V53.2544L77.0458 55.3684V52.8101L79.6296 51.753V49.1967L77.0458 50.2517V47.6933L82.2155 45.5813V43.0229L74.46 46.192V58.9839Z" fill="white"/>
<path d="M87.3876 43.469V40.9106L84.8018 41.9656V54.7575L87.3876 53.7004V46.0253L89.9735 44.9704V42.412L87.3876 43.469Z" fill="white"/>
<path d="M95.1433 40.2979L92.5596 41.3549V43.9133L95.1433 42.8563V50.5314L97.7292 49.4744V36.6846L95.1433 37.7395V40.2979Z" fill="white"/>
<path d="M89.9736 47.5269L92.5595 46.472V43.9136L89.9736 44.9706V47.5269Z" fill="white"/>
<path d="M108.07 37.5733L105.486 38.6303V41.1887L108.07 40.1317V45.2484L110.656 44.1914V31.4016L108.07 32.4587V37.5733Z" fill="white"/>
<path d="M102.9 34.5708L100.314 35.6278V48.4176L102.9 47.3606V44.8043L105.486 43.7473V41.1889L102.9 42.2459V34.5708Z" fill="white"/>
<path d="M113.242 30.3446V35.4613L115.828 34.4043V31.8459L118.414 30.791V33.3472L115.828 34.4043V36.9626L118.414 35.9056V41.0224L121 39.9653V27.1755L113.242 30.3446Z" fill="white"/>
<path d="M113.242 43.1348L115.828 42.0799V36.9631L113.242 38.0202V43.1348Z" fill="white"/>
</g>
<defs>
<clipPath id="clip0_0_6072">
<rect width="121" height="78" fill="white"/>
</clipPath>
</defs>
</svg>
