<svg width="2963" height="1931" viewBox="0 0 2963 1931" fill="none" xmlns="http://www.w3.org/2000/svg">
<path fill-rule="evenodd" clip-rule="evenodd" d="M674.249 653.302V1487.24L1367.7 1197.26V363.32L674.249 653.302ZM1128.84 729.64L1176.21 709.839V766.793L1128.84 786.594V729.64ZM1080.95 805.926L1128.32 786.125V843.08L1080.95 862.881V805.926ZM890.55 938.75L843.184 958.551V901.597L890.55 881.796V938.75ZM938.385 862.464L891.019 882.265V825.311L938.385 805.51V862.464ZM938.906 862.724L986.273 842.923V899.878L938.906 919.679V862.724ZM1177.67 985.127L1130.3 1004.93V1004.25L1129.78 1004.46V1058.18L1083.4 1077.57V1077.62L1040.26 1095.65V1097.05L992.891 1116.86V1061.52L949.953 1079.44V1022.49L997.32 1002.69V1003.78L1039.27 986.221V985.752L1084.29 966.941V966.472L1131.65 946.671V947.348L1177.67 928.12V985.127ZM1224.04 804.155L1176.68 823.956V767.002L1224.04 747.201V804.155Z" fill="white"/>
<path fill-rule="evenodd" clip-rule="evenodd" d="M691.497 0.43811L1348.16 261.969L661.066 550.961L0.542725 286.929L691.497 0.43811Z" fill="white"/>
<path d="M1477.71 1151.35L1673.53 1068.4V1003.1L1543 1058.39V862.62L1673.53 807.281V742.042L1477.71 824.998V1151.35Z" fill="white"/>
<path fill-rule="evenodd" clip-rule="evenodd" d="M1862.79 660.387L1927.66 632.927V962.824L1729.7 1044.58V716.734L1794.89 689.135V692.562L1794.89 692.562V956.202L1862.79 927.435L1862.79 878.543V660.387Z" fill="white"/>
<path d="M2250 826L2451 742.996V675.985L2317 731.303V664.348L2384 636.662V569.652L2317 597.338V530.328L2451 474.955V408L2250 491.004V826Z" fill="white"/>
<path fill-rule="evenodd" clip-rule="evenodd" d="M2056 578.333L2187 522V522.276V581.5V640.804L2120 667V730.394L2056 756.591V843L2120 816.542V729.765L2187 703.293V854.376L1990.24 936.197V606.404L2056 578.287V578.333ZM2056 638.167V692.196L2120 666V610.482L2056 638.167Z" fill="white"/>
<path d="M67.0323 522.823V457.166L1.37598 430.122V758.404L67.0323 785.448V588.479L132.689 615.523V549.867L67.0323 522.823Z" fill="white"/>
<path d="M263.949 603.955L198.293 576.911V642.567L263.949 669.612V866.528L329.606 893.573V565.343L263.949 538.299V603.955Z" fill="white"/>
<path d="M132.688 681.18L198.292 708.224V642.567L132.688 615.523V681.18Z" fill="white"/>
<path d="M512.505 640.639L446.849 613.595V941.877L512.505 968.921V640.639Z" fill="white"/>
<path d="M67.0323 947.296V881.64L1.37598 854.596V1182.88L67.0323 1209.92V1012.95L132.689 1040V974.34L67.0323 947.296Z" fill="white"/>
<path d="M198.292 1067.04L132.688 1040V1105.65L198.292 1132.64V1263.96L263.949 1291V962.72L198.292 935.728V1067.04Z" fill="white"/>
<path d="M520.009 1133.84V1330.81L585.665 1357.86V1160.89L520.009 1133.84Z" fill="white"/>
<path d="M454.352 1106.8L520.008 1133.84V1068.19L388.696 1014.1V1342.38L520.008 1396.47V1330.81L454.352 1303.77V1106.8Z" fill="white"/>
<path fill-rule="evenodd" clip-rule="evenodd" d="M310.325 1445.14V1444.98L1.37598 1315.81V1687.39L271.505 1800.36V1800.52L580.506 1929.69V1558.11L310.325 1445.14Z" fill="white"/>
<g opacity="0.4">
<path d="M684.097 1930.68L747.409 1904.52V1777.9L810.72 1751.74V1878.37L874.032 1852.21V1535.7L684.15 1614.12V1930.68H684.097ZM747.409 1651.33L810.72 1625.17V1688.48L747.409 1714.64V1651.33Z" fill="white"/>
<path d="M1000.65 1483.44L937.343 1509.6V1826.1L1000.65 1799.99V1673.37L1063.91 1647.21V1583.9L1000.65 1610.06V1483.44Z" fill="white"/>
<path d="M1127.23 1747.68V1621.05L1063.91 1647.21V1773.84L1127.23 1747.68Z" fill="white"/>
<path d="M1063.91 1583.9L1127.23 1557.8V1431.17L1063.91 1457.33V1583.9Z" fill="white"/>
<path d="M1190.54 1721.52L1253.85 1695.36V1568.74L1317.16 1542.58V1669.2L1380.47 1643.04V1326.54L1190.59 1404.96V1721.52H1190.54ZM1253.85 1442.17L1317.16 1416.01V1479.32L1253.85 1505.48V1442.17Z" fill="white"/>
<path d="M1696.98 1195.85L1570.35 1248.17V1311.48L1633.66 1285.32V1475.2L1570.35 1501.36V1311.48L1507.04 1337.59V1527.52L1443.73 1553.68V1616.94L1760.29 1486.25V1422.94L1696.98 1449.1V1195.85Z" fill="white"/>
<path d="M1823.55 1460.09L2013.48 1381.67V1318.36L1886.86 1370.62V1307.36L1950.17 1281.21V1217.89L1886.86 1244.05V1180.74L2013.48 1128.42V1065.16L1823.55 1143.59V1460.09Z" fill="white"/>
<path d="M2140.05 1076.16V1012.85L2076.79 1039.01V1355.51L2140.05 1329.35V1139.47L2203.36 1113.31V1050L2140.05 1076.16Z" fill="white"/>
<path d="M2329.99 997.737L2266.68 1023.84V1087.15L2329.99 1061.05V1250.93L2393.3 1224.77V908.267L2329.99 934.425V997.737Z" fill="white"/>
<path d="M2203.36 1176.62L2266.67 1150.47V1087.15L2203.36 1113.31V1176.62Z" fill="white"/>
<path d="M2646.49 930.309L2583.18 956.467V1019.73L2646.49 993.62V1120.19L2709.8 1094.08V777.528L2646.49 803.686V930.309Z" fill="white"/>
<path d="M2519.87 856.002L2456.61 882.109V1198.67L2519.87 1172.51V1109.2L2583.18 1083.04V1019.73L2519.87 1045.88V856.002Z" fill="white"/>
<path d="M2773.11 751.421V877.992L2836.43 851.886V788.575L2899.69 762.416V825.728L2836.43 851.886V915.145L2899.69 889.039V1015.61L2963 989.504V672.947L2773.11 751.421Z" fill="white"/>
<path d="M2773.11 1067.93L2836.43 1041.77V915.145L2773.11 941.304V1067.93Z" fill="white"/>
</g>
</svg>
