<svg width="123" height="122" viewBox="0 0 123 122" fill="none" xmlns="http://www.w3.org/2000/svg">
<rect width="21.6835" height="21.6835" transform="matrix(-1 0 0 1 100.684 99.7239)" fill="#E93636"/>
<rect width="21.6835" height="21.6835" transform="matrix(-1 0 0 1 100.684 78.0404)" fill="#640303"/>
<rect width="21.6835" height="21.6835" transform="matrix(-1 0 0 1 122.367 78.0404)" fill="#6F0404"/>
<rect width="21.6835" height="21.6835" transform="matrix(1 8.74228e-08 8.74228e-08 -1 21.6836 21.6835)" fill="#6F0404"/>
<rect width="21.6835" height="21.6835" transform="matrix(1 8.74228e-08 8.74228e-08 -1 21.6836 43.3669)" fill="#640303"/>
<rect width="21.6835" height="21.6835" transform="matrix(1 8.74228e-08 8.74228e-08 -1 0 43.3669)" fill="#E93636"/>
<rect width="21.6835" height="21.6835" transform="matrix(1 8.74228e-08 8.74228e-08 -1 100.684 23.6835)" fill="#E93636"/>
</svg>
