<svg width="60" height="60" viewBox="0 0 60 60" fill="none" xmlns="http://www.w3.org/2000/svg">
<g id="Group 111">
<g id="Ellipse 30">
<circle cx="30" cy="30" r="30" fill="#3CFDFF"/>
<circle cx="30" cy="30" r="30" stroke="white"/>
</g>
<g id="Group">
<path id="Vector" d="M26.0406 45.806C26.0357 45.6682 26.0242 45.5288 26.0242 45.391C26.0226 40.6949 26.0242 35.9971 26.0242 31.3009C26.0242 31.1648 26.0242 31.027 26.0242 30.8498C24.3364 30.8498 22.678 30.8498 21 30.8498C21 28.8913 21 26.9738 21 25.0169C22.66 25.0169 24.32 25.0169 26.0242 25.0169C26.0242 24.8529 26.0242 24.7282 26.0242 24.6036C26.0308 23.0765 25.9931 21.5494 26.0554 20.0255C26.1308 18.1884 26.6754 16.5022 27.9712 15.1309C28.9571 14.0877 30.1889 13.4955 31.5783 13.1986C32.7068 12.9575 33.8501 12.9854 34.9901 13.0297C35.9168 13.0658 36.8436 13.1445 37.7687 13.2068C37.8409 13.2117 37.9131 13.2331 38 13.2478C38 14.9718 38 16.6859 38 18.4476C37.8901 18.4476 37.7769 18.4459 37.6654 18.4476C36.5237 18.464 35.3805 18.4476 34.2421 18.5066C32.8954 18.5771 32.1327 19.3235 32.0769 20.68C32.0195 22.0874 32.0572 23.4964 32.0539 24.9054C32.0539 24.9251 32.0687 24.9431 32.09 24.9989C33.9698 24.9989 35.8627 24.9989 37.8114 24.9989C37.5588 26.9607 37.3127 28.8782 37.0601 30.8318C35.3952 30.8318 33.7451 30.8318 32.072 30.8318C32.0605 30.9564 32.0457 31.0483 32.0457 31.1385C32.0441 35.9528 32.0441 40.767 32.0457 45.5813C32.0457 45.6551 32.0556 45.7306 32.0621 45.8044C30.0544 45.806 28.0483 45.806 26.0406 45.806Z" fill="white"/>
</g>
</g>
</svg>
