<svg width="60" height="60" viewBox="0 0 60 60" fill="none" xmlns="http://www.w3.org/2000/svg">
<g id="Group 107">
<circle id="Ellipse 26" cx="30" cy="30" r="29" stroke="white" stroke-width="2"/>
<g id="Group">
<path id="Vector" d="M30.4798 39.9458C29.2541 39.9285 28.0399 39.9141 26.8272 39.8925C26.1653 39.8795 25.502 39.8564 24.8401 39.8305C24.2475 39.8074 23.6548 39.7829 23.0636 39.7469C22.3959 39.7065 21.7283 39.6574 21.0606 39.6012C20.491 39.5522 19.9229 39.4887 19.3605 39.382C18.4117 39.2018 17.669 38.7043 17.1124 37.9227C16.8168 37.5074 16.6351 37.0431 16.5313 36.5456C16.4145 35.9818 16.3236 35.4151 16.2544 34.8426C16.1794 34.2081 16.1261 33.5722 16.0857 32.9363C15.9963 31.5563 15.9848 30.1748 16.015 28.7934C16.0295 28.1618 16.0554 27.5302 16.0987 26.9015C16.1463 26.2266 16.2112 25.5532 16.2847 24.8812C16.3438 24.326 16.4303 23.7752 16.5558 23.2301C16.7476 22.4039 17.1917 21.7362 17.8623 21.2185C18.2141 20.9474 18.6049 20.747 19.0332 20.6316C19.261 20.5711 19.4975 20.535 19.7311 20.499C20.4305 20.3894 21.1342 20.3144 21.8407 20.2639C22.4882 20.2178 23.1342 20.1745 23.7817 20.1385C25.1992 20.0606 26.6181 20.0231 28.0385 20.0116C29.1964 20.0029 30.3543 19.9971 31.5123 20.0015C32.353 20.0044 33.1937 20.0217 34.0343 20.0418C34.875 20.062 35.7143 20.0909 36.555 20.1255C37.2024 20.1529 37.8513 20.1846 38.4973 20.2307C39.1131 20.274 39.7274 20.3346 40.3402 20.3951C40.6517 20.4269 40.9632 20.4744 41.266 20.5566C41.7664 20.6922 42.2321 20.8984 42.6402 21.2214C43.3252 21.765 43.7563 22.4659 43.9438 23.3195C44.0938 23.9944 44.2019 24.675 44.2827 25.3614C44.3591 26.0089 44.4125 26.6592 44.4514 27.311C44.512 28.3348 44.5379 29.3615 44.522 30.3868C44.512 31.0256 44.4932 31.663 44.4586 32.3003C44.4254 32.9161 44.375 33.5318 44.3173 34.1461C44.2365 35.0041 44.1183 35.8563 43.9352 36.6999C43.8068 37.2926 43.5314 37.8117 43.1262 38.2616C42.5811 38.8687 41.9048 39.245 41.1016 39.3964C40.5911 39.4931 40.0763 39.5579 39.5587 39.6099C38.6704 39.6993 37.7792 39.7627 36.8881 39.7973C35.8224 39.8391 34.7553 39.8781 33.6883 39.9026C32.6168 39.9271 31.5426 39.9329 30.4798 39.9458ZM27.4992 25.683C27.4992 28.5454 27.4992 31.3818 27.4992 34.2398C29.9881 32.8122 32.4626 31.3919 34.9558 29.9614C32.4626 28.5309 29.9881 27.1106 27.4992 25.683Z" fill="white"/>
</g>
</g>
</svg>
