<svg width="60" height="60" viewBox="0 0 60 60" fill="none" xmlns="http://www.w3.org/2000/svg">
<g id="Group 109">
<circle id="Ellipse 28" cx="30" cy="30" r="29" stroke="white" stroke-width="2"/>
<g id="Group">
<path id="Vector" d="M26.3537 43C25.7765 42.9155 25.1915 42.8687 24.6247 42.7387C21.4176 42.0068 18.9151 39.2209 18.5147 35.9657C17.9804 31.625 20.9223 27.7068 25.2578 26.9957C26.0976 26.8579 26.9413 26.8384 27.7954 26.9892C27.7954 28.4127 27.7954 29.8245 27.7954 31.2623C27.5705 31.2207 27.3586 31.1726 27.1454 31.1414C25.0563 30.8372 23.0673 32.2984 22.793 34.3381C22.4979 36.5273 23.9591 38.4526 26.1067 38.7425C28.2686 39.0337 30.4695 37.3554 30.45 34.8074C30.4266 31.7238 30.4513 28.6389 30.4526 25.554C30.4539 22.8175 30.4526 20.0797 30.4526 17.3432C30.4526 17.234 30.4526 17.1261 30.4526 17C31.8722 17 33.2658 17 34.6581 17C34.7192 17.4368 34.7582 17.8749 34.8453 18.3013C35.442 21.2016 38.0121 23.3752 40.9683 23.4753C41.2257 23.4844 41.292 23.552 41.2894 23.8068C41.2751 25.0093 41.2829 26.2131 41.2829 27.4169C41.2829 27.5079 41.2829 27.5989 41.2829 27.7133C38.8324 27.7016 36.6692 26.9502 34.6971 25.489C34.6971 25.6268 34.6971 25.7152 34.6971 25.8049C34.7062 28.804 34.714 31.8044 34.7231 34.8035C34.7283 36.4389 34.3253 37.9612 33.4036 39.3158C31.9008 41.5258 29.8052 42.7426 27.1337 42.9571C27.0427 42.9649 26.9517 42.9857 26.8607 43C26.693 43 26.524 43 26.3537 43Z" fill="white"/>
</g>
</g>
</svg>
