<svg width="60" height="60" viewBox="0 0 60 60" fill="none" xmlns="http://www.w3.org/2000/svg">
<g id="Group 110">
<circle id="Ellipse 29" cx="30" cy="30" r="29" stroke="white" stroke-width="2"/>
<g id="Group">
<path id="Vector" d="M33.6799 43.2045C30.9531 43.2045 28.2248 43.2045 25.498 43.2045C25.3317 43.1895 25.1655 43.1664 24.9992 43.1623C23.9104 43.135 22.8243 43.0914 21.76 42.8311C19.5223 42.2819 17.8571 41.0105 16.8663 38.9132C16.2531 37.6172 16.0637 36.2232 16.0487 34.8073C16.0174 31.861 15.9847 28.9134 16.0078 25.9671C16.0174 24.7325 16.0923 23.4869 16.2736 22.2673C16.557 20.3662 17.4741 18.7868 19.0304 17.6203C20.3645 16.6214 21.9085 16.2235 23.5411 16.1077C24.1911 16.0627 24.8452 16.0354 25.4966 16C28.2058 16 30.9163 16 33.6254 16C34.2604 16.0354 34.8941 16.0681 35.5292 16.1063C36.6398 16.1717 37.7273 16.3639 38.7466 16.8217C41.2472 17.946 42.565 19.9506 42.9752 22.6066C43.0474 23.0754 43.0842 23.551 43.1374 24.0239C43.1374 27.6719 43.1374 31.3214 43.1374 34.9694C43.1224 35.0648 43.1033 35.1589 43.0938 35.2542C43.0365 35.7898 43.0093 36.3295 42.9193 36.8596C42.6304 38.5671 41.9014 40.047 40.5904 41.2094C39.1691 42.47 37.4588 42.9728 35.6082 43.0982C34.9663 43.1405 34.3231 43.1691 33.6799 43.2045ZM29.5903 40.8006C29.5903 40.787 29.5903 40.772 29.5917 40.7584C30.3085 40.7584 31.0266 40.7802 31.7435 40.7543C33.282 40.6998 34.8273 40.6984 36.3536 40.5308C38.4332 40.3032 39.9227 38.9636 40.3914 36.9631C40.5877 36.1264 40.6613 35.2474 40.679 34.3862C40.728 31.8637 40.7458 29.3399 40.7253 26.8161C40.7144 25.4997 40.6722 24.1751 40.5182 22.8696C40.2593 20.6851 38.8802 19.1997 36.7297 18.7718C35.7908 18.5851 34.8151 18.5265 33.8543 18.5129C31.3046 18.4761 28.7536 18.4707 26.2053 18.5006C25.0224 18.5143 23.8286 18.5579 22.6607 18.7282C20.588 19.0321 19.1776 20.3812 18.7565 22.4322C18.5752 23.3179 18.5139 24.2392 18.4948 25.1468C18.4485 27.3326 18.4308 29.5212 18.4553 31.707C18.4717 33.236 18.5112 34.7718 18.6597 36.2927C18.811 37.8394 19.5482 39.0999 20.9287 39.9053C21.7872 40.4068 22.7425 40.6139 23.7237 40.648C25.6792 40.7175 27.6348 40.7516 29.5903 40.8006Z" fill="white"/>
<path id="Vector_2" d="M22.5957 29.5988C22.6012 25.7395 25.7477 22.6038 29.5975 22.6202C33.4677 22.6365 36.5938 25.7763 36.5707 29.6247C36.5475 33.4881 33.4295 36.5979 29.5852 36.5938C25.7287 36.5897 22.5903 33.4499 22.5957 29.5988ZM29.5621 34.1313C32.0722 34.1422 34.0973 32.1417 34.1136 29.6342C34.13 27.1254 32.1295 25.0949 29.6234 25.0772C27.1037 25.0581 25.0691 27.0682 25.0582 29.5879C25.0473 32.094 27.056 34.1204 29.5621 34.1313Z" fill="white"/>
<path id="Vector_3" d="M38.475 22.353C38.4682 23.262 37.735 23.9801 36.8233 23.9692C35.9348 23.9583 35.2153 23.2224 35.2207 22.3258C35.2262 21.4304 35.9512 20.7123 36.8506 20.7136C37.7636 20.715 38.4818 21.4386 38.475 22.353Z" fill="white"/>
</g>
</g>
</svg>
