<svg width="60" height="60" viewBox="0 0 60 60" fill="none" xmlns="http://www.w3.org/2000/svg">
<g id="Group 104">
<circle id="Ellipse 23" cx="30" cy="30" r="29" stroke="white" stroke-width="2"/>
<g id="Group">
<path id="Vector" d="M16 35.6146C16 35.4899 16 35.3652 16 35.2405C16.0333 34.8519 16.0435 34.4618 16 34.0732C16 33.9645 16 33.8557 16 33.747C16.0812 33.6904 16.0421 33.6049 16.0449 33.5324C16.0971 32.4913 16.2088 31.456 16.3944 30.4308C17.0193 26.99 18.3954 23.8609 20.3326 20.9638C20.3949 20.871 20.466 20.7999 20.5718 20.7535C22.3916 19.9372 24.2853 19.3601 26.2486 19.0063C26.3805 18.9831 26.4444 19.0237 26.5052 19.1368C26.7213 19.5413 26.933 19.9488 27.1157 20.3693C27.1665 20.4867 27.2201 20.5317 27.3593 20.507C27.6348 20.4577 27.9146 20.4287 28.1931 20.4012C30.007 20.2228 31.818 20.2547 33.6233 20.507C33.7668 20.5273 33.8118 20.478 33.864 20.3664C34.0569 19.9589 34.2627 19.5587 34.4556 19.1513C34.5208 19.0135 34.6049 18.9831 34.7499 19.0106C36.6813 19.363 38.5446 19.9299 40.3397 20.726C40.4731 20.7854 40.5717 20.8681 40.6529 20.9899C43.0672 24.583 44.5621 28.5023 44.884 32.8407C44.8999 33.0495 44.8579 33.2714 44.9608 33.4715C44.9608 34.2965 44.9608 35.1216 44.9608 35.9452C44.8898 35.9858 44.9188 36.0554 44.9144 36.1134C44.8913 36.415 44.8666 36.718 44.8492 37.0211C44.8419 37.1472 44.7912 37.2328 44.6853 37.3082C42.5451 38.8481 40.2208 40.024 37.6992 40.8085C37.5441 40.8563 37.4629 40.8331 37.3701 40.7026C36.867 39.9979 36.4116 39.2671 36.0056 38.503C35.9273 38.3551 35.9636 38.3159 36.1028 38.2652C36.7596 38.0172 37.3933 37.72 38.0081 37.3821C38.3909 37.1733 38.3807 37.182 38.0487 36.8964C37.8718 36.7456 37.7326 36.7282 37.5122 36.8268C35.5301 37.7171 33.4508 38.2188 31.2787 38.3159C28.6353 38.4334 26.0949 37.9607 23.6705 36.9094C23.2819 36.7412 23.0195 36.7514 22.7309 37.0428C22.6207 37.1545 22.6105 37.1835 22.7512 37.2632C23.4167 37.6388 24.1011 37.9752 24.8174 38.242C24.9943 38.3087 25.0422 38.3609 24.9407 38.5465C24.5419 39.2787 24.104 39.9849 23.6241 40.6664C23.5096 40.8302 23.4081 40.8563 23.221 40.7969C20.9184 40.0646 18.7811 39.0061 16.7728 37.6649C16.2871 37.3415 16.0362 36.9993 16.071 36.4135C16.0899 36.1496 16.0957 35.8712 16 35.6146ZM37.8892 31.0761C37.8906 30.4308 37.7529 29.9074 37.4774 29.4303C36.5943 27.9006 34.6412 27.67 33.4623 28.9576C32.4648 30.0466 32.443 31.875 33.4145 32.9857C34.4773 34.2008 36.1854 34.1892 37.2019 32.9553C37.6702 32.3854 37.8776 31.7199 37.8892 31.0761ZM28.2815 31.0862C28.2815 30.5584 28.2119 30.1205 28.0176 29.716C27.5609 28.7691 26.8387 28.1616 25.7556 28.1282C24.6884 28.0949 23.9344 28.643 23.4443 29.5565C22.8338 30.6976 23.0165 32.0882 23.8764 33.0582C24.7478 34.0399 26.1804 34.1675 27.1998 33.341C27.9393 32.7436 28.254 31.9388 28.2815 31.0862Z" fill="white"/>
<path id="Vector_2" d="M16 34.0732C16.0435 34.4618 16.0333 34.8519 16 35.2405C16 34.8519 16 34.4633 16 34.0732Z" fill="#FDFDFE"/>
</g>
</g>
</svg>
