<svg width="60" height="60" viewBox="0 0 60 60" fill="none" xmlns="http://www.w3.org/2000/svg">
<g id="Group 106">
<circle id="Ellipse 25" cx="30" cy="30" r="29" stroke="white" stroke-width="2"/>
<g id="Group">
<path id="Vector" d="M20.0013 22.7258C24.8699 22.7349 29.7373 22.7349 34.6059 22.7635C35.3898 22.7674 36.188 22.8246 36.9525 22.9871C38.5307 23.3225 39.5746 24.347 39.7293 25.9148C39.8905 27.5425 39.8775 29.213 39.7098 30.842C39.533 32.5658 38.2577 33.4303 36.465 33.7956C37.817 35.6911 39.0715 37.4513 40.3274 39.2116C38.831 39.2116 37.336 39.2116 35.8396 39.2116C34.7892 37.6528 33.77 36.0707 32.6662 34.551C32.4023 34.1869 31.8615 33.8203 31.4351 33.8047C29.3265 33.7293 27.2126 33.7826 25.1013 33.7631C24.4617 33.7566 24.1133 33.9256 24.138 34.642C24.1926 36.1643 24.1978 37.6892 24.2238 39.2116C22.8159 39.2116 21.4079 39.2116 20 39.2116C20.0013 33.7163 20.0013 28.2211 20.0013 22.7258ZM24.2043 30.2543C27.6572 30.2543 30.9476 30.2816 34.2367 30.2413C35.6784 30.2244 35.8357 29.8825 35.8656 28.0521C35.8851 26.843 35.4366 26.2879 34.1769 26.3022C31.1426 26.3386 28.1083 26.31 25.074 26.3204C24.7867 26.3217 24.4994 26.4166 24.2043 26.4686C24.2043 27.7232 24.2043 28.8906 24.2043 30.2543Z" fill="white"/>
<path id="Vector_2" d="M46.0019 18.7919C46.0253 20.2908 44.6888 21.6117 43.1496 21.613C41.6494 21.6143 40.3766 20.3974 40.3285 18.9141C40.2791 17.3996 41.5688 16.0397 43.0911 16.0007C44.5679 15.9643 45.9785 17.3164 46.0019 18.7919Z" fill="white"/>
</g>
</g>
</svg>
