<svg width="60" height="60" viewBox="0 0 60 60" fill="none" xmlns="http://www.w3.org/2000/svg">
<g id="Group 105">
<circle id="Ellipse 24" cx="30" cy="30" r="29" stroke="white" stroke-width="2"/>
<g id="Group">
<path id="Vector" d="M43.1904 18.4677C43.0531 19.1282 42.9082 19.7857 42.7816 20.4493C41.964 24.7297 41.1509 29.0102 40.3363 33.2906C39.7337 36.4529 39.1281 39.6137 38.5317 42.7775C38.4356 43.29 38.2434 43.7187 37.7262 43.92C37.2686 44.1 36.8628 43.9551 36.4799 43.6943C34.1002 42.0773 31.7159 40.4664 29.3408 38.8418C29.1211 38.6923 28.9838 38.674 28.758 38.8402C27.556 39.7265 26.3402 40.5915 25.1274 41.4625C24.2335 42.1047 23.3533 41.7935 23.0726 40.7333C22.4289 38.3063 21.7836 35.8778 21.1505 33.4477C21.0941 33.2311 20.9919 33.1243 20.789 33.0481C18.542 32.1969 16.2996 31.3319 14.051 30.4853C13.5324 30.29 13.1403 29.9987 13 29.4373C13 29.3198 13 29.2008 13 29.0834C13.1297 28.5205 13.5202 28.2291 14.0327 28.0262C21.2848 25.1477 28.5338 22.26 35.7828 19.3753C37.6591 18.6294 39.537 17.885 41.4102 17.1329C41.9441 16.9178 42.4353 16.9422 42.8472 17.3663C42.9982 17.5219 43.0791 17.7446 43.1904 17.9368C43.1904 18.1138 43.1904 18.2907 43.1904 18.4677ZM26.9427 34.334C30.134 36.4987 33.2841 38.6343 36.4692 40.7959C37.6835 34.421 38.8917 28.0888 40.0983 21.7551C40.0785 21.7459 40.0587 21.7383 40.0388 21.7291C35.6836 25.9211 31.3284 30.1131 26.9427 34.334ZM36.7072 21.6696C36.6889 21.6468 36.6706 21.6239 36.6523 21.601C30.2835 24.1363 23.9147 26.6716 17.4986 29.2237C17.6237 29.2771 17.6939 29.3092 17.7671 29.3366C19.2864 29.9193 20.8043 30.5082 22.3282 31.0802C22.8423 31.2724 23.1626 31.605 23.2755 32.145C23.3381 32.4425 23.4265 32.7338 23.5059 33.0267C23.6142 33.4294 23.724 33.8322 23.8216 34.1891C24.0291 33.9328 24.2106 33.6537 24.444 33.4294C28.424 29.5898 32.41 25.7564 36.3976 21.9229C36.4921 21.8298 36.6035 21.7535 36.7072 21.6696ZM24.9856 38.6221C25.6537 38.1416 26.2822 37.6885 26.9336 37.2187C25.9695 36.5627 25.0542 35.9373 24.1084 35.2935C24.4013 36.4071 24.685 37.4856 24.9856 38.6221Z" fill="white"/>
</g>
</g>
</svg>
