<svg width="21" height="22" viewBox="0 0 21 22" fill="none" xmlns="http://www.w3.org/2000/svg">
<rect x="9" y="9" width="3" height="3" fill="#5FC300"/>
<rect x="9" y="9" width="3" height="3" fill="#5FC300"/>
<rect x="9" y="9" width="3" height="3" fill="#5FC300"/>
<rect x="12" y="6" width="3" height="3" fill="#5FC300"/>
<rect x="12" y="6" width="3" height="3" fill="#5FC300"/>
<rect x="12" y="6" width="3" height="3" fill="#5FC300"/>
<rect x="15" y="3" width="3" height="3" fill="#5FC300"/>
<rect x="15" y="3" width="3" height="3" fill="#5FC300"/>
<rect x="15" y="3" width="3" height="3" fill="#5FC300"/>
<rect x="18" width="3" height="3" fill="#5FC300"/>
<rect x="18" width="3" height="3" fill="#5FC300"/>
<rect x="18" width="3" height="3" fill="#5FC300"/>
<rect width="3" height="3" fill="#5FC300"/>
<rect width="3" height="3" fill="#5FC300"/>
<rect width="3" height="3" fill="#5FC300"/>
<rect x="6" y="6" width="3" height="3" fill="#5FC300"/>
<rect x="6" y="6" width="3" height="3" fill="#5FC300"/>
<rect x="6" y="6" width="3" height="3" fill="#5FC300"/>
<rect x="3" y="3" width="3" height="3" fill="#5FC300"/>
<rect x="3" y="3" width="3" height="3" fill="#5FC300"/>
<rect x="3" y="3" width="3" height="3" fill="#5FC300"/>
<rect x="12" y="13" width="3" height="3" transform="rotate(180 12 13)" fill="#5FC300"/>
<rect x="12" y="13" width="3" height="3" transform="rotate(180 12 13)" fill="#5FC300"/>
<rect x="12" y="13" width="3" height="3" transform="rotate(180 12 13)" fill="#5FC300"/>
<rect x="9" y="16" width="3" height="3" transform="rotate(180 9 16)" fill="#5FC300"/>
<rect x="9" y="16" width="3" height="3" transform="rotate(180 9 16)" fill="#5FC300"/>
<rect x="9" y="16" width="3" height="3" transform="rotate(180 9 16)" fill="#5FC300"/>
<rect x="6" y="19" width="3" height="3" transform="rotate(180 6 19)" fill="#5FC300"/>
<rect x="6" y="19" width="3" height="3" transform="rotate(180 6 19)" fill="#5FC300"/>
<rect x="6" y="19" width="3" height="3" transform="rotate(180 6 19)" fill="#5FC300"/>
<rect x="3" y="22" width="3" height="3" transform="rotate(180 3 22)" fill="#5FC300"/>
<rect x="3" y="22" width="3" height="3" transform="rotate(180 3 22)" fill="#5FC300"/>
<rect x="3" y="22" width="3" height="3" transform="rotate(180 3 22)" fill="#5FC300"/>
<rect x="21" y="22" width="3" height="3" transform="rotate(180 21 22)" fill="#5FC300"/>
<rect x="21" y="22" width="3" height="3" transform="rotate(180 21 22)" fill="#5FC300"/>
<rect x="21" y="22" width="3" height="3" transform="rotate(180 21 22)" fill="#5FC300"/>
<rect x="15" y="16" width="3" height="3" transform="rotate(180 15 16)" fill="#5FC300"/>
<rect x="15" y="16" width="3" height="3" transform="rotate(180 15 16)" fill="#5FC300"/>
<rect x="15" y="16" width="3" height="3" transform="rotate(180 15 16)" fill="#5FC300"/>
<rect x="18" y="19" width="3" height="3" transform="rotate(180 18 19)" fill="#5FC300"/>
<rect x="18" y="19" width="3" height="3" transform="rotate(180 18 19)" fill="#5FC300"/>
<rect x="18" y="19" width="3" height="3" transform="rotate(180 18 19)" fill="#5FC300"/>
</svg>
