<svg width="66" height="43" viewBox="0 0 66 43" fill="none" xmlns="http://www.w3.org/2000/svg">
<g clip-path="url(#clip0_0_5292)">
<rect width="11.6088" height="4.75936" transform="matrix(0.951918 -0.306353 0.306389 0.951906 16.6152 17.6797)" fill="#3CFDFF"/>
<rect width="11.6088" height="4.75936" transform="matrix(0.951918 -0.306353 0.306389 0.951906 17.2969 22.1294)" fill="#FFC5F4"/>
<path fill-rule="evenodd" clip-rule="evenodd" d="M15.0088 14.5439V33.1216L30.4579 26.6616V8.08398L15.0088 14.5439ZM25.1364 16.2445L26.1916 15.8034V17.0722L25.1364 17.5133V16.2445ZM24.0707 17.9439L25.1259 17.5028V18.7716L24.0707 19.2127V17.9439ZM19.8276 20.9028L18.7724 21.344V20.0752L19.8276 19.6341V20.9028ZM20.8933 19.2034L19.8381 19.6445V18.3758L20.8933 17.9346V19.2034ZM20.9049 19.2092L21.9602 18.7681V20.0369L20.9049 20.478V19.2092ZM26.2241 21.936L25.1689 22.3771V22.362L25.1573 22.3666V23.5634L24.1241 23.9953L23.1629 24.3981V24.4294L22.1076 24.8705V23.6377L21.1511 24.037V22.7683L22.2063 22.3272V22.3515L23.1408 21.9603V21.9499L24.1438 21.5308V21.5204L25.1991 21.0793V21.0944L26.2241 20.666V21.9348V21.936ZM27.2573 17.9045L26.2021 18.3456V17.0768L27.2573 16.6357V17.9045Z" fill="#787878"/>
<path fill-rule="evenodd" clip-rule="evenodd" d="M15.3934 0L30.0229 5.82612L14.7166 12.2652L0 6.38215L15.3934 0Z" fill="#787878"/>
<path d="M32.9092 25.6377L37.2718 23.7897V22.3364L34.3638 23.568V19.2057L37.2718 17.974V16.5195L32.9092 18.3675V25.6377Z" fill="white"/>
<path d="M39.9316 22.6641L41.3862 22.0477V19.1399L42.8397 18.5235V17.0701L41.3862 17.6854V16.232L42.8397 15.6156V17.0701L44.2943 16.4537V13.5459L39.9316 15.3939V22.6641Z" fill="white"/>
<path d="M44.2944 20.816V17.9082L42.8398 18.5234V21.4324L44.2944 20.816Z" fill="white"/>
<path d="M47.2754 19.5529L48.73 18.9366V16.0287L50.1846 15.4123V18.3202L51.6392 17.7038V10.4336L47.2765 12.2816V19.5518L47.2754 19.5529ZM48.73 13.1209L50.1846 12.5045V13.959L48.73 14.5754V13.1209Z" fill="white"/>
<path d="M54.6396 16.4336L56.0931 15.8172V12.9094L59.0023 11.6778V10.2233L56.0931 11.4549V10.0016L59.0023 8.76877V7.31543L54.6396 9.16344V16.4336Z" fill="white"/>
<path d="M61.4531 6.27673V7.73122L62.9077 7.11483V12.9317L64.3611 12.3153V6.49844L65.8157 5.88321V4.42871L61.4531 6.27673Z" fill="white"/>
<path d="M1.48127 11.6374V10.1747L0.0185547 9.57227V16.8854L1.48127 17.4867V13.1L2.94399 13.7013V12.2387L1.48127 11.6374Z" fill="white"/>
<path d="M5.86897 13.4436L4.40625 12.8411V14.3037L5.86897 14.9062V19.2941L7.33169 19.8965V12.5834L5.86897 11.981V13.4436Z" fill="white"/>
<path d="M2.94434 15.1638L4.40706 15.7663V14.3036L2.94434 13.7012V15.1638Z" fill="white"/>
<path d="M11.4071 14.2621L9.94434 13.6597V20.9716L11.4071 21.5741V14.2621Z" fill="white"/>
<path d="M1.48127 21.0922V19.6296L0.0185547 19.0283V26.3403L1.48127 26.9427V22.5549L2.94399 23.1573V21.6947L1.48127 21.0922Z" fill="white"/>
<path d="M4.40706 23.7597L2.94434 23.1573V24.6199L4.40706 25.2223V28.1476L5.86978 28.7501V21.4369L4.40706 20.8345V23.7597Z" fill="white"/>
<path d="M11.5742 25.249V29.6369L13.0369 30.2382V25.8515L11.5742 25.249Z" fill="white"/>
<path d="M10.1112 24.6466L11.5739 25.2491V23.7865L8.64844 22.5815V29.8947L11.5739 31.0984V29.637L10.1112 29.0345V24.6466Z" fill="white"/>
<path fill-rule="evenodd" clip-rule="evenodd" d="M6.90262 32.1836V32.1801L0.0185547 29.3013V37.579L6.03776 40.0957V40.0992L12.9207 42.978V34.7002L6.90262 32.1836Z" fill="#8DE936"/>
<path d="M15.2295 43.0001L16.64 42.4174V39.5966L18.0505 39.0139V41.8347L19.4609 41.2519V34.2012L15.2307 35.9482V42.999L15.2295 43.0001ZM16.64 36.777L18.0505 36.1943V37.6047L16.64 38.1874V36.777Z" fill="#8DE936"/>
<path d="M22.2806 33.0366L20.8701 33.6193V40.6701L22.2806 40.0874V37.2666L23.6911 36.6851V35.2747L22.2806 35.8574V33.0366Z" fill="#8DE936"/>
<path d="M25.1019 38.9233V36.1025L23.6914 36.6853V39.5049L25.1019 38.9233Z" fill="#8DE936"/>
<path d="M23.6914 35.2749L25.1019 34.6922V31.8726L23.6914 32.4541V35.2749Z" fill="#8DE936"/>
<path d="M26.5117 38.3405L27.9222 37.7577V34.937L29.3327 34.3542V37.175L30.7432 36.5923V29.5415L26.5129 31.2885V38.3393L26.5117 38.3405ZM27.9222 32.1173L29.3327 31.5346V32.945L27.9222 33.5277V32.1173Z" fill="#8DE936"/>
<path d="M37.7941 26.6304L34.9731 27.7947V29.2051L36.3836 28.6223V32.8535L34.9731 33.4362V29.2051L33.5638 29.7878V34.0178L32.1533 34.6005V36.0109L39.2046 33.0984V31.688L37.7941 32.2708V26.6304Z" fill="#8DE936"/>
<path d="M40.6143 32.5167L44.8445 30.7686V29.3582L42.0247 30.5236V29.1132L43.4341 28.5305V27.1213L42.0247 27.7028V26.2925L44.8445 25.1282V23.7178L40.6143 25.4648V32.5167Z" fill="#8DE936"/>
<path d="M47.6663 23.9636V22.5532L46.2559 23.1348V30.1867L47.6663 29.604V25.3728L49.0768 24.7913V23.3809L47.6663 23.9636Z" fill="#8DE936"/>
<path d="M51.8966 22.2156L50.4873 22.7983V24.2087L51.8966 23.626V27.8571L53.3071 27.2744V20.2236L51.8966 20.8052V22.2156Z" fill="#8DE936"/>
<path d="M49.0762 26.2009L50.4867 25.6194V24.209L49.0762 24.7917V26.2009Z" fill="#8DE936"/>
<path d="M58.9474 20.7134L57.5381 21.2961V22.7065L58.9474 22.1238V24.9445L60.3579 24.3618V17.311L58.9474 17.8938V20.7134Z" fill="#8DE936"/>
<path d="M56.1273 19.0581L54.7168 19.6408V26.6916L56.1273 26.1089V24.6997L57.5378 24.1169V22.7065L56.1273 23.2893V19.0581Z" fill="#8DE936"/>
<path d="M61.7686 16.7285V19.5492L63.179 18.9665V17.5561L64.5895 16.9746V18.3838L63.179 18.9665V20.3769L64.5895 19.7942V22.615L66 22.0322V14.9814L61.7686 16.7285Z" fill="#8DE936"/>
<path d="M61.7686 23.7793L63.179 23.1977V20.377L61.7686 20.9597V23.7793Z" fill="#8DE936"/>
</g>
<defs>
<clipPath id="clip0_0_5292">
<rect width="66" height="43" fill="white"/>
</clipPath>
</defs>
</svg>
