<svg width="2957" height="1926" viewBox="0 0 2957 1926" fill="none" xmlns="http://www.w3.org/2000/svg">
<path d="M1476.71 1147.35L1672.53 1064.4V999.104L1542 1054.39V858.62L1672.53 803.281V738.042L1476.71 820.998V1147.35Z" fill="white"/>
<path fill-rule="evenodd" clip-rule="evenodd" d="M1861.79 656.387L1926.66 628.927V958.824L1728.7 1040.58V712.734L1793.89 685.135V688.562L1793.89 688.562V952.202L1861.79 923.435L1861.79 874.543V656.387Z" fill="white"/>
<path d="M2249 822L2450 738.996V671.985L2316 727.303V660.348L2383 632.662V565.652L2316 593.338V526.328L2450 470.955V404L2249 487.004V822Z" fill="white"/>
<path fill-rule="evenodd" clip-rule="evenodd" d="M2055 574.333L2186 518V518.276V577.5V636.804L2119 663V726.394L2055 752.591V839L2119 812.542V725.765L2186 699.293V850.376L1989.24 932.197V602.404L2055 574.287V574.333ZM2055 634.167V688.196L2119 662V606.482L2055 634.167Z" fill="white"/>
<rect width="520.097" height="213.181" transform="matrix(0.951943 -0.306277 0.306466 0.951882 744.407 791.886)" fill="#3CFDFF"/>
<rect width="520.097" height="213.181" transform="matrix(0.951943 -0.306277 0.306466 0.951882 774.969 991.192)" fill="#FFC5F4"/>
<path fill-rule="evenodd" clip-rule="evenodd" d="M672.455 651.428V1483.53L1364.62 1194.19V362.083L672.455 651.428ZM1126.2 727.598L1173.48 707.841V764.67L1126.2 784.427V727.598ZM1078.46 803.717L1125.73 783.959V840.788L1078.46 860.546V803.717ZM888.354 936.249L841.076 956.006V899.177L888.354 879.42V936.249ZM936.101 860.13L888.822 879.888V823.059L936.101 803.301V860.13ZM936.621 860.39L983.899 840.632V897.461L936.621 917.219V860.39ZM1174.94 982.523L1127.66 1002.28V1001.6L1127.14 1001.81V1055.42L1080.85 1074.76L1037.78 1092.8V1094.21L990.504 1113.96V1058.75L947.647 1076.63V1019.8L994.925 1000.04V1001.14L1036.79 983.615V983.147L1081.73 964.377V963.909L1129.01 944.152V944.828L1174.94 925.642V982.471V982.523ZM1221.23 801.949L1173.95 821.707V764.878L1221.23 745.12V801.949Z" fill="#787878"/>
<path fill-rule="evenodd" clip-rule="evenodd" d="M689.67 -6.10352e-05L1345.12 260.956L659.348 549.365L0 285.861L689.67 -6.10352e-05Z" fill="#787878"/>
<path d="M66.3673 521.236V455.724L0.833008 428.739V756.299L66.3673 783.232V586.748L131.902 613.681V548.169L66.3673 521.236Z" fill="white"/>
<path d="M262.969 602.138L197.435 575.153V640.665L262.969 667.65V864.186L328.503 891.17V563.611L262.969 536.626V602.138Z" fill="white"/>
<path d="M131.902 679.193L197.437 706.178V640.666L131.902 613.681V679.193Z" fill="white"/>
<path d="M511.065 638.794L445.53 611.809V939.317L511.065 966.302V638.794Z" fill="white"/>
<path d="M66.3678 944.724V879.212L0.833496 852.279V1179.79L66.3678 1206.77V1010.24L131.902 1037.22V971.709L66.3678 944.724Z" fill="white"/>
<path d="M197.437 1064.21L131.902 1037.22V1102.73L197.437 1129.72V1260.74L262.971 1287.73V960.166L197.437 933.181V1064.21Z" fill="white"/>
<path d="M518.555 1130.91V1327.45L584.089 1354.38V1157.9L518.555 1130.91Z" fill="white"/>
<path d="M453.019 1103.93L518.553 1130.91V1065.4L387.485 1011.43V1338.99L518.553 1392.91V1327.45L453.019 1300.47V1103.93Z" fill="white"/>
<path fill-rule="evenodd" clip-rule="evenodd" d="M309.26 1441.52V1441.37L0.833008 1312.42V1683.19L270.512 1795.91V1796.07L578.887 1925.01V1554.25L309.26 1441.52Z" fill="#8DE936"/>
<g opacity="0.4">
<path d="M682.336 1926L745.53 1899.9V1773.56L808.723 1747.45V1873.8L871.917 1847.7V1531.89L682.388 1610.14V1925.95L682.336 1926ZM745.53 1647.26L808.723 1621.16V1684.33L745.53 1710.44V1647.26Z" fill="#8DE936"/>
<path d="M998.252 1479.74L935.058 1505.84V1821.65L998.252 1795.55V1669.2L1061.45 1643.16V1579.98L998.252 1606.08V1479.74Z" fill="#8DE936"/>
<path d="M1124.64 1743.4V1617.05L1061.45 1643.15V1769.45L1124.64 1743.4Z" fill="#8DE936"/>
<path d="M1061.45 1579.98L1124.64 1553.88V1427.59L1061.45 1453.64V1579.98Z" fill="#8DE936"/>
<path d="M1187.83 1717.3L1251.03 1691.2V1564.85L1314.22 1538.75V1665.1L1377.42 1639V1323.19L1187.89 1401.44V1717.25L1187.83 1717.3ZM1251.03 1438.56L1314.22 1412.46V1475.63L1251.03 1501.73V1438.56Z" fill="#8DE936"/>
<path d="M1693.28 1192.79L1566.89 1244.94V1308.11L1630.08 1282.01V1471.52L1566.89 1497.63V1308.11L1503.75 1334.21V1523.67L1440.56 1549.78V1612.95L1756.47 1482.5V1419.32L1693.28 1445.42V1192.79Z" fill="#8DE936"/>
<path d="M1819.67 1456.45L2009.2 1378.14V1314.97L1882.86 1367.17V1304L1946 1277.9V1214.78L1882.86 1240.83V1177.66L2009.2 1125.51V1062.33L1819.67 1140.58V1456.45Z" fill="#8DE936"/>
<path d="M2135.59 1073.36V1010.18L2072.39 1036.23V1352.09L2135.59 1325.99V1136.48L2198.78 1110.43V1047.26L2135.59 1073.36Z" fill="#8DE936"/>
<path d="M2325.11 995.054L2261.97 1021.15V1084.33L2325.11 1058.23V1247.74L2388.31 1221.64V905.833L2325.11 931.881V995.054Z" fill="#8DE936"/>
<path d="M2198.78 1173.55L2261.97 1147.5V1084.33L2198.78 1110.43V1173.55Z" fill="#8DE936"/>
<path d="M2641.03 927.775L2577.89 953.876V1017.05L2641.03 990.947V1117.29L2704.22 1091.19V775.381L2641.03 801.482V927.775Z" fill="#8DE936"/>
<path d="M2514.69 853.633L2451.5 879.733V1195.54L2514.69 1169.44V1106.32L2577.89 1080.22V1017.05L2514.69 1043.15V853.633Z" fill="#8DE936"/>
<path d="M2767.42 749.28V875.625L2830.61 849.524V786.352L2893.81 760.303V823.423L2830.61 849.524V912.696L2893.81 886.596V1012.94L2957 986.839V671.03L2767.42 749.28Z" fill="#8DE936"/>
<path d="M2767.42 1065.09L2830.61 1039.04V912.697L2767.42 938.797V1065.09Z" fill="#8DE936"/>
</g>
</svg>
