<svg width="102" height="66" viewBox="0 0 102 66" fill="none" xmlns="http://www.w3.org/2000/svg">
<g clip-path="url(#clip0_0_6632)">
<rect width="17.9294" height="7.30981" transform="matrix(0.952528 -0.304452 0.308299 0.951289 25.6777 27.1362)" fill="#3CFDFF"/>
<rect width="17.9294" height="7.30981" transform="matrix(0.952528 -0.304452 0.308299 0.951289 26.7324 33.9658)" fill="#FFC5F4"/>
<path fill-rule="evenodd" clip-rule="evenodd" d="M23.1963 22.3229V50.8375L47.0722 40.9222V12.4077L23.1963 22.3229ZM38.848 24.9332L40.4789 24.2561V26.2035L38.848 26.8806V24.9332ZM37.201 27.5416L38.8319 26.8645V28.8119L37.201 29.489V27.5416ZM30.6436 32.0832L29.0128 32.7602V30.8128L30.6436 30.1358V32.0832ZM32.2906 29.4747L30.6597 30.1518V28.2044L32.2906 27.5273V29.4747ZM32.3085 29.4837L33.9394 28.8066V30.754L32.3085 31.4311V29.4837ZM40.5291 33.6689L38.8983 34.3459V34.3228L38.8803 34.3299V36.1669L37.2836 36.8297L35.7981 37.4479V37.496L34.1672 38.1731V36.2809L32.6889 36.8938V34.9464L34.3197 34.2693V34.3068L35.764 33.7063V33.6903L37.3141 33.0471V33.031L38.9449 32.354V32.3772L40.5291 31.7197V33.6671V33.6689ZM42.1258 27.481L40.495 28.1581V26.2106L42.1258 25.5336V27.481Z" fill="#787878"/>
<path fill-rule="evenodd" clip-rule="evenodd" d="M23.7898 0L46.399 8.94242L22.7438 18.8256L0 9.79586L23.7898 0Z" fill="#787878"/>
<path d="M50.8594 39.3508L57.6016 36.5143V34.2836L53.1074 36.174V29.4784L57.6016 27.588V25.3555L50.8594 28.192V39.3508Z" fill="#FFFCFC"/>
<path d="M61.7119 34.7864L63.9599 33.8403V29.3771L66.2061 28.431V26.2003L63.9599 27.1446V24.9139L66.2061 23.9678V26.2003L68.4541 25.2542V20.791L61.7119 23.6275V34.7864Z" fill="#FFFCFC"/>
<path d="M68.4541 31.95V27.4868L66.2061 28.4311V32.8961L68.4541 31.95Z" fill="#FFFCFC"/>
<path d="M73.0615 30.0113L75.3095 29.0652V24.602L77.5575 23.6559V28.1191L79.8055 27.173V16.0142L73.0633 18.8506V30.0095L73.0615 30.0113ZM75.3095 20.1388L77.5575 19.1927V21.4252L75.3095 22.3713V20.1388Z" fill="#FFFCFC"/>
<path d="M84.4434 25.2239L86.6896 24.2778V19.8146L91.1856 17.9242V15.6917L86.6896 17.5821V15.3514L91.1856 13.4592V11.2285L84.4434 14.065V25.2239Z" fill="#FFFCFC"/>
<path d="M94.9727 9.63385V11.8663L97.2207 10.9202V19.8484L99.4669 18.9023V9.97416L101.715 9.02985V6.79736L94.9727 9.63385Z" fill="#FFFCFC"/>
<path d="M2.28889 17.8616V15.6166L0.0283203 14.6919V25.9167L2.28889 26.8396V20.1065L4.54945 21.0294V18.7845L2.28889 17.8616Z" fill="white"/>
<path d="M9.07014 20.6341L6.80957 19.7094V21.9544L9.07014 22.8791V29.614L11.3307 30.5387V19.3139L9.07014 18.3892V20.6341Z" fill="white"/>
<path d="M4.5498 23.2743L6.81037 24.199V21.954L4.5498 21.0293V23.2743Z" fill="white"/>
<path d="M17.6287 21.89L15.3682 20.9653V32.1883L17.6287 33.1131V21.89Z" fill="white"/>
<path d="M2.28889 32.3735V30.1285L0.0283203 29.2056V40.4286L2.28889 41.3533V34.6184L4.54945 35.5431V33.2982L2.28889 32.3735Z" fill="white"/>
<path d="M6.81037 36.4679L4.5498 35.5432V37.7882L6.81037 38.7129V43.2028L9.07094 44.1275V32.9027L6.81037 31.978V36.4679Z" fill="white"/>
<path d="M17.8867 38.7539V45.4888L20.1473 46.4117V39.6786L17.8867 38.7539Z" fill="white"/>
<path d="M15.6258 37.8293L17.8864 38.754V36.5091L13.3652 34.6597V45.8845L17.8864 47.7321V45.4889L15.6258 44.5642V37.8293Z" fill="white"/>
<path fill-rule="evenodd" clip-rule="evenodd" d="M10.6673 49.3981V49.3928L0.0283203 44.9741V57.6795L9.33073 61.5423V61.5476L19.968 65.9663V53.2609L10.6673 49.3981Z" fill="#8DE936"/>
<path d="M23.5371 66L25.7169 65.1056V60.776L27.8968 59.8816V64.2112L30.0766 63.3168V52.4946L23.5389 55.1761V65.9982L23.5371 66ZM25.7169 56.4483L27.8968 55.5538V57.7186L25.7169 58.613V56.4483Z" fill="#8DE936"/>
<path d="M34.4347 50.7075L32.2549 51.6019V62.4241L34.4347 61.5296V57.2001L36.6145 56.3074V54.1427L34.4347 55.0371V50.7075Z" fill="#8DE936"/>
<path d="M38.7941 59.7426V55.4131L36.6143 56.3075V60.6353L38.7941 59.7426Z" fill="#8DE936"/>
<path d="M36.6143 54.1426L38.7941 53.2482V48.9204L36.6143 49.813V54.1426Z" fill="#8DE936"/>
<path d="M40.9736 58.8482L43.1535 57.9537V53.6242L45.3333 52.7298V57.0593L47.5131 56.1649V45.3428L40.9754 48.0243V58.8464L40.9736 58.8482ZM43.1535 49.2964L45.3333 48.402V50.5668L43.1535 51.4612V49.2964Z" fill="#8DE936"/>
<path d="M58.4089 40.874L54.0493 42.6611V44.8259L56.2291 43.9314V50.4258L54.0493 51.3202V44.8259L51.8712 45.7203V52.2128L49.6914 53.1073V55.272L60.5888 50.8017V48.6369L58.4089 49.5314V40.874Z" fill="#8DE936"/>
<path d="M62.7686 49.9092L69.3063 47.2259V45.0612L64.9484 46.85V44.6852L67.1264 43.7908V41.6278L64.9484 42.5204V40.3556L69.3063 38.5686V36.4038L62.7686 39.0853V49.9092Z" fill="#8DE936"/>
<path d="M73.6662 36.7815V34.6167L71.4863 35.5093V46.3332L73.6662 45.4388V38.9445L75.846 38.0518V35.8871L73.6662 36.7815Z" fill="#8DE936"/>
<path d="M80.2034 34.0984L78.0254 34.9929V37.1576L80.2034 36.2632V42.7576L82.3833 41.8631V31.041L80.2034 31.9337V34.0984Z" fill="#8DE936"/>
<path d="M75.8457 40.2146L78.0255 39.322V37.1572L75.8457 38.0516V40.2146Z" fill="#8DE936"/>
<path d="M91.1009 31.7925L88.9229 32.6869V34.8517L91.1009 33.9573V38.2869L93.2807 37.3924V26.5703L91.1009 27.4647V31.7925Z" fill="#8DE936"/>
<path d="M86.7433 29.252L84.5635 30.1464V40.9685L86.7433 40.0741V37.9111L88.9231 37.0167V34.8519L86.7433 35.7463V29.252Z" fill="#8DE936"/>
<path d="M95.4609 25.6761V30.0057L97.6408 29.1113V26.9465L99.8206 26.0538V28.2168L97.6408 29.1113V31.276L99.8206 30.3816V34.7112L102 33.8168V22.9946L95.4609 25.6761Z" fill="#8DE936"/>
<path d="M95.4609 36.4981L97.6408 35.6054V31.2759L95.4609 32.1703V36.4981Z" fill="#8DE936"/>
</g>
<defs>
<clipPath id="clip0_0_6632">
<rect width="102" height="66" fill="white"/>
</clipPath>
</defs>
</svg>
