<svg width="21" height="39" viewBox="0 0 21 39" fill="none" xmlns="http://www.w3.org/2000/svg">
<rect width="3" height="3" transform="matrix(4.37114e-08 -1 -1 -4.37114e-08 3 21)" fill="white"/>
<rect width="3" height="3" transform="matrix(4.37114e-08 -1 -1 -4.37114e-08 3 21)" fill="white"/>
<rect width="3" height="3" transform="matrix(4.37114e-08 -1 -1 -4.37114e-08 3 21)" fill="white"/>
<rect width="3" height="3" transform="matrix(4.37114e-08 -1 -1 -4.37114e-08 6 18)" fill="white"/>
<rect width="3" height="3" transform="matrix(4.37114e-08 -1 -1 -4.37114e-08 6 18)" fill="white"/>
<rect width="3" height="3" transform="matrix(4.37114e-08 -1 -1 -4.37114e-08 6 18)" fill="white"/>
<rect width="3" height="3" transform="matrix(4.37114e-08 -1 -1 -4.37114e-08 9 15)" fill="white"/>
<rect width="3" height="3" transform="matrix(4.37114e-08 -1 -1 -4.37114e-08 9 15)" fill="white"/>
<rect width="3" height="3" transform="matrix(4.37114e-08 -1 -1 -4.37114e-08 9 15)" fill="white"/>
<rect width="3" height="3" transform="matrix(4.37114e-08 -1 -1 -4.37114e-08 12 12)" fill="white"/>
<rect width="3" height="3" transform="matrix(4.37114e-08 -1 -1 -4.37114e-08 12 12)" fill="white"/>
<rect width="3" height="3" transform="matrix(4.37114e-08 -1 -1 -4.37114e-08 12 12)" fill="white"/>
<rect width="3" height="3" transform="matrix(4.37114e-08 -1 -1 -4.37114e-08 15 9)" fill="white"/>
<rect width="3" height="3" transform="matrix(4.37114e-08 -1 -1 -4.37114e-08 15 9)" fill="white"/>
<rect width="3" height="3" transform="matrix(4.37114e-08 -1 -1 -4.37114e-08 15 9)" fill="white"/>
<rect width="3" height="3" transform="matrix(4.37114e-08 -1 -1 -4.37114e-08 18 6)" fill="white"/>
<rect width="3" height="3" transform="matrix(4.37114e-08 -1 -1 -4.37114e-08 18 6)" fill="white"/>
<rect width="3" height="3" transform="matrix(4.37114e-08 -1 -1 -4.37114e-08 18 6)" fill="white"/>
<rect width="3" height="3" transform="matrix(4.37114e-08 -1 -1 -4.37114e-08 21 3)" fill="white"/>
<rect width="3" height="3" transform="matrix(4.37114e-08 -1 -1 -4.37114e-08 21 3)" fill="white"/>
<rect width="3" height="3" transform="matrix(4.37114e-08 -1 -1 -4.37114e-08 21 3)" fill="white"/>
<rect width="3" height="3" transform="matrix(4.37114e-08 -1 -1 -4.37114e-08 15 33)" fill="white"/>
<rect width="3" height="3" transform="matrix(4.37114e-08 -1 -1 -4.37114e-08 15 33)" fill="white"/>
<rect width="3" height="3" transform="matrix(4.37114e-08 -1 -1 -4.37114e-08 15 33)" fill="white"/>
<rect width="3" height="3" transform="matrix(4.37114e-08 -1 -1 -4.37114e-08 18 36)" fill="white"/>
<rect width="3" height="3" transform="matrix(4.37114e-08 -1 -1 -4.37114e-08 18 36)" fill="white"/>
<rect width="3" height="3" transform="matrix(4.37114e-08 -1 -1 -4.37114e-08 18 36)" fill="white"/>
<rect width="3" height="3" transform="matrix(4.37114e-08 -1 -1 -4.37114e-08 21 39)" fill="white"/>
<rect width="3" height="3" transform="matrix(4.37114e-08 -1 -1 -4.37114e-08 21 39)" fill="white"/>
<rect width="3" height="3" transform="matrix(4.37114e-08 -1 -1 -4.37114e-08 21 39)" fill="white"/>
<rect width="3" height="3" transform="matrix(4.37114e-08 -1 -1 -4.37114e-08 12 30)" fill="white"/>
<rect width="3" height="3" transform="matrix(4.37114e-08 -1 -1 -4.37114e-08 12 30)" fill="white"/>
<rect width="3" height="3" transform="matrix(4.37114e-08 -1 -1 -4.37114e-08 12 30)" fill="white"/>
<rect width="3" height="3" transform="matrix(4.37114e-08 -1 -1 -4.37114e-08 6 24)" fill="white"/>
<rect width="3" height="3" transform="matrix(4.37114e-08 -1 -1 -4.37114e-08 6 24)" fill="white"/>
<rect width="3" height="3" transform="matrix(4.37114e-08 -1 -1 -4.37114e-08 6 24)" fill="white"/>
<rect width="3" height="3" transform="matrix(4.37114e-08 -1 -1 -4.37114e-08 9 27)" fill="white"/>
<rect width="3" height="3" transform="matrix(4.37114e-08 -1 -1 -4.37114e-08 9 27)" fill="white"/>
<rect width="3" height="3" transform="matrix(4.37114e-08 -1 -1 -4.37114e-08 9 27)" fill="white"/>
</svg>
