<svg width="21" height="39" viewBox="0 0 21 39" fill="none" xmlns="http://www.w3.org/2000/svg">
<rect x="18" y="21" width="3" height="3" transform="rotate(-90 18 21)" fill="white"/>
<rect x="18" y="21" width="3" height="3" transform="rotate(-90 18 21)" fill="white"/>
<rect x="18" y="21" width="3" height="3" transform="rotate(-90 18 21)" fill="white"/>
<rect x="15" y="18" width="3" height="3" transform="rotate(-90 15 18)" fill="white"/>
<rect x="15" y="18" width="3" height="3" transform="rotate(-90 15 18)" fill="white"/>
<rect x="15" y="18" width="3" height="3" transform="rotate(-90 15 18)" fill="white"/>
<rect x="12" y="15" width="3" height="3" transform="rotate(-90 12 15)" fill="white"/>
<rect x="12" y="15" width="3" height="3" transform="rotate(-90 12 15)" fill="white"/>
<rect x="12" y="15" width="3" height="3" transform="rotate(-90 12 15)" fill="white"/>
<rect x="9" y="12" width="3" height="3" transform="rotate(-90 9 12)" fill="white"/>
<rect x="9" y="12" width="3" height="3" transform="rotate(-90 9 12)" fill="white"/>
<rect x="9" y="12" width="3" height="3" transform="rotate(-90 9 12)" fill="white"/>
<rect x="6" y="9" width="3" height="3" transform="rotate(-90 6 9)" fill="white"/>
<rect x="6" y="9" width="3" height="3" transform="rotate(-90 6 9)" fill="white"/>
<rect x="6" y="9" width="3" height="3" transform="rotate(-90 6 9)" fill="white"/>
<rect x="3" y="6" width="3" height="3" transform="rotate(-90 3 6)" fill="white"/>
<rect x="3" y="6" width="3" height="3" transform="rotate(-90 3 6)" fill="white"/>
<rect x="3" y="6" width="3" height="3" transform="rotate(-90 3 6)" fill="white"/>
<rect y="3" width="3" height="3" transform="rotate(-90 0 3)" fill="white"/>
<rect y="3" width="3" height="3" transform="rotate(-90 0 3)" fill="white"/>
<rect y="3" width="3" height="3" transform="rotate(-90 0 3)" fill="white"/>
<rect x="6" y="33" width="3" height="3" transform="rotate(-90 6 33)" fill="white"/>
<rect x="6" y="33" width="3" height="3" transform="rotate(-90 6 33)" fill="white"/>
<rect x="6" y="33" width="3" height="3" transform="rotate(-90 6 33)" fill="white"/>
<rect x="3" y="36" width="3" height="3" transform="rotate(-90 3 36)" fill="white"/>
<rect x="3" y="36" width="3" height="3" transform="rotate(-90 3 36)" fill="white"/>
<rect x="3" y="36" width="3" height="3" transform="rotate(-90 3 36)" fill="white"/>
<rect y="39" width="3" height="3" transform="rotate(-90 0 39)" fill="white"/>
<rect y="39" width="3" height="3" transform="rotate(-90 0 39)" fill="white"/>
<rect y="39" width="3" height="3" transform="rotate(-90 0 39)" fill="white"/>
<rect x="9" y="30" width="3" height="3" transform="rotate(-90 9 30)" fill="white"/>
<rect x="9" y="30" width="3" height="3" transform="rotate(-90 9 30)" fill="white"/>
<rect x="9" y="30" width="3" height="3" transform="rotate(-90 9 30)" fill="white"/>
<rect x="15" y="24" width="3" height="3" transform="rotate(-90 15 24)" fill="white"/>
<rect x="15" y="24" width="3" height="3" transform="rotate(-90 15 24)" fill="white"/>
<rect x="15" y="24" width="3" height="3" transform="rotate(-90 15 24)" fill="white"/>
<rect x="12" y="27" width="3" height="3" transform="rotate(-90 12 27)" fill="white"/>
<rect x="12" y="27" width="3" height="3" transform="rotate(-90 12 27)" fill="white"/>
<rect x="12" y="27" width="3" height="3" transform="rotate(-90 12 27)" fill="white"/>
</svg>
