<svg width="37" height="44" viewBox="0 0 37 44" fill="none" xmlns="http://www.w3.org/2000/svg">
<path d="M36.3536 40.3536C36.5488 40.1583 36.5488 39.8417 36.3536 39.6464L33.1716 36.4645C32.9763 36.2692 32.6597 36.2692 32.4645 36.4645C32.2692 36.6597 32.2692 36.9763 32.4645 37.1716L35.2929 40L32.4645 42.8284C32.2692 43.0237 32.2692 43.3403 32.4645 43.5355C32.6597 43.7308 32.9763 43.7308 33.1716 43.5355L36.3536 40.3536ZM36 39.5H21V40.5H36V39.5ZM1.5 20V0H0.5V20H1.5ZM21 39.5C10.2304 39.5 1.5 30.7696 1.5 20H0.5C0.5 31.3218 9.67816 40.5 21 40.5V39.5Z" fill="#8DE837"/>
</svg>
