<?xml version="1.0" standalone="no"?>
<!DOCTYPE svg PUBLIC "-//W3C//DTD SVG 20010904//EN"
 "http://www.w3.org/TR/2001/REC-SVG-20010904/DTD/svg10.dtd">
<svg version="1.0" xmlns="http://www.w3.org/2000/svg"
 width="260.000000pt" height="260.000000pt" viewBox="0 0 260.000000 260.000000"
 preserveAspectRatio="xMidYMid meet">
<metadata>
Created by potrace 1.14, written by Peter Selinger 2001-2017
</metadata>
<g transform="translate(0.000000,260.000000) scale(0.100000,-0.100000)"
fill="#000000" stroke="none">
<path d="M1150 2593 c-290 -45 -515 -147 -713 -323 -291 -260 -441 -607 -432
-1000 4 -148 5 -156 31 -270 22 -92 15 -70 57 -180 65 -175 197 -361 347 -492
195 -171 408 -271 672 -316 84 -14 348 -7 438 12 315 67 571 223 769 471 139
173 228 378 266 610 13 79 13 328 1 390 -4 17 -11 55 -17 85 -30 152 -122 356
-219 485 -211 282 -502 460 -850 522 -34 6 -319 11 -350 6z"/>
</g>
</svg>
