<svg width="12" height="21" viewBox="0 0 12 21" fill="none" xmlns="http://www.w3.org/2000/svg">
<rect x="9" y="12" width="3" height="3" transform="rotate(-90 9 12)" fill="#8DE936"/>
<rect x="9" y="12" width="3" height="3" transform="rotate(-90 9 12)" fill="#8DE936"/>
<rect x="9" y="12" width="3" height="3" transform="rotate(-90 9 12)" fill="#8DE936"/>
<rect x="6" y="9" width="3" height="3" transform="rotate(-90 6 9)" fill="#8DE936"/>
<rect x="6" y="9" width="3" height="3" transform="rotate(-90 6 9)" fill="#8DE936"/>
<rect x="6" y="9" width="3" height="3" transform="rotate(-90 6 9)" fill="#8DE936"/>
<rect x="3" y="6" width="3" height="3" transform="rotate(-90 3 6)" fill="#8DE936"/>
<rect x="3" y="6" width="3" height="3" transform="rotate(-90 3 6)" fill="#8DE936"/>
<rect x="3" y="6" width="3" height="3" transform="rotate(-90 3 6)" fill="#8DE936"/>
<rect y="3" width="3" height="3" transform="rotate(-90 0 3)" fill="#8DE936"/>
<rect y="3" width="3" height="3" transform="rotate(-90 0 3)" fill="#8DE936"/>
<rect y="3" width="3" height="3" transform="rotate(-90 0 3)" fill="#8DE936"/>
<rect y="21" width="3" height="3" transform="rotate(-90 0 21)" fill="#8DE936"/>
<rect y="21" width="3" height="3" transform="rotate(-90 0 21)" fill="#8DE936"/>
<rect y="21" width="3" height="3" transform="rotate(-90 0 21)" fill="#8DE936"/>
<rect x="6" y="15" width="3" height="3" transform="rotate(-90 6 15)" fill="#8DE936"/>
<rect x="6" y="15" width="3" height="3" transform="rotate(-90 6 15)" fill="#8DE936"/>
<rect x="6" y="15" width="3" height="3" transform="rotate(-90 6 15)" fill="#8DE936"/>
<rect x="3" y="18" width="3" height="3" transform="rotate(-90 3 18)" fill="#8DE936"/>
<rect x="3" y="18" width="3" height="3" transform="rotate(-90 3 18)" fill="#8DE936"/>
<rect x="3" y="18" width="3" height="3" transform="rotate(-90 3 18)" fill="#8DE936"/>
</svg>
