<svg width="1440" height="781" viewBox="0 0 1440 781" fill="none" xmlns="http://www.w3.org/2000/svg">
<g clip-path="url(#clip0_0_4141)">
<path d="M7.75212 142.574H0V155.423H7.75212V142.574Z" fill="#200000"/>
<path d="M0 207.511H21.344C21.3492 203.538 21.3492 199.564 21.3492 194.842H0V207.511Z" fill="#200000"/>
<path d="M0 233.666V273.136H8.27133V260.297H20.9996V247.069C25.8421 247.069 30.0061 247.069 34.1649 247.069V272.705H46.8212V298.983H34.1546C34.0775 303.418 34.0055 307.858 33.9232 312.304H21.3183V298.998H8.27133V285.975H0V781.005H1443V325.142H1430.17V299.429C1425.57 299.214 1421.64 299.034 1416.81 298.808V273.141H1404.35V246.889H1416.81V234.076H1403.63V195.366H1364.6V207.793H1338.39V182.173H1325.61V207.562C1320.94 207.824 1316.99 208.04 1313.03 208.261V234.087H1325.48V246.412H1299.25V208.384H1286.12V221.176H1260.22V247.1H1234.39C1234.32 251.365 1234.25 255.631 1234.17 259.892H1208.53C1208.32 264.394 1208.14 268.347 1207.94 272.654H1195.49V246.874H1168.98V285.543H1156.14V246.889C1151.7 246.812 1147.25 246.74 1142.81 246.658V234.071H1156.13C1156.06 229.728 1156 225.391 1155.94 221.048C1147.3 221.048 1138.68 221.048 1130.05 221.048V233.465H1116.8V221.048H1077.51V247.1H1038.74V285.549H1025.49V247.1H999.278V234.081H986.586V247.315H973.195V259.712C968.753 259.933 964.79 260.128 960.096 260.364V273.439H933.987V285.595H908.083V273.141H869.543V247.382H894.799V259.912H908.083V234.061H895.051V221.043H868.87V195.371H843.09V207.809H855.545V233.861H830.3V246.643H842.493V259.671C838.509 259.887 834.551 260.102 830.279 260.333V272.73H842.848V285.944C838.854 285.944 834.849 285.944 830.12 285.944V311.693H817.083V299.403H803.722V286.19H791.261V260.262H816.322V234.061H803.954V247.094H764.802C764.664 251.458 764.525 255.816 764.381 260.19C760.176 260.164 755.971 260.138 751.766 260.113V273.136H738.734V286.406H751.277V299.244H712.193V311.734H699.346V259.681H686.829V233.809H712.419V208.009H686.726V220.822H673.299V233.861H660.241C660.169 238.291 660.102 242.721 660.02 247.161C655.81 247.079 651.6 246.992 647.395 246.91C647.395 242.557 647.405 238.203 647.405 233.85H621.732V221.048H647.405C647.338 216.705 647.271 212.357 647.21 208.014H634.163V195.001H620.967V208.024H608.274V221.038H582.185C582.113 225.38 582.047 229.718 581.975 234.061H594.641V259.918H581.975V272.874H594.744V285.513H569.144V259.907H556.246V286.19H543.086V298.633H517.11V260.369H503.729V247.105H425.662C425.524 251.468 425.385 255.831 425.241 260.2H412.425V247.105H399.332V260.164H386.82C386.588 255.975 386.347 251.766 386.064 246.838H373.073V234.338H360.633C360.422 238.64 360.227 242.593 359.996 247.3H320.988V273.192H308.049V285.944C303.87 285.944 299.68 285.944 294.771 285.944V273.439H281.95C281.945 277.576 281.94 281.714 281.94 286.324H268.888V311.57H255.779V299.378C251.337 299.162 247.364 298.972 242.67 298.741V286.411H217.193C216.957 290.687 216.741 294.64 216.525 298.587H203.432V285.769H191.248V246.874H203.725V234.071H190.441V221.32H177.579V259.887H151.768C151.768 255.713 151.768 251.53 151.768 246.638H164.306V233.799H151.31V220.714H112.37V195.011H86.5534V234.256H99.6466V246.663C104.073 246.905 108.041 247.115 112.02 247.331V260.128H86.5277V272.874H73.64V285.502H60.2332V260.113H47.1913V247.094C42.9143 247.017 38.6424 246.94 34.3705 246.863C34.3705 242.7 34.3705 238.527 34.3705 233.66H0V233.666ZM1417.04 338.725H1429.46V350.763H1417.04V338.725ZM1377.38 324.773H1365.3V298.947H1377.39C1377.38 307.422 1377.38 315.917 1377.38 324.773ZM1390.95 299.214C1394.92 299.214 1398.9 299.214 1403.37 299.214V311.652H1390.95V299.214ZM1390.74 299.003C1386.37 298.926 1381.98 298.849 1377.6 298.772V286.503H1390.74V299.003ZM1390.31 259.543H1377.86C1377.86 255.375 1377.86 251.227 1377.86 247.074H1390.31V259.543ZM1352.22 221.186H1364.82C1364.82 216.33 1364.82 212.157 1364.82 207.999H1390.28V220.724H1377.65V246.874H1352.22V221.192L1352.22 221.186ZM1339.18 260.482H1351.34V272.7H1339.18V260.482ZM1338.06 390.13H1326.15V377.728H1338.06V390.13ZM1338.39 337.719H1325.99V325.722H1338.39V337.719ZM1325.69 221.453H1338.18V233.886C1334 233.886 1329.85 233.886 1325.69 233.886V221.453ZM1312.68 273.162C1316.67 273.162 1320.66 273.162 1325.11 273.162V298.613H1312.68V273.157V273.162ZM1300.03 260.487H1312.48V272.956H1300.03V260.487ZM1299.79 312.529H1312.21V324.603H1299.79V312.529ZM1285.95 324.685H1273.82V312.442H1285.95V324.685ZM1299.06 350.799H1286.81V338.689H1299.06V350.799ZM1221.75 273.136H1234.41C1234.4 268.788 1234.39 264.445 1234.38 260.097H1260.29V273.151H1273.26V285.826H1298.95V298.967H1234.42C1234.42 294.635 1234.42 290.302 1234.41 285.969H1221.76V273.141L1221.75 273.136ZM1221.73 299.167C1225.9 299.167 1230.05 299.167 1234.21 299.167V311.6H1221.73V299.167ZM1221.58 351.712H1233.84V363.822H1221.58V351.712ZM1182.46 299.624H1207.91V324.737H1182.46V299.624ZM1143.5 325.584H1168.72V337.899H1156.39C1156.15 342.59 1155.94 346.553 1155.72 350.835H1143.5V325.578V325.584ZM1116.39 324.67H1103.98V312.232C1107.95 312.232 1111.93 312.232 1116.39 312.232V324.67ZM1129.55 298.757H1117.42V286.519H1129.55V298.757ZM1103.97 246.838H1142.59C1142.58 255.339 1142.58 263.845 1142.58 272.689H1117.22V259.882H1103.97C1103.97 255.903 1103.97 251.904 1103.97 246.838ZM1091.28 260.092C1095.46 260.092 1099.61 260.092 1103.77 260.092V272.525H1091.28V260.092ZM1090.63 299.527H1103.77V312.026C1099.39 311.949 1095.01 311.872 1090.63 311.795V299.527ZM1077.85 311.97H1090.43C1090.41 316.092 1090.41 320.24 1090.41 325.065H1077.86V311.97H1077.85ZM1052.22 273.5H1077.41V285.723H1052.22V273.5ZM1052.21 325.265H1077.65C1077.65 333.581 1077.65 341.897 1077.65 350.696H1065.06C1064.85 346.723 1064.63 342.77 1064.39 338.345H1052.2V325.265H1052.21ZM1025.94 377.579H1038.1V389.797H1025.94V377.579ZM999.885 325.717H1012.28V337.714H999.885V325.717ZM973.842 325.27H985.897V337.673H973.842V325.27ZM960.682 286.437H972.845V298.582H960.682V286.437ZM947.856 351.656H960.019V363.873H947.856V351.656ZM933.694 351.05H921.788V338.648H933.694V351.05ZM908.283 299.583H933.807V312.032H908.283V299.583ZM895.622 312.237H908.078C908.078 320.522 908.078 328.812 908.078 337.626H895.622V312.237ZM869.369 286.55H894.712V298.7H869.369V286.55ZM856.471 325.522H868.484V337.904H856.471V325.522ZM855.504 286.144V298.613H843.054C843.054 294.445 843.054 290.297 843.054 286.144H855.504ZM842.426 363.73H830.521V351.327H842.426V363.73ZM830.387 325.532H842.642V337.642H830.387V325.532ZM791.374 351.445H803.388V363.827H791.374V351.445ZM764.561 260.4C768.72 260.41 772.889 260.41 777.397 260.41V272.464H764.561V260.4ZM777.412 286.406V298.551H765.178V286.406H777.412ZM751.786 312.565H790.418V324.803H777.921V337.775H765.059V325.009H751.781C751.781 321.01 751.781 317.006 751.781 312.565H751.786ZM739.094 325.214H751.581V337.647H739.094V325.214ZM712.928 325.466H725.055V337.703H712.928V325.466ZM699.994 351.497H712.157V363.642H699.994V351.497ZM621.141 285.543H608.655V273.11C612.829 273.11 616.983 273.11 621.141 273.11V285.543ZM672.887 324.66H660.437V312.196H672.887V324.66ZM660.21 247.377C664.38 247.387 668.564 247.387 673.021 247.387V285.749H660.21V247.382V247.377ZM660.226 298.772V311.99C651.898 311.99 643.57 311.99 634.759 311.99V286.483H647.117V298.772H660.226ZM608.619 247.11H647.189V259.723H634.476V272.905H621.337C621.337 268.927 621.337 264.943 621.337 260.246H608.614V247.105L608.619 247.11ZM582.54 299.465H607.858V311.852H582.54V299.465ZM556.534 312.576H568.696V324.793H556.534V312.576ZM556.497 351.615H568.917V363.653H556.497V351.615ZM504.166 338.689H516.4V350.835H504.166V338.689ZM425.441 337.657H412.986V325.26H425.441C425.441 329.228 425.441 333.196 425.441 337.657ZM438.344 363.76H425.945V351.764H438.344V363.76ZM477.177 376.743H465.122V364.34H477.177V376.743ZM477.655 338.073H465.204V325.609H477.655V338.073ZM490.275 350.717H477.866V338.278H490.275V350.717ZM452.235 273.552H490.317V298.947H452.235V273.552ZM438.679 325.224H451.129V337.688H438.679V325.224ZM438.473 325.019C434.196 325.029 429.919 325.045 425.647 325.055V312.612H438.473V325.019ZM425.411 260.4C429.569 260.41 433.738 260.41 438.247 260.41V272.464H425.411V260.4ZM438.098 286.175V298.998H399.682V311.57H386.557V286.175H438.098ZM373.906 260.333C378.286 260.333 382.44 260.333 386.604 260.339C386.521 268.88 386.434 277.428 386.352 285.969H373.906V260.333ZM360.474 299.629H372.894V311.518H360.474V299.629ZM347.648 338.453H359.847V350.763H347.648V338.453ZM333.763 286.144V311.718H321.554V298.957H308.275C308.26 294.686 308.25 290.415 308.234 286.144H333.758H333.763ZM295.588 299.162C299.762 299.162 303.916 299.162 308.075 299.162V311.595H295.588V299.162ZM295.393 364.623H307.813V376.696H295.393V364.623ZM269.453 338.515H281.78V350.696H269.453V338.515ZM98.9732 376.815H86.7744V364.505H98.9732V376.815ZM138.073 376.779H125.941V364.536H138.073V376.779ZM112.627 286.252H125.494V234.302H138.31V260.082C143.198 260.082 147.383 260.082 151.552 260.082V272.849H164.409V285.692H177.24V299.06H125.648V311.975H112.622V286.247L112.627 286.252ZM86.5379 312.186C95.349 312.186 103.888 312.186 112.421 312.186V325.004H86.5379C86.5379 321.01 86.5379 317.001 86.5379 312.186ZM73.8456 325.214C78.0199 325.214 82.1735 325.214 86.3323 325.214V337.647H73.8456V325.214ZM59.9556 312.514V324.572H34.0929V312.509C42.5853 312.519 51.0931 312.519 59.9556 312.519V312.514Z" fill="#200000"/>
<path d="M1417.01 234.076V220.94H1443V286.067H1429.67V272.941H1416.81L1417.01 273.141V246.889L1416.81 247.089H1429.46V233.861H1416.81L1417.01 234.071V234.076Z" fill="#200000"/>
<path d="M1443 168.836H1430.44V155.813H1443V168.836Z" fill="#200000"/>
<path d="M412.62 247.105V234.189H399.856C399.604 229.528 399.388 225.575 399.152 221.166H386.974V195.391H438.73C438.73 199.549 438.73 203.774 438.73 207.999C430.171 207.999 421.611 207.999 413.001 207.999V220.447H438.524V207.793H451.499V195.278H464.15V220.776H451.921V233.65H425.467V247.11L425.667 246.899H412.42L412.62 247.11V247.105Z" fill="#200000"/>
<path d="M516.472 181.521V194.467H504.345V221.048H516.976L516.775 220.837V234.199H529.37V246.884H503.728L503.929 247.094V234.112H478.133V221.279H490.311V208.178H478.313V195.078H490.501V181.706C499.559 181.706 508.129 181.706 516.703 181.716C516.714 181.726 516.472 181.516 516.472 181.516V181.521Z" fill="#200000"/>
<path d="M516.971 221.053V208.209H555.737V195.001H569.149L568.948 194.791V208.168H581.99V221.043L582.191 220.842H555.649V233.583H542.787V220.842H516.771L516.971 221.053Z" fill="#200000"/>
<path d="M138.721 168.918V156.003H177.348C177.605 151.357 177.826 147.41 178.063 143.139H203.272V155.628H190.822V181.526H178.016V168.708H138.521L138.726 168.913L138.721 168.918Z" fill="#200000"/>
<path d="M281.966 233.886V246.75H294.689V259.979H282.403C282.166 264.938 281.961 269.178 281.75 273.434C281.745 273.444 281.95 273.203 281.945 273.213C273.581 273.223 265.223 273.223 256.108 273.223V246.894L255.897 247.094H269.145V233.866L268.944 234.076C273.355 234.081 277.761 234.086 282.171 234.092L281.966 233.886Z" fill="#200000"/>
<path d="M777.675 221.058H790.511V208.127H803.97V194.801L803.764 195.006H829.822V208.009L830.033 207.809H816.672V221.227H803.738V234.061L803.949 233.861H777.876V220.847L777.67 221.053L777.675 221.058Z" fill="#200000"/>
<path d="M295.239 208.014V195.36H333.83V233.604H321.534V220.827H308.075L308.276 221.037V207.809H295.028L295.239 208.009V208.014Z" fill="#200000"/>
<path d="M1090.73 181.983H1116.61V195.017H1130.03L1129.83 194.811C1129.83 203.558 1129.84 212.306 1129.85 221.053L1130.05 220.842H1116.8L1117 221.053V208.214H1104.08V194.765H1090.73L1090.94 194.97C1090.94 190.576 1090.94 186.177 1090.94 181.783L1090.74 181.988L1090.73 181.983Z" fill="#200000"/>
<path d="M47.387 247.105V234.199H59.9765C60.213 229.543 60.4135 225.596 60.6345 221.31H73.0132V246.709H86.3224V260.128L86.5229 259.918H60.2335L60.434 260.118V246.889H47.1865L47.387 247.1V247.105Z" fill="#200000"/>
<path d="M1168.98 221.053H1194.89V208.04H1221.33L1221.13 207.834C1221.13 212.234 1221.13 216.638 1221.14 221.037L1221.35 220.837H1208.1V234.066L1208.3 233.866C1195.19 233.938 1182.08 234.004 1168.97 234.076C1169.04 229.667 1169.11 225.252 1169.17 220.842L1168.97 221.053H1168.98Z" fill="#200000"/>
<path d="M255.876 194.811V207.752H243.225V221.089C234.177 221.089 225.613 221.089 217.038 221.078C217.028 221.068 217.27 221.279 217.27 221.279V208.327H229.628V195.016H256.082L255.876 194.811Z" fill="#200000"/>
<path d="M934.753 207.706H947.163V195.412H959.922V233.547H947.527V221.258H934.758V207.711L934.753 207.706Z" fill="#200000"/>
<path d="M1025.93 233.563H1012.95V221.191H999.937V208.281H1025.74C1025.74 216.71 1025.74 225.247 1025.73 233.794C1025.72 233.804 1025.93 233.563 1025.93 233.563H1025.93Z" fill="#200000"/>
<path d="M1221.14 221.037H1234.2V247.105L1234.4 246.894H1208.31V233.871L1208.11 234.071H1221.35V220.842L1221.14 221.042L1221.14 221.037Z" fill="#200000"/>
<path d="M216.751 246.894V259.851H229.521V272.489H203.92V246.884L203.72 247.094H216.967L216.756 246.894H216.751Z" fill="#200000"/>
<path d="M738.734 272.946H713.016V247.377H725.235V260.128H738.719L738.518 259.918V273.146L738.729 272.946H738.734Z" fill="#200000"/>
<path d="M738.724 260.128V234.482H764.617V247.105L764.818 246.894H751.57V260.123L751.771 259.923H738.523L738.724 260.133V260.128Z" fill="#200000"/>
<path d="M373.048 207.66V220.591H347.822V195.319H360.18V207.66H373.048Z" fill="#200000"/>
<path d="M282.171 234.092V208.009H295.239L295.028 207.809V221.038H308.276L308.075 220.827C308.075 224.898 308.075 228.969 308.075 233.886C299.182 233.886 290.571 233.886 281.966 233.886L282.171 234.092Z" fill="#200000"/>
<path d="M99.5493 142.666H86.6719V155.685H73.2959L73.5015 155.89V130.269H99.3436V142.872L99.5493 142.666Z" fill="#200000"/>
<path d="M1247.26 116.856H1259.91V142.364H1234.65V130.069H1247.47V116.646L1247.26 116.851L1247.26 116.856Z" fill="#200000"/>
<path d="M1403.95 129.643H1378.33V116.979H1390.95V103.627L1390.74 103.833H1403.74V129.848L1403.95 129.643Z" fill="#200000"/>
<path d="M1156.13 221.053V195.016H1169.16L1168.96 194.811C1168.96 203.558 1168.97 212.306 1168.98 221.053L1169.18 220.842H1155.93L1156.13 221.053Z" fill="#200000"/>
<path d="M921.361 260.097V247.479H946.853V259.892H921.155L921.361 260.097Z" fill="#200000"/>
<path d="M777.88 220.853H752.208V208.384H777.675C777.675 212.614 777.675 216.833 777.675 221.058L777.88 220.853Z" fill="#200000"/>
<path d="M47.1708 207.834V220.427H21.5292C21.5292 216.284 21.5292 211.905 21.5343 207.521C21.5446 207.511 21.3338 207.752 21.339 207.742C30.0215 207.834 38.699 207.937 47.3764 208.04L47.1708 207.834Z" fill="#200000"/>
<path d="M973.339 181.983H985.975V207.439H973.545V181.777L973.339 181.983Z" fill="#200000"/>
<path d="M738.502 194.811V207.819H712.424L712.635 208.019V194.791L712.434 195.001C721.189 195.001 729.948 195.011 738.708 195.016L738.502 194.811Z" fill="#200000"/>
<path d="M595.042 181.978H608.084V208.03L608.284 207.819H595.242V181.767L595.042 181.978Z" fill="#200000"/>
<path d="M138.947 207.506V195.417H164.203V207.506H138.947Z" fill="#200000"/>
<path d="M1012.87 194.4V182.234H1038.06V194.4H1012.87Z" fill="#200000"/>
<path d="M660.473 194.986V181.973H686.546L686.346 181.762V194.786H660.257L660.468 194.986H660.473Z" fill="#200000"/>
<path d="M582.206 181.962V155.941H595.227L595.022 155.736C595.027 164.483 595.037 173.23 595.042 181.978L595.243 181.767H581.995L582.206 181.967V181.962Z" fill="#200000"/>
<path d="M412.143 181.547H386.948V169.273H412.143V181.547Z" fill="#200000"/>
<path d="M334.822 155.931H346.743V181.346H334.822V155.931Z" fill="#200000"/>
<path d="M1038.9 168.261V156.26H1064.33V168.261H1038.9Z" fill="#200000"/>
<path d="M372.945 168.718H360.916V143.313H372.945V168.718Z" fill="#200000"/>
<path d="M634.836 116.856H646.757V142.271H634.836V116.856Z" fill="#200000"/>
<path d="M347.031 130.295V142.374H321.574V130.295H347.031Z" fill="#200000"/>
<path d="M1338.07 129.504H1326.05V104.104H1338.07V129.504Z" fill="#200000"/>
<path d="M843.311 116.343V104.223H868.598V116.343H843.311Z" fill="#200000"/>
<path d="M360.623 116.204V104.125H386.08V116.204H360.623Z" fill="#200000"/>
<path d="M385.884 64.3774H373.818V38.957H385.884V64.3774Z" fill="#200000"/>
<path d="M921.156 259.892V272.946H908.083L908.294 273.146V259.918L908.083 260.118C912.509 260.113 916.935 260.107 921.356 260.097L921.151 259.892H921.156Z" fill="#200000"/>
<path d="M1025.69 247.105C1025.77 242.598 1025.84 238.09 1025.93 233.573C1025.93 233.563 1025.73 233.804 1025.73 233.794C1030.07 233.886 1034.39 233.989 1038.72 234.092L1038.52 233.886L1038.54 247.105L1038.74 246.894H1025.49L1025.69 247.105Z" fill="#200000"/>
<path d="M256.108 246.894H243.451V234.076H256.092L255.892 233.866V247.094L256.102 246.894H256.108Z" fill="#200000"/>
<path d="M216.766 234.076H229.412V246.894H216.751L216.962 247.094V233.866L216.761 234.076H216.766Z" fill="#200000"/>
<path d="M1038.72 234.091V221.453H1051.21V233.886C1046.97 233.886 1042.74 233.886 1038.52 233.886L1038.72 234.091Z" fill="#200000"/>
<path d="M986.586 233.881H973.93V221.412H986.38C986.38 225.647 986.38 229.867 986.38 234.086L986.586 233.881Z" fill="#200000"/>
<path d="M908.098 221.053H920.744V233.871H908.083L908.294 234.071V220.842L908.093 221.053H908.098Z" fill="#200000"/>
<path d="M256.092 234.076V221.438H268.939V234.076L269.139 233.866H255.892L256.092 234.076Z" fill="#200000"/>
<path d="M203.914 234.076V221.263C208.469 221.263 212.859 221.263 217.254 221.274C217.265 221.284 217.023 221.073 217.033 221.078C216.951 225.416 216.853 229.749 216.761 234.076L216.961 233.866H203.714L203.914 234.076Z" fill="#200000"/>
<path d="M908.083 207.819C908.083 212.229 908.094 216.643 908.099 221.053L908.299 220.842H895.052L895.252 221.053C895.252 216.643 895.263 212.229 895.263 207.819L895.052 208.019H908.299L908.088 207.819H908.083Z" fill="#200000"/>
<path d="M829.821 208.014H843.084L842.873 207.814V220.447H830.032V207.814L829.821 208.014Z" fill="#200000"/>
<path d="M1260.31 195.011H1272.93V207.449H1260.51V194.806L1260.31 195.011Z" fill="#200000"/>
<path d="M1221.34 208.04V195.401H1233.83V207.834C1229.59 207.834 1225.36 207.834 1221.13 207.834L1221.34 208.04Z" fill="#200000"/>
<path d="M1090.73 194.765V207.403H1078.24V194.97C1082.48 194.97 1086.71 194.97 1090.93 194.97L1090.73 194.765Z" fill="#200000"/>
<path d="M1052 207.414V195.268H1064.16V207.414H1052Z" fill="#200000"/>
<path d="M908.098 195.001H920.744V207.819H908.083L908.294 208.019V194.791L908.093 195.001H908.098Z" fill="#200000"/>
<path d="M895.262 207.819H882.605V195.001C886.785 195.001 891.016 195.001 895.246 195.001L895.046 194.791V208.019L895.257 207.819H895.262Z" fill="#200000"/>
<path d="M647.22 195.001C651.636 195.001 656.057 194.991 660.473 194.986L660.262 194.785C660.334 199.195 660.401 203.605 660.473 208.009C656.052 207.942 651.636 207.875 647.215 207.809L647.415 208.009V194.78L647.215 194.991L647.22 195.001Z" fill="#200000"/>
<path d="M47.3765 208.04V195.401H59.8632V207.834C55.6221 207.834 51.3965 207.834 47.1709 207.834L47.3765 208.04Z" fill="#200000"/>
<path d="M1417.05 194.298V182.409H1429.47V194.298H1417.05Z" fill="#200000"/>
<path d="M1260.51 194.806H1247.86V182.337H1260.31C1260.31 186.572 1260.31 190.792 1260.31 195.011L1260.51 194.806Z" fill="#200000"/>
<path d="M1169.16 195.017V182.378H1181.65V194.811C1177.41 194.811 1173.18 194.811 1168.96 194.811L1169.16 195.017Z" fill="#200000"/>
<path d="M1130.03 195.017V182.378H1142.52V194.811C1138.28 194.811 1134.05 194.811 1129.83 194.811L1130.03 195.017Z" fill="#200000"/>
<path d="M908.078 181.783C908.083 186.187 908.094 190.592 908.099 195.001L908.299 194.791H895.052L895.252 195.001V181.988H908.284L908.078 181.783Z" fill="#200000"/>
<path d="M803.969 194.806H791.312V182.337H803.763C803.763 186.572 803.763 190.792 803.763 195.011L803.969 194.806Z" fill="#200000"/>
<path d="M764.371 182.265H777.403V194.318H764.566C764.566 190.412 764.566 186.223 764.577 182.034C764.587 182.024 764.376 182.265 764.376 182.265H764.371Z" fill="#200000"/>
<path d="M738.709 195.017V181.993H751.75L751.545 181.788V194.811C747.011 194.811 742.754 194.811 738.503 194.811L738.709 195.017Z" fill="#200000"/>
<path d="M699.393 181.978H712.434V195.001L712.635 194.791H699.593V181.767L699.393 181.978Z" fill="#200000"/>
<path d="M634.368 195.001V182.363H647.215V195.001L647.415 194.791H634.168L634.368 195.001Z" fill="#200000"/>
<path d="M569.149 195.001C569.159 190.597 569.169 186.187 569.174 181.783L568.969 181.988C573.38 181.983 577.79 181.973 582.201 181.968L581.99 181.767V194.791H568.948L569.149 195.001Z" fill="#200000"/>
<path d="M256.083 195.017V182.378H268.569V194.811C264.328 194.811 260.103 194.811 255.877 194.811L256.083 195.017Z" fill="#200000"/>
<path d="M216.746 181.783V194.385H204.29V181.988H216.951L216.746 181.783Z" fill="#200000"/>
<path d="M86.5479 194.806H73.8916V182.337H86.3423C86.3423 186.572 86.3423 190.792 86.3423 195.011L86.5479 194.806Z" fill="#200000"/>
<path d="M1090.94 181.778H1078.28V169.309H1090.73C1090.73 173.544 1090.73 177.763 1090.73 181.983L1090.94 181.778Z" fill="#200000"/>
<path d="M973.544 181.777H960.502V168.754L960.297 168.959H973.339C973.339 173.492 973.339 177.738 973.339 181.983L973.544 181.777Z" fill="#200000"/>
<path d="M908.284 181.988V169.35H920.77V181.783C916.529 181.783 912.304 181.783 908.078 181.783L908.284 181.988Z" fill="#200000"/>
<path d="M855.9 168.759V181.362H843.444V168.965H856.106L855.9 168.759Z" fill="#200000"/>
<path d="M829.637 169.196V181.377H817.31V169.196H829.637Z" fill="#200000"/>
<path d="M751.755 181.988V169.385H764.386C764.386 173.492 764.386 177.871 764.381 182.255C764.371 182.265 764.581 182.024 764.576 182.034C760.227 181.957 755.889 181.87 751.55 181.783L751.755 181.988Z" fill="#200000"/>
<path d="M686.546 181.978V169.339H699.393V181.978L699.593 181.767H686.346L686.546 181.978Z" fill="#200000"/>
<path d="M569.18 181.778H556.523V169.309H568.974C568.974 173.544 568.974 177.763 568.974 181.983L569.18 181.778Z" fill="#200000"/>
<path d="M516.797 168.959H529.381V181.541C525.248 181.541 520.868 181.541 516.478 181.531C516.468 181.526 516.709 181.731 516.699 181.726C516.791 177.399 516.894 173.076 516.997 168.754L516.791 168.959H516.797Z" fill="#200000"/>
<path d="M452.245 168.975H464.151V181.377H452.245V168.975Z" fill="#200000"/>
<path d="M282.007 168.959H294.627V181.398H282.212V168.754L282.007 168.959Z" fill="#200000"/>
<path d="M216.952 181.988V169.35H229.438V181.783C225.197 181.783 220.972 181.783 216.746 181.783L216.952 181.988Z" fill="#200000"/>
<path d="M138.515 168.713V181.351H126.028V168.918C130.269 168.918 134.495 168.918 138.721 168.918L138.515 168.713Z" fill="#200000"/>
<path d="M34.7148 169.185H46.9496V181.331H34.7148V169.185Z" fill="#200000"/>
<path d="M1338.32 156.208V168.318H1326.07V156.208H1338.32Z" fill="#200000"/>
<path d="M1247.67 168.446V156.332H1259.93V168.446H1247.67Z" fill="#200000"/>
<path d="M1221.6 168.369V156.152H1233.76V168.369H1221.6Z" fill="#200000"/>
<path d="M999.227 156.352V168.426H986.807V156.352H999.227Z" fill="#200000"/>
<path d="M960.497 168.754H947.83V155.941H960.456L960.25 155.736C960.265 160.145 960.276 164.55 960.291 168.959L960.497 168.754Z" fill="#200000"/>
<path d="M856.106 168.965V156.326H868.593V168.759C864.352 168.759 860.126 168.759 855.9 168.759L856.106 168.965Z" fill="#200000"/>
<path d="M712.455 155.931H725.075V168.369H712.661V155.726L712.455 155.931Z" fill="#200000"/>
<path d="M517.002 168.754H504.346V156.285H516.796C516.796 160.52 516.796 164.74 516.796 168.959L517.002 168.754Z" fill="#200000"/>
<path d="M282.212 168.754H269.556V156.285H282.006C282.006 160.52 282.006 164.74 282.006 168.959L282.212 168.754Z" fill="#200000"/>
<path d="M73.2953 155.685V168.323H60.8086V155.89C65.0496 155.89 69.2753 155.89 73.5009 155.89L73.2953 155.685Z" fill="#200000"/>
<path d="M1286.12 143.252V155.469H1273.96V143.252H1286.12Z" fill="#200000"/>
<path d="M1182.62 143.098H1194.79V155.243H1182.62V143.098Z" fill="#200000"/>
<path d="M1104.13 155.274V143.2H1116.55V155.274H1104.13Z" fill="#200000"/>
<path d="M960.456 155.941V143.303H972.942V155.736C968.701 155.736 964.476 155.736 960.25 155.736L960.456 155.941Z" fill="#200000"/>
<path d="M778.333 143.046H790.347V155.428H778.333V143.046Z" fill="#200000"/>
<path d="M712.66 155.726H700.004V143.257H712.455C712.455 147.492 712.455 151.711 712.455 155.931L712.66 155.726Z" fill="#200000"/>
<path d="M673.699 155.454V143.272H686.027V155.454H673.699Z" fill="#200000"/>
<path d="M595.227 155.941V143.303H607.714V155.736C603.473 155.736 599.247 155.736 595.021 155.736L595.227 155.941Z" fill="#200000"/>
<path d="M99.3438 142.872H112V155.341H99.5494C99.5494 151.106 99.5494 146.886 99.5494 142.667L99.3438 142.872Z" fill="#200000"/>
<path d="M1403.74 129.848H1416.4V142.317H1403.95C1403.95 138.082 1403.95 133.863 1403.95 129.643L1403.74 129.848Z" fill="#200000"/>
<path d="M1351.98 142.43V130.249H1364.31V142.43H1351.98Z" fill="#200000"/>
<path d="M1299.81 142.43V130.249H1312.14V142.43H1299.81Z" fill="#200000"/>
<path d="M1077.69 129.879H1090.31V142.317H1077.89V129.674L1077.69 129.879Z" fill="#200000"/>
<path d="M895.447 142.43V130.249H907.775V142.43H895.447Z" fill="#200000"/>
<path d="M764.437 130.3V142.374H752.018V130.3H764.437Z" fill="#200000"/>
<path d="M568.511 142.512H556.42V130.11H568.511V142.512Z" fill="#200000"/>
<path d="M138.911 142.281V130.136H151.074V142.281H138.911Z" fill="#200000"/>
<path d="M34.5762 142.394V130.28H46.8367V142.394H34.5762Z" fill="#200000"/>
<path d="M1220.66 129.622H1208.76V117.22H1220.66V129.622Z" fill="#200000"/>
<path d="M1077.89 129.674H1065.24V117.205H1077.69C1077.69 121.44 1077.69 125.659 1077.69 129.879L1077.89 129.674Z" fill="#200000"/>
<path d="M999.386 116.656V129.258H986.931V116.861H999.592L999.386 116.656Z" fill="#200000"/>
<path d="M804.103 129.186V117.189H816.502V129.186H804.103Z" fill="#200000"/>
<path d="M712.455 116.856H725.075V129.294H712.661V116.651L712.455 116.856Z" fill="#200000"/>
<path d="M491.365 116.994H503.379V129.376H491.365V116.994Z" fill="#200000"/>
<path d="M477.203 129.484H465.112V117.082H477.203V129.484Z" fill="#200000"/>
<path d="M1286.8 116.343V104.233H1299.06V116.343H1286.8Z" fill="#200000"/>
<path d="M1247.46 116.651H1234.81V104.182H1247.26C1247.26 108.417 1247.26 112.636 1247.26 116.856L1247.46 116.651Z" fill="#200000"/>
<path d="M999.592 116.861V104.223H1012.08V116.656C1007.84 116.656 1003.61 116.656 999.387 116.656L999.592 116.861Z" fill="#200000"/>
<path d="M920.652 116.599H908.746V104.197H920.652V116.599Z" fill="#200000"/>
<path d="M882.646 103.987H894.737V116.389H882.646V103.987Z" fill="#200000"/>
<path d="M712.66 116.651H700.004V104.182H712.455C712.455 108.417 712.455 112.636 712.455 116.856L712.66 116.651Z" fill="#200000"/>
<path d="M582.674 103.971H594.688V116.353H582.674V103.971Z" fill="#200000"/>
<path d="M556.138 116.307V104.269H568.558V116.307H556.138Z" fill="#200000"/>
<path d="M517.207 116.343V104.228H529.468V116.343H517.207Z" fill="#200000"/>
<path d="M282.588 104.022H294.751V116.168H282.588V104.022Z" fill="#200000"/>
<path d="M256.586 103.848H268.492V116.25H256.586V103.848Z" fill="#200000"/>
<path d="M242.624 104.104V116.219H230.363V104.104H242.624Z" fill="#200000"/>
<path d="M8.55371 104.038H20.6857V116.281H8.55371V104.038Z" fill="#200000"/>
<path d="M1390.95 103.627H1378.28V90.8142H1390.91L1390.7 90.6089C1390.72 95.0184 1390.73 99.4229 1390.75 103.832L1390.95 103.627Z" fill="#200000"/>
<path d="M1194.59 103.453H1182.57V91.071H1194.59V103.453Z" fill="#200000"/>
<path d="M1091.28 91.0352H1103.52V103.181H1091.28V91.0352Z" fill="#200000"/>
<path d="M764.633 90.804H777.253V103.242H764.838V90.5986L764.633 90.804Z" fill="#200000"/>
<path d="M673.144 91.261V103.258H660.745V91.261H673.144Z" fill="#200000"/>
<path d="M634.014 91.261V103.258H621.614V91.261H634.014Z" fill="#200000"/>
<path d="M425.487 90.804H438.108V103.242H425.693V90.5986L425.487 90.804Z" fill="#200000"/>
<path d="M99.1374 91.0762V103.191H86.877V91.0762H99.1374Z" fill="#200000"/>
<path d="M1390.91 90.8092V78.1709H1403.4V90.6039C1399.16 90.6039 1394.93 90.6039 1390.7 90.6039L1390.91 90.8092Z" fill="#200000"/>
<path d="M1208.71 77.9707H1220.88V90.1162H1208.71V77.9707Z" fill="#200000"/>
<path d="M764.838 90.5988H752.182V78.1299H764.632C764.632 82.3649 764.632 86.5845 764.632 90.8042L764.838 90.5988Z" fill="#200000"/>
<path d="M555.428 90.4293H543.414V78.0476H555.428V90.4293Z" fill="#200000"/>
<path d="M425.693 90.5988H413.037V78.1299H425.488C425.488 82.3649 425.488 86.5845 425.488 90.8042L425.693 90.5988Z" fill="#200000"/>
<path d="M216.273 90.5475H204.367V78.1453H216.273V90.5475Z" fill="#200000"/>
<path d="M190.38 90.3573H178.253V78.1194H190.38V90.3573Z" fill="#200000"/>
<path d="M1417.25 77.2673V65.1577H1429.5V77.2673H1417.25Z" fill="#200000"/>
<path d="M1326.07 64.9832H1338.31V77.1287H1326.07V64.9832Z" fill="#200000"/>
<path d="M1091.16 77.1903V64.9729H1103.33V77.1903H1091.16Z" fill="#200000"/>
<path d="M894.825 65.0244V77.1392H882.564V65.0244H894.825Z" fill="#200000"/>
<path d="M582.524 64.7676H594.579V77.1698H582.524V64.7676Z" fill="#200000"/>
<path d="M334.652 64.9626H346.784V77.2057H334.652V64.9626Z" fill="#200000"/>
<path d="M268.61 77.5292H256.555V65.127H268.61V77.5292Z" fill="#200000"/>
<path d="M764.581 52.0369V64.0746H752.161V52.0369H764.581Z" fill="#200000"/>
<path d="M464.351 52.0779V64.2953H452.188V52.0779H464.351Z" fill="#200000"/>
<path d="M1025.73 51.0205V39.1316H1038.15V51.0205H1025.73Z" fill="#200000"/>
<path d="M725.856 51.0666V38.9929H738.276V51.0666H725.856Z" fill="#200000"/>
<path d="M425.174 51.2772H413.047V39.0393H425.174V51.2772Z" fill="#200000"/>
<path d="M1207.95 13.1106V25.1073H1195.55V13.1106H1207.95Z" fill="#200000"/>
<path d="M1155.72 13.0337V25.1792H1143.56V13.0337H1155.72Z" fill="#200000"/>
<path d="M438.18 25.4256H426.125V13.0234H438.18V25.4256Z" fill="#200000"/>
<path d="M894.723 12.4022H882.668V0H894.723V12.4022Z" fill="#200000"/>
<path d="M543.091 285.98H530.419V260.492H542.885C542.885 269.086 542.885 277.638 542.885 286.185L543.091 285.98Z" fill="#200000"/>
<path d="M582.196 233.866V260.118H568.948V233.866H582.196Z" fill="#200000"/>
<path d="M803.928 286.195V273.557H816.415V285.99C812.174 285.99 807.948 285.99 803.723 285.99L803.928 286.195Z" fill="#200000"/>
<path d="M1155.93 233.866H1169.18V247.094H1155.93V233.866Z" fill="#200000"/>
<path d="M1234.2 286.17V272.941H1260.49V286.17H1234.2Z" fill="#200000"/>
<path d="M21.1025 299.193V285.964H34.35V299.193H21.1025Z" fill="#200000"/>
<path d="M8.06055 286.17V272.941H21.308V286.17H8.06055Z" fill="#200000"/>
<path d="M660.257 221.043V207.814H673.504V221.043H660.257Z" fill="#200000"/>
<path d="M647.215 220.837H660.462V234.066H647.215V220.837Z" fill="#200000"/>
</g>
<defs>
<clipPath id="clip0_0_4141">
<rect width="1443" height="781" fill="white"/>
</clipPath>
</defs>
</svg>
