<svg width="9" height="15" viewBox="0 0 9 15" fill="none" xmlns="http://www.w3.org/2000/svg">
<rect x="6" y="9" width="3" height="3" transform="rotate(-90 6 9)" fill="#3CFDFF"/>
<rect x="6" y="9" width="3" height="3" transform="rotate(-90 6 9)" fill="#3CFDFF"/>
<rect x="6" y="9" width="3" height="3" transform="rotate(-90 6 9)" fill="#3CFDFF"/>
<rect x="3" y="6" width="3" height="3" transform="rotate(-90 3 6)" fill="#3CFDFF"/>
<rect x="3" y="6" width="3" height="3" transform="rotate(-90 3 6)" fill="#3CFDFF"/>
<rect x="3" y="6" width="3" height="3" transform="rotate(-90 3 6)" fill="#3CFDFF"/>
<rect y="3" width="3" height="3" transform="rotate(-90 0 3)" fill="#3CFDFF"/>
<rect y="3" width="3" height="3" transform="rotate(-90 0 3)" fill="#3CFDFF"/>
<rect y="3" width="3" height="3" transform="rotate(-90 0 3)" fill="#3CFDFF"/>
<rect x="3" y="12" width="3" height="3" transform="rotate(-90 3 12)" fill="#3CFDFF"/>
<rect x="3" y="12" width="3" height="3" transform="rotate(-90 3 12)" fill="#3CFDFF"/>
<rect x="3" y="12" width="3" height="3" transform="rotate(-90 3 12)" fill="#3CFDFF"/>
<rect y="15" width="3" height="3" transform="rotate(-90 0 15)" fill="#3CFDFF"/>
<rect y="15" width="3" height="3" transform="rotate(-90 0 15)" fill="#3CFDFF"/>
<rect y="15" width="3" height="3" transform="rotate(-90 0 15)" fill="#3CFDFF"/>
</svg>
