<svg width="27" height="15" viewBox="0 0 27 15" fill="none" xmlns="http://www.w3.org/2000/svg">
<rect x="12" y="12" width="3" height="3" fill="#3CFDFF"/>
<rect x="12" y="12" width="3" height="3" fill="#3CFDFF"/>
<rect x="12" y="12" width="3" height="3" fill="#3CFDFF"/>
<rect x="15" y="9" width="3" height="3" fill="#3CFDFF"/>
<rect x="15" y="9" width="3" height="3" fill="#3CFDFF"/>
<rect x="15" y="9" width="3" height="3" fill="#3CFDFF"/>
<rect x="18" y="6" width="3" height="3" fill="#3CFDFF"/>
<rect x="18" y="6" width="3" height="3" fill="#3CFDFF"/>
<rect x="18" y="6" width="3" height="3" fill="#3CFDFF"/>
<rect x="21" y="3" width="3" height="3" fill="#3CFDFF"/>
<rect x="21" y="3" width="3" height="3" fill="#3CFDFF"/>
<rect x="21" y="3" width="3" height="3" fill="#3CFDFF"/>
<rect x="24" width="3" height="3" fill="#3CFDFF"/>
<rect x="24" width="3" height="3" fill="#3CFDFF"/>
<rect x="24" width="3" height="3" fill="#3CFDFF"/>
<rect width="3" height="3" fill="#3CFDFF"/>
<rect width="3" height="3" fill="#3CFDFF"/>
<rect width="3" height="3" fill="#3CFDFF"/>
<rect x="3" y="3" width="3" height="3" fill="#3CFDFF"/>
<rect x="3" y="3" width="3" height="3" fill="#3CFDFF"/>
<rect x="3" y="3" width="3" height="3" fill="#3CFDFF"/>
<rect x="9" y="9" width="3" height="3" fill="#3CFDFF"/>
<rect x="9" y="9" width="3" height="3" fill="#3CFDFF"/>
<rect x="9" y="9" width="3" height="3" fill="#3CFDFF"/>
<rect x="6" y="6" width="3" height="3" fill="#3CFDFF"/>
<rect x="6" y="6" width="3" height="3" fill="#3CFDFF"/>
<rect x="6" y="6" width="3" height="3" fill="#3CFDFF"/>
</svg>
